{"glyphs":{"0":{"ha":852,"x_min":57,"x_max":795,"o":"m 426 -15 q 153 115 248 -15 q 57 473 57 245 q 153 831 57 701 q 426 962 248 962 q 698 833 601 962 q 795 473 795 704 q 698 114 795 243 q 426 -15 601 -15 m 426 102 q 605 199 541 102 q 669 473 669 296 q 605 747 669 650 q 426 844 541 844 q 247 747 311 844 q 183 473 183 650 q 247 199 183 296 q 426 102 311 102 z "},"1":{"ha":852,"x_min":172,"x_max":719,"o":"m 240 -1 q 199 16 216 -1 q 182 57 182 33 q 199 99 182 81 q 240 117 216 117 l 400 117 l 400 780 q 395 793 400 789 q 381 791 391 796 l 263 734 q 232 726 245 726 q 189 743 206 726 q 172 785 172 760 q 209 842 172 825 l 393 939 q 431 948 408 948 l 460 948 q 507 928 487 948 q 526 882 526 909 l 526 117 l 659 117 q 701 99 684 117 q 719 57 719 81 q 701 16 719 33 q 659 -1 684 -1 l 240 -1 z "},"2":{"ha":852,"x_min":87,"x_max":751,"o":"m 160 -1 q 107 18 127 -1 q 87 71 87 38 q 129 202 87 142 q 221 302 167 258 q 384 415 275 346 q 515 505 463 465 q 629 675 629 590 q 576 800 629 757 q 416 842 522 842 q 184 793 294 842 q 159 787 168 787 q 121 802 137 787 q 106 841 106 818 q 137 892 106 875 q 438 962 275 962 q 597 928 528 962 q 711 829 670 892 q 751 685 751 766 q 705 536 751 602 q 602 422 662 472 q 423 296 541 372 q 276 189 320 225 q 214 117 232 153 l 684 117 q 726 99 708 117 q 743 57 743 81 q 726 16 743 33 q 684 -1 708 -1 l 160 -1 z "},"3":{"ha":852,"x_min":79,"x_max":751,"o":"m 556 490 q 696 410 642 469 q 751 248 751 350 q 654 55 751 125 q 399 -15 557 -15 q 115 39 244 -15 q 79 92 79 54 q 94 134 79 117 q 134 151 110 151 q 160 145 146 151 q 376 106 259 106 q 557 142 488 106 q 625 255 625 179 q 327 425 625 425 l 305 425 q 264 442 282 425 q 247 483 247 460 q 264 524 247 506 q 305 541 282 541 l 313 541 q 521 583 450 541 q 591 704 591 624 q 536 807 591 770 q 378 844 480 844 q 168 799 263 844 q 144 793 155 793 q 108 808 123 793 q 92 845 92 823 q 121 892 92 876 q 389 962 250 962 q 631 898 545 962 q 718 716 718 834 q 556 490 718 551 z "},"4":{"ha":852,"x_min":33,"x_max":810,"o":"m 587 -8 q 543 10 562 -8 q 525 54 525 28 l 525 237 l 113 237 q 56 260 80 237 q 33 316 33 283 l 33 328 q 49 378 33 357 l 475 922 q 505 946 487 937 q 544 955 524 955 l 571 955 q 629 932 606 955 q 651 875 651 909 l 651 350 l 753 350 q 793 333 776 350 q 810 293 810 316 q 793 253 810 269 q 753 237 777 237 l 651 237 l 651 54 q 632 10 651 28 q 587 -8 613 -8 m 525 779 q 522 788 525 784 q 517 792 519 792 q 506 784 513 792 l 183 369 q 178 359 178 363 q 193 350 178 350 l 525 350 l 525 779 z "},"5":{"ha":852,"x_min":85,"x_max":776,"o":"m 403 -15 q 113 64 237 -15 q 92 84 99 73 q 85 114 85 95 q 101 157 85 140 q 141 174 117 174 q 170 167 153 174 q 387 110 279 110 q 585 154 519 110 q 650 300 650 198 q 594 432 650 384 q 441 480 538 480 q 233 422 327 480 l 217 414 q 184 406 203 406 q 119 428 145 406 q 94 486 94 450 q 96 518 94 496 l 157 879 q 181 929 161 910 q 231 948 201 948 l 666 948 q 708 930 690 948 q 726 888 726 913 q 708 847 726 864 q 666 830 690 830 l 300 830 q 270 806 274 830 l 231 547 q 458 601 335 601 q 631 562 556 601 q 739 453 701 522 q 776 293 776 384 q 680 68 776 152 q 403 -15 583 -15 z "},"6":{"ha":852,"x_min":79,"x_max":788,"o":"m 639 575 q 749 460 711 533 q 788 294 788 388 q 747 138 788 210 q 628 25 705 65 q 452 -15 551 -15 q 79 472 79 -15 q 118 701 79 587 q 250 890 159 819 q 473 962 340 962 q 602 947 545 962 q 713 903 658 932 q 735 882 727 897 q 743 853 743 868 q 727 814 743 831 q 686 796 711 796 q 663 800 674 796 q 483 840 578 840 q 276 744 343 840 q 199 499 209 648 q 476 614 294 614 q 639 575 568 614 m 564 130 q 636 200 610 156 q 662 297 662 244 q 609 446 662 392 q 461 499 556 499 q 206 351 286 499 q 453 103 243 103 q 564 130 514 103 z "},"7":{"ha":852,"x_min":80,"x_max":770,"o":"m 312 -8 q 268 10 286 -8 q 250 54 250 28 q 258 87 250 73 l 620 808 q 623 818 623 817 q 609 827 623 827 l 140 827 q 98 845 115 827 q 80 887 80 863 q 98 930 80 911 q 140 948 115 948 l 693 948 q 748 928 726 948 q 770 875 770 907 q 757 815 770 846 l 372 27 q 347 1 363 11 q 312 -8 330 -8 z "},"8":{"ha":852,"x_min":62,"x_max":789,"o":"m 426 -15 q 218 24 300 -15 q 101 122 140 62 q 62 251 62 182 q 262 507 62 439 q 149 586 191 533 q 107 713 107 639 q 140 829 107 774 q 245 926 172 890 q 426 962 319 962 q 609 925 538 962 q 711 833 677 890 q 745 713 745 776 q 703 586 745 639 q 590 507 661 533 q 789 251 789 439 q 753 123 789 183 q 631 22 715 60 q 426 -15 548 -15 m 426 560 q 570 602 521 560 q 618 705 618 643 q 567 812 618 773 q 426 850 515 850 q 285 812 336 850 q 233 705 233 773 q 282 602 233 643 q 426 560 331 560 m 426 96 q 564 125 510 96 q 638 189 613 151 q 663 264 663 227 q 596 397 663 349 q 426 446 529 446 q 256 397 323 446 q 189 264 189 349 q 213 191 189 231 q 292 123 239 149 q 426 96 346 96 z "},"9":{"ha":852,"x_min":64,"x_max":773,"o":"m 400 962 q 773 475 773 962 q 735 245 773 355 q 603 56 694 127 q 378 -15 511 -15 q 250 0 307 -15 q 138 43 194 15 q 117 64 125 50 q 109 94 109 79 q 125 133 109 115 q 165 151 142 151 q 189 146 178 151 q 369 107 274 107 q 576 203 509 107 q 652 448 643 298 q 376 332 557 332 q 214 372 286 332 q 102 486 141 414 q 64 652 64 559 q 104 808 64 738 q 224 922 146 882 q 400 962 301 962 m 391 448 q 646 595 566 448 q 399 844 609 844 q 289 818 336 844 q 216 748 241 792 q 190 650 190 704 q 243 501 190 555 q 391 448 296 448 z "}," ":{"ha":407,"x_min":0,"x_max":0,"o":""},"A":{"ha":1012,"x_min":66,"x_max":945,"o":"m 129 -8 q 84 10 102 -8 q 66 54 66 28 q 73 81 66 64 l 419 898 q 452 940 431 925 q 499 955 472 955 l 513 955 q 560 940 540 955 q 593 898 581 925 l 939 81 q 945 54 945 64 q 928 10 945 28 q 883 -8 910 -8 q 847 2 863 -8 q 823 31 831 12 l 735 241 l 277 241 l 189 31 q 165 2 180 12 q 129 -8 149 -8 m 517 768 q 506 777 513 777 q 495 768 499 777 l 324 357 l 688 357 l 517 768 z "},"Á":{"ha":1012,"x_min":66,"x_max":945,"o":"m 506 1001 q 479 1011 490 1001 q 468 1039 468 1021 q 477 1066 468 1050 l 547 1187 q 593 1214 560 1214 q 629 1200 614 1214 q 644 1162 644 1185 q 631 1127 644 1141 l 537 1016 q 506 1001 525 1001 m 129 -8 q 84 10 102 -8 q 66 54 66 28 q 73 81 66 64 l 419 898 q 452 940 431 925 q 499 955 472 955 l 513 955 q 560 940 540 955 q 593 898 581 925 l 939 81 q 945 54 945 64 q 928 10 945 28 q 883 -8 910 -8 q 847 2 863 -8 q 823 31 831 12 l 735 241 l 277 241 l 189 31 q 165 2 180 12 q 129 -8 149 -8 m 517 768 q 506 777 513 777 q 495 768 499 777 l 324 357 l 688 357 l 517 768 z "},"Â":{"ha":1012,"x_min":66,"x_max":945,"o":"m 363 1000 q 334 1013 347 1000 q 321 1040 321 1025 q 332 1069 321 1055 l 425 1164 q 480 1191 450 1191 l 532 1191 q 587 1164 562 1191 l 680 1069 q 690 1040 690 1055 q 677 1013 690 1025 q 648 1000 665 1000 q 623 1009 633 1000 l 517 1099 q 506 1104 513 1104 q 495 1099 500 1104 l 389 1009 q 363 1000 378 1000 m 129 -8 q 84 10 102 -8 q 66 54 66 28 q 73 81 66 64 l 419 898 q 452 940 431 925 q 499 955 472 955 l 513 955 q 560 940 540 955 q 593 898 581 925 l 939 81 q 945 54 945 64 q 928 10 945 28 q 883 -8 910 -8 q 847 2 863 -8 q 823 31 831 12 l 735 241 l 277 241 l 189 31 q 165 2 180 12 q 129 -8 149 -8 m 517 768 q 506 777 513 777 q 495 768 499 777 l 324 357 l 688 357 l 517 768 z "},"Ä":{"ha":1012,"x_min":66,"x_max":945,"o":"m 392 1012 q 342 1033 363 1012 q 321 1082 321 1054 q 342 1132 321 1111 q 392 1153 363 1153 q 441 1132 420 1153 q 463 1082 463 1111 q 441 1033 463 1054 q 392 1012 420 1012 m 620 1012 q 570 1033 591 1012 q 549 1082 549 1054 q 570 1132 549 1111 q 620 1153 591 1153 q 669 1132 648 1153 q 690 1082 690 1111 q 669 1033 690 1054 q 620 1012 648 1012 m 129 -8 q 84 10 102 -8 q 66 54 66 28 q 73 81 66 64 l 419 898 q 452 940 431 925 q 499 955 472 955 l 513 955 q 560 940 540 955 q 593 898 581 925 l 939 81 q 945 54 945 64 q 928 10 945 28 q 883 -8 910 -8 q 847 2 863 -8 q 823 31 831 12 l 735 241 l 277 241 l 189 31 q 165 2 180 12 q 129 -8 149 -8 m 517 768 q 506 777 513 777 q 495 768 499 777 l 324 357 l 688 357 l 517 768 z "},"À":{"ha":1012,"x_min":66,"x_max":945,"o":"m 506 1001 q 475 1016 487 1001 l 381 1127 q 368 1162 368 1141 q 382 1200 368 1187 q 419 1214 396 1214 q 465 1187 452 1214 l 534 1066 q 544 1039 544 1050 q 534 1012 544 1023 q 506 1001 524 1001 m 129 -8 q 84 10 102 -8 q 66 54 66 28 q 73 81 66 64 l 419 898 q 452 940 431 925 q 499 955 472 955 l 513 955 q 560 940 540 955 q 593 898 581 925 l 939 81 q 945 54 945 64 q 928 10 945 28 q 883 -8 910 -8 q 847 2 863 -8 q 823 31 831 12 l 735 241 l 277 241 l 189 31 q 165 2 180 12 q 129 -8 149 -8 m 517 768 q 506 777 513 777 q 495 768 499 777 l 324 357 l 688 357 l 517 768 z "},"Å":{"ha":1012,"x_min":66,"x_max":945,"o":"m 506 979 q 415 1017 453 979 q 377 1108 377 1055 q 415 1199 377 1161 q 506 1237 453 1237 q 597 1199 559 1237 q 635 1108 635 1161 q 597 1017 635 1055 q 506 979 559 979 m 506 1043 q 552 1062 533 1043 q 571 1108 571 1081 q 552 1154 571 1135 q 506 1173 533 1173 q 460 1154 479 1173 q 441 1108 441 1135 q 460 1062 441 1081 q 506 1043 479 1043 m 129 -8 q 84 10 102 -8 q 66 54 66 28 q 73 81 66 64 l 419 898 q 452 940 431 925 q 499 955 472 955 l 513 955 q 560 940 540 955 q 593 898 581 925 l 939 81 q 945 54 945 64 q 928 10 945 28 q 883 -8 910 -8 q 847 2 863 -8 q 823 31 831 12 l 735 241 l 277 241 l 189 31 q 165 2 180 12 q 129 -8 149 -8 m 517 768 q 506 777 513 777 q 495 768 499 777 l 324 357 l 688 357 l 517 768 z "},"Ã":{"ha":1012,"x_min":66,"x_max":945,"o":"m 319 1006 q 296 1016 307 1006 q 286 1039 286 1025 q 320 1128 286 1086 q 401 1169 354 1169 q 450 1162 427 1169 q 510 1137 473 1154 q 566 1112 545 1119 q 610 1105 587 1105 q 640 1114 628 1105 q 659 1141 651 1122 q 694 1171 670 1171 q 717 1162 708 1171 q 727 1139 726 1153 q 694 1049 727 1089 q 612 1009 661 1009 q 564 1017 586 1009 q 500 1043 543 1024 q 445 1067 465 1061 q 403 1074 425 1074 q 351 1032 369 1074 q 319 1006 343 1006 m 129 -8 q 84 10 102 -8 q 66 54 66 28 q 73 81 66 64 l 419 898 q 452 940 431 925 q 499 955 472 955 l 513 955 q 560 940 540 955 q 593 898 581 925 l 939 81 q 945 54 945 64 q 928 10 945 28 q 883 -8 910 -8 q 847 2 863 -8 q 823 31 831 12 l 735 241 l 277 241 l 189 31 q 165 2 180 12 q 129 -8 149 -8 m 517 768 q 506 777 513 777 q 495 768 499 777 l 324 357 l 688 357 l 517 768 z "},"Æ":{"ha":1411,"x_min":1,"x_max":1341,"o":"m 65 -8 q 20 10 39 -8 q 1 54 1 28 q 15 94 1 71 l 556 914 q 620 948 583 948 l 1282 948 q 1324 930 1306 948 q 1341 888 1341 913 q 1324 847 1341 864 q 1282 830 1306 830 l 818 830 q 802 814 802 830 l 802 533 l 1233 533 q 1275 515 1257 533 q 1293 473 1293 498 q 1275 432 1293 449 q 1233 415 1257 415 l 802 415 l 802 133 q 818 117 802 117 l 1282 117 q 1324 99 1306 117 q 1341 57 1341 81 q 1324 16 1341 33 q 1282 -1 1306 -1 l 738 -1 q 694 17 712 -1 q 675 61 675 35 l 675 241 l 259 241 l 122 27 q 65 -8 98 -8 m 656 830 q 636 819 643 830 l 335 357 l 675 357 l 675 830 l 656 830 z "},"B":{"ha":940,"x_min":130,"x_max":871,"o":"m 193 -1 q 149 17 167 -1 q 130 61 130 35 l 130 884 q 149 929 130 910 q 193 948 167 948 l 513 948 q 736 882 655 948 q 818 701 818 817 q 783 573 818 627 q 688 492 747 519 q 821 408 772 465 q 871 266 871 350 q 782 66 871 134 q 521 -1 693 -1 l 193 -1 m 480 538 q 647 577 597 538 q 697 692 697 616 q 645 793 697 755 q 503 830 593 830 l 273 830 q 256 814 256 830 l 256 538 l 480 538 m 509 117 q 692 155 636 117 q 749 271 749 194 q 510 425 749 425 l 256 425 l 256 133 q 273 117 256 117 l 509 117 z "},"C":{"ha":943,"x_min":73,"x_max":890,"o":"m 549 -15 q 307 45 414 -15 q 135 216 197 104 q 73 473 73 327 q 136 732 73 621 q 304 902 197 842 q 549 962 412 962 q 711 941 639 962 q 859 878 783 921 q 890 825 890 863 q 874 788 890 804 q 834 772 859 772 q 810 777 819 772 q 690 825 747 810 q 562 841 633 841 q 365 793 445 841 q 242 664 285 746 q 199 473 199 582 q 241 285 199 365 q 366 153 283 199 q 562 106 449 106 q 690 121 633 106 q 810 170 747 137 q 834 175 819 175 q 874 159 859 175 q 890 122 890 144 q 859 69 890 85 q 711 5 783 26 q 549 -15 639 -15 z "},"Ç":{"ha":943,"x_min":73,"x_max":890,"o":"m 834 175 q 874 159 859 175 q 890 122 890 144 q 859 69 890 85 q 715 7 785 27 q 560 -15 646 -14 l 521 -83 q 564 -79 541 -79 q 640 -106 610 -79 q 670 -175 670 -133 q 631 -269 670 -237 q 518 -301 593 -301 q 395 -266 454 -301 q 380 -241 380 -252 q 387 -221 380 -229 q 407 -213 395 -213 q 420 -217 412 -213 q 500 -240 464 -240 q 576 -179 576 -240 q 564 -149 576 -160 q 529 -138 551 -138 q 469 -153 502 -138 q 456 -157 461 -157 q 438 -151 446 -157 q 430 -134 430 -144 q 435 -114 430 -123 l 499 -14 q 281 60 378 -4 q 127 230 180 122 q 73 473 73 338 q 136 732 73 621 q 304 902 197 842 q 549 962 412 962 q 711 941 639 962 q 859 878 783 921 q 890 825 890 863 q 874 788 890 804 q 834 772 859 772 q 810 777 819 772 q 690 825 747 810 q 562 841 633 841 q 365 793 445 841 q 242 664 285 746 q 199 473 199 582 q 241 285 199 365 q 366 153 283 199 q 562 106 449 106 q 690 121 633 106 q 810 170 747 137 q 834 175 819 175 z "},"D":{"ha":1019,"x_min":130,"x_max":945,"o":"m 193 -1 q 149 17 167 -1 q 130 61 130 35 l 130 884 q 149 929 130 910 q 193 948 167 948 l 465 948 q 730 880 618 948 q 890 705 834 812 q 945 473 945 597 q 891 245 945 353 q 726 65 836 132 q 465 -1 616 -1 l 193 -1 m 450 117 q 646 163 562 117 q 775 288 730 208 q 821 473 821 368 q 774 661 821 579 q 644 786 728 742 q 450 830 560 830 l 273 830 q 256 814 256 830 l 256 133 q 273 117 256 117 l 450 117 z "},"Ð":{"ha":1025,"x_min":19,"x_max":952,"o":"m 199 -1 q 155 17 174 -1 q 137 61 137 35 l 137 426 l 65 426 q 33 439 46 426 q 19 472 19 453 q 32 506 19 492 q 65 519 45 519 l 137 519 l 137 884 q 155 929 137 910 q 199 948 174 948 l 472 948 q 736 880 625 948 q 897 705 841 812 q 952 473 952 597 q 898 245 952 353 q 732 65 842 132 q 472 -1 623 -1 l 199 -1 m 457 117 q 652 163 568 117 q 782 288 736 208 q 827 473 827 368 q 781 661 827 579 q 651 786 735 742 q 457 830 567 830 l 279 830 q 263 814 263 830 l 263 519 l 420 519 q 454 505 439 519 q 468 472 468 491 q 454 439 468 452 q 420 426 441 426 l 263 426 l 263 133 q 279 117 263 117 l 457 117 z "},"E":{"ha":865,"x_min":130,"x_max":796,"o":"m 193 -1 q 149 17 167 -1 q 130 61 130 35 l 130 884 q 149 929 130 910 q 193 948 167 948 l 736 948 q 779 930 761 948 q 796 888 796 913 q 779 847 796 864 q 736 830 761 830 l 273 830 q 256 814 256 830 l 256 533 l 688 533 q 730 515 712 533 q 747 473 747 498 q 730 432 747 449 q 688 415 712 415 l 256 415 l 256 133 q 273 117 256 117 l 736 117 q 779 99 761 117 q 796 57 796 81 q 779 16 796 33 q 736 -1 761 -1 l 193 -1 z "},"É":{"ha":865,"x_min":130,"x_max":796,"o":"m 464 1001 q 437 1011 448 1001 q 426 1039 426 1021 q 435 1066 426 1050 l 505 1187 q 551 1214 518 1214 q 587 1200 572 1214 q 602 1162 602 1185 q 589 1127 602 1141 l 495 1016 q 464 1001 483 1001 m 193 -1 q 149 17 167 -1 q 130 61 130 35 l 130 884 q 149 929 130 910 q 193 948 167 948 l 736 948 q 779 930 761 948 q 796 888 796 913 q 779 847 796 864 q 736 830 761 830 l 273 830 q 256 814 256 830 l 256 533 l 688 533 q 730 515 712 533 q 747 473 747 498 q 730 432 747 449 q 688 415 712 415 l 256 415 l 256 133 q 273 117 256 117 l 736 117 q 779 99 761 117 q 796 57 796 81 q 779 16 796 33 q 736 -1 761 -1 l 193 -1 z "},"Ê":{"ha":865,"x_min":130,"x_max":796,"o":"m 321 1000 q 292 1013 305 1000 q 279 1040 279 1025 q 290 1069 279 1055 l 382 1164 q 438 1191 408 1191 l 490 1191 q 545 1164 519 1191 l 637 1069 q 648 1040 648 1055 q 635 1013 648 1025 q 606 1000 623 1000 q 581 1009 591 1000 l 475 1099 q 464 1104 471 1104 q 453 1099 458 1104 l 347 1009 q 321 1000 336 1000 m 193 -1 q 149 17 167 -1 q 130 61 130 35 l 130 884 q 149 929 130 910 q 193 948 167 948 l 736 948 q 779 930 761 948 q 796 888 796 913 q 779 847 796 864 q 736 830 761 830 l 273 830 q 256 814 256 830 l 256 533 l 688 533 q 730 515 712 533 q 747 473 747 498 q 730 432 747 449 q 688 415 712 415 l 256 415 l 256 133 q 273 117 256 117 l 736 117 q 779 99 761 117 q 796 57 796 81 q 779 16 796 33 q 736 -1 761 -1 l 193 -1 z "},"Ë":{"ha":865,"x_min":130,"x_max":796,"o":"m 350 1012 q 300 1033 321 1012 q 279 1082 279 1054 q 300 1132 279 1111 q 350 1153 321 1153 q 399 1132 378 1153 q 420 1082 420 1111 q 399 1033 420 1054 q 350 1012 378 1012 m 578 1012 q 528 1033 549 1012 q 507 1082 507 1054 q 528 1132 507 1111 q 578 1153 549 1153 q 627 1132 606 1153 q 648 1082 648 1111 q 627 1033 648 1054 q 578 1012 606 1012 m 193 -1 q 149 17 167 -1 q 130 61 130 35 l 130 884 q 149 929 130 910 q 193 948 167 948 l 736 948 q 779 930 761 948 q 796 888 796 913 q 779 847 796 864 q 736 830 761 830 l 273 830 q 256 814 256 830 l 256 533 l 688 533 q 730 515 712 533 q 747 473 747 498 q 730 432 747 449 q 688 415 712 415 l 256 415 l 256 133 q 273 117 256 117 l 736 117 q 779 99 761 117 q 796 57 796 81 q 779 16 796 33 q 736 -1 761 -1 l 193 -1 z "},"È":{"ha":865,"x_min":130,"x_max":796,"o":"m 464 1001 q 433 1016 445 1001 l 339 1127 q 326 1162 326 1141 q 340 1200 326 1187 q 377 1214 354 1214 q 423 1187 410 1214 l 492 1066 q 502 1039 502 1050 q 492 1012 502 1023 q 464 1001 481 1001 m 193 -1 q 149 17 167 -1 q 130 61 130 35 l 130 884 q 149 929 130 910 q 193 948 167 948 l 736 948 q 779 930 761 948 q 796 888 796 913 q 779 847 796 864 q 736 830 761 830 l 273 830 q 256 814 256 830 l 256 533 l 688 533 q 730 515 712 533 q 747 473 747 498 q 730 432 747 449 q 688 415 712 415 l 256 415 l 256 133 q 273 117 256 117 l 736 117 q 779 99 761 117 q 796 57 796 81 q 779 16 796 33 q 736 -1 761 -1 l 193 -1 z "},"F":{"ha":825,"x_min":130,"x_max":780,"o":"m 193 -8 q 149 10 167 -8 q 130 54 130 28 l 130 884 q 149 929 130 910 q 193 948 167 948 l 720 948 q 762 930 745 948 q 780 888 780 913 q 762 847 780 864 q 720 830 745 830 l 273 830 q 256 814 256 830 l 256 533 l 673 533 q 715 515 697 533 q 732 473 732 498 q 715 432 732 449 q 673 415 697 415 l 256 415 l 256 54 q 237 10 256 28 q 193 -8 218 -8 z "},"G":{"ha":1027,"x_min":73,"x_max":914,"o":"m 551 -15 q 302 47 410 -15 q 133 220 193 110 q 73 472 73 331 q 136 727 73 616 q 307 900 198 838 q 547 962 415 962 q 726 937 647 962 q 884 864 806 913 q 905 844 897 859 q 913 814 913 830 q 897 774 913 791 q 854 757 880 757 q 826 764 842 757 q 697 821 761 802 q 560 840 633 840 q 374 796 461 840 q 245 667 290 751 q 199 472 199 583 q 244 283 199 368 q 373 151 289 198 q 567 104 457 104 q 803 164 692 104 l 803 391 q 787 407 803 407 l 581 407 q 541 424 557 407 q 524 464 524 441 q 541 504 524 487 q 581 521 557 521 l 848 521 q 895 501 875 521 q 914 454 914 481 l 914 146 q 901 96 914 118 q 861 61 887 73 q 551 -15 707 -15 z "},"H":{"ha":1024,"x_min":130,"x_max":894,"o":"m 193 -8 q 149 10 167 -8 q 130 54 130 28 l 130 891 q 149 936 130 917 q 193 955 167 955 q 237 936 218 955 q 256 891 256 917 l 256 532 l 768 532 l 768 891 q 786 936 768 917 q 830 955 804 955 q 875 936 856 955 q 894 891 894 917 l 894 54 q 875 10 894 28 q 830 -8 856 -8 q 786 10 804 -8 q 768 54 768 28 l 768 414 l 256 414 l 256 54 q 237 10 256 28 q 193 -8 218 -8 z "},"I":{"ha":387,"x_min":130,"x_max":256,"o":"m 193 -8 q 149 10 167 -8 q 130 54 130 28 l 130 891 q 149 936 130 917 q 193 955 167 955 q 237 936 218 955 q 256 891 256 917 l 256 54 q 237 10 256 28 q 193 -8 218 -8 z "},"Í":{"ha":387,"x_min":130,"x_max":332,"o":"m 194 1001 q 167 1011 178 1001 q 156 1039 156 1021 q 165 1066 156 1050 l 235 1187 q 281 1214 248 1214 q 317 1200 302 1214 q 332 1162 332 1185 q 319 1127 332 1141 l 225 1016 q 194 1001 213 1001 m 193 -8 q 149 10 167 -8 q 130 54 130 28 l 130 891 q 149 936 130 917 q 193 955 167 955 q 237 936 218 955 q 256 891 256 917 l 256 54 q 237 10 256 28 q 193 -8 218 -8 z "},"Î":{"ha":387,"x_min":9,"x_max":378,"o":"m 52 1000 q 22 1013 35 1000 q 9 1040 9 1025 q 20 1069 9 1055 l 113 1164 q 168 1191 138 1191 l 220 1191 q 275 1164 250 1191 l 368 1069 q 378 1040 378 1055 q 366 1013 378 1025 q 336 1000 353 1000 q 311 1009 321 1000 l 205 1099 q 194 1104 201 1104 q 183 1099 189 1104 l 77 1009 q 52 1000 66 1000 m 193 -8 q 149 10 167 -8 q 130 54 130 28 l 130 891 q 149 936 130 917 q 193 955 167 955 q 237 936 218 955 q 256 891 256 917 l 256 54 q 237 10 256 28 q 193 -8 218 -8 z "},"Ï":{"ha":387,"x_min":9,"x_max":378,"o":"m 80 1012 q 31 1033 52 1012 q 9 1082 9 1054 q 31 1132 9 1111 q 80 1153 52 1153 q 130 1132 109 1153 q 151 1082 151 1111 q 130 1033 151 1054 q 80 1012 109 1012 m 308 1012 q 258 1033 279 1012 q 237 1082 237 1054 q 258 1132 237 1111 q 308 1153 279 1153 q 357 1132 336 1153 q 378 1082 378 1111 q 357 1033 378 1054 q 308 1012 336 1012 m 193 -8 q 149 10 167 -8 q 130 54 130 28 l 130 891 q 149 936 130 917 q 193 955 167 955 q 237 936 218 955 q 256 891 256 917 l 256 54 q 237 10 256 28 q 193 -8 218 -8 z "},"Ì":{"ha":387,"x_min":56,"x_max":256,"o":"m 194 1001 q 163 1016 175 1001 l 69 1127 q 56 1162 56 1141 q 70 1200 56 1187 q 107 1214 84 1214 q 153 1187 140 1214 l 222 1066 q 232 1039 232 1050 q 222 1012 232 1023 q 194 1001 212 1001 m 193 -8 q 149 10 167 -8 q 130 54 130 28 l 130 891 q 149 936 130 917 q 193 955 167 955 q 237 936 218 955 q 256 891 256 917 l 256 54 q 237 10 256 28 q 193 -8 218 -8 z "},"J":{"ha":632,"x_min":16,"x_max":509,"o":"m 228 -15 q 46 31 129 -15 q 16 83 16 50 q 31 122 16 104 q 69 140 46 140 q 94 134 84 140 q 220 104 155 104 q 340 149 298 104 q 382 304 382 194 l 382 891 q 401 936 382 917 q 445 955 419 955 q 490 936 471 955 q 509 891 509 917 l 509 312 q 437 68 509 151 q 228 -15 366 -15 z "},"K":{"ha":909,"x_min":130,"x_max":869,"o":"m 193 -8 q 149 10 167 -8 q 130 54 130 28 l 130 891 q 149 936 130 917 q 193 955 167 955 q 237 936 218 955 q 256 891 256 917 l 256 463 l 718 933 q 765 955 735 955 q 806 939 789 955 q 823 899 823 924 q 808 856 823 873 l 495 545 l 854 94 q 869 50 869 75 q 851 9 869 26 q 808 -8 833 -8 q 758 16 779 -8 l 410 461 l 256 308 l 256 54 q 237 10 256 28 q 193 -8 218 -8 z "},"L":{"ha":781,"x_min":130,"x_max":762,"o":"m 217 -1 q 156 24 182 -1 q 130 85 130 50 l 130 891 q 149 936 130 917 q 193 955 167 955 q 237 936 218 955 q 256 891 256 917 l 256 141 q 273 125 256 125 l 699 125 q 743 106 724 125 q 762 61 762 87 q 743 17 762 35 q 699 -1 724 -1 l 217 -1 z "},"M":{"ha":1310,"x_min":130,"x_max":1180,"o":"m 193 -8 q 149 10 167 -8 q 130 54 130 28 l 130 864 q 157 928 130 901 q 220 955 183 955 l 264 955 q 313 939 290 955 q 349 897 336 924 l 644 159 q 655 149 648 149 q 666 159 662 149 l 962 897 q 997 939 974 924 q 1046 955 1020 955 l 1090 955 q 1154 928 1127 955 q 1180 864 1180 901 l 1180 54 q 1162 10 1180 28 q 1118 -8 1143 -8 q 1073 10 1092 -8 q 1054 54 1054 28 l 1054 770 q 1046 783 1054 783 q 1036 774 1040 783 l 743 50 q 708 8 732 24 q 655 -8 684 -8 q 602 8 627 -8 q 567 50 578 24 l 274 774 q 264 783 270 783 q 256 770 256 783 l 256 54 q 237 10 256 28 q 193 -8 218 -8 z "},"N":{"ha":1089,"x_min":130,"x_max":959,"o":"m 193 -8 q 149 10 167 -8 q 130 54 130 28 l 130 864 q 157 928 130 901 q 220 955 183 955 l 237 955 q 313 914 281 955 l 814 191 q 825 183 821 183 q 830 187 827 183 q 833 197 833 191 l 833 891 q 851 936 833 917 q 895 955 869 955 q 940 936 921 955 q 959 891 959 917 l 959 81 q 932 18 959 45 q 868 -8 905 -8 l 852 -8 q 810 2 830 -8 q 779 28 791 12 l 275 755 q 264 764 269 764 q 259 760 262 764 q 256 750 256 755 l 256 54 q 237 10 256 28 q 193 -8 218 -8 z "},"Ñ":{"ha":1089,"x_min":130,"x_max":959,"o":"m 358 1006 q 336 1016 346 1006 q 326 1039 326 1025 q 359 1128 326 1086 q 441 1169 393 1169 q 490 1162 467 1169 q 549 1137 513 1154 q 606 1112 585 1119 q 650 1105 627 1105 q 679 1114 667 1105 q 699 1141 690 1122 q 734 1171 709 1171 q 756 1162 747 1171 q 766 1139 765 1153 q 733 1049 766 1089 q 651 1009 700 1009 q 604 1017 625 1009 q 540 1043 582 1024 q 484 1067 505 1061 q 442 1074 464 1074 q 391 1032 408 1074 q 358 1006 382 1006 m 193 -8 q 149 10 167 -8 q 130 54 130 28 l 130 864 q 157 928 130 901 q 220 955 183 955 l 237 955 q 313 914 281 955 l 814 191 q 825 183 821 183 q 830 187 827 183 q 833 197 833 191 l 833 891 q 851 936 833 917 q 895 955 869 955 q 940 936 921 955 q 959 891 959 917 l 959 81 q 932 18 959 45 q 868 -8 905 -8 l 852 -8 q 810 2 830 -8 q 779 28 791 12 l 275 755 q 264 764 269 764 q 259 760 262 764 q 256 750 256 755 l 256 54 q 237 10 256 28 q 193 -8 218 -8 z "},"O":{"ha":1101,"x_min":73,"x_max":1028,"o":"m 551 -15 q 300 47 408 -15 q 135 220 194 110 q 73 473 76 331 q 134 726 76 616 q 301 899 193 837 q 551 962 410 962 q 802 899 693 962 q 966 726 907 837 q 1028 473 1025 614 q 967 222 1025 332 q 800 47 907 110 q 551 -15 692 -15 m 551 103 q 738 152 661 103 q 859 283 817 199 q 902 473 902 366 q 860 663 902 579 q 736 796 817 749 q 551 844 656 844 q 363 795 441 844 q 242 664 285 747 q 199 473 199 581 q 241 283 199 368 q 364 150 285 197 q 551 103 444 103 z "},"Ó":{"ha":1101,"x_min":73,"x_max":1028,"o":"m 551 1001 q 524 1011 534 1001 q 513 1039 513 1021 q 522 1066 513 1050 l 591 1187 q 637 1214 605 1214 q 674 1200 659 1214 q 689 1162 689 1185 q 675 1127 689 1141 l 582 1016 q 551 1001 570 1001 m 551 -15 q 300 47 408 -15 q 135 220 194 110 q 73 473 76 331 q 134 726 76 616 q 301 899 193 837 q 551 962 410 962 q 802 899 693 962 q 966 726 907 837 q 1028 473 1025 614 q 967 222 1025 332 q 800 47 907 110 q 551 -15 692 -15 m 551 103 q 738 152 661 103 q 859 283 817 199 q 902 473 902 366 q 860 663 902 579 q 736 796 817 749 q 551 844 656 844 q 363 795 441 844 q 242 664 285 747 q 199 473 199 581 q 241 283 199 368 q 364 150 285 197 q 551 103 444 103 z "},"Ô":{"ha":1101,"x_min":73,"x_max":1028,"o":"m 408 1000 q 379 1013 392 1000 q 366 1040 366 1025 q 377 1069 366 1055 l 469 1164 q 525 1191 495 1191 l 576 1191 q 632 1164 606 1191 l 724 1069 q 735 1040 735 1055 q 722 1013 735 1025 q 693 1000 709 1000 q 667 1009 678 1000 l 562 1099 q 551 1104 557 1104 q 540 1099 545 1104 l 434 1009 q 408 1000 423 1000 m 551 -15 q 300 47 408 -15 q 135 220 194 110 q 73 473 76 331 q 134 726 76 616 q 301 899 193 837 q 551 962 410 962 q 802 899 693 962 q 966 726 907 837 q 1028 473 1025 614 q 967 222 1025 332 q 800 47 907 110 q 551 -15 692 -15 m 551 103 q 738 152 661 103 q 859 283 817 199 q 902 473 902 366 q 860 663 902 579 q 736 796 817 749 q 551 844 656 844 q 363 795 441 844 q 242 664 285 747 q 199 473 199 581 q 241 283 199 368 q 364 150 285 197 q 551 103 444 103 z "},"Ö":{"ha":1101,"x_min":73,"x_max":1028,"o":"m 437 1012 q 387 1033 408 1012 q 366 1082 366 1054 q 387 1132 366 1111 q 437 1153 408 1153 q 486 1132 465 1153 q 507 1082 507 1111 q 486 1033 507 1054 q 437 1012 465 1012 m 665 1012 q 615 1033 636 1012 q 594 1082 594 1054 q 615 1132 594 1111 q 665 1153 636 1153 q 714 1132 693 1153 q 735 1082 735 1111 q 714 1033 735 1054 q 665 1012 693 1012 m 551 -15 q 300 47 408 -15 q 135 220 194 110 q 73 473 76 331 q 134 726 76 616 q 301 899 193 837 q 551 962 410 962 q 802 899 693 962 q 966 726 907 837 q 1028 473 1025 614 q 967 222 1025 332 q 800 47 907 110 q 551 -15 692 -15 m 551 103 q 738 152 661 103 q 859 283 817 199 q 902 473 902 366 q 860 663 902 579 q 736 796 817 749 q 551 844 656 844 q 363 795 441 844 q 242 664 285 747 q 199 473 199 581 q 241 283 199 368 q 364 150 285 197 q 551 103 444 103 z "},"Ò":{"ha":1101,"x_min":73,"x_max":1028,"o":"m 551 1001 q 519 1016 532 1001 l 426 1127 q 412 1162 412 1141 q 427 1200 412 1187 q 464 1214 441 1214 q 510 1187 496 1214 l 579 1066 q 589 1039 589 1050 q 578 1012 589 1023 q 551 1001 568 1001 m 551 -15 q 300 47 408 -15 q 135 220 194 110 q 73 473 76 331 q 134 726 76 616 q 301 899 193 837 q 551 962 410 962 q 802 899 693 962 q 966 726 907 837 q 1028 473 1025 614 q 967 222 1025 332 q 800 47 907 110 q 551 -15 692 -15 m 551 103 q 738 152 661 103 q 859 283 817 199 q 902 473 902 366 q 860 663 902 579 q 736 796 817 749 q 551 844 656 844 q 363 795 441 844 q 242 664 285 747 q 199 473 199 581 q 241 283 199 368 q 364 150 285 197 q 551 103 444 103 z "},"Ø":{"ha":1101,"x_min":73,"x_max":1028,"o":"m 214 -42 q 189 -32 199 -42 q 179 -8 179 -22 q 187 16 179 3 l 240 90 q 117 254 160 155 q 73 473 75 354 q 134 726 76 616 q 301 899 193 837 q 551 962 410 962 q 806 895 693 962 l 859 974 q 888 987 871 987 q 913 977 903 987 q 924 954 924 967 q 916 929 924 944 l 863 854 q 983 691 940 789 q 1028 473 1025 593 q 967 222 1025 332 q 800 47 907 110 q 551 -15 692 -15 q 297 49 407 -15 l 244 -28 q 214 -42 232 -42 m 735 798 q 551 844 651 844 q 363 795 441 844 q 242 664 285 747 q 199 473 199 581 q 228 313 199 385 q 311 191 256 240 l 735 798 m 551 103 q 738 152 661 103 q 859 283 817 199 q 902 473 902 366 q 873 633 902 559 q 792 754 844 707 l 366 148 q 551 103 444 103 z "},"Õ":{"ha":1101,"x_min":73,"x_max":1028,"o":"m 363 1006 q 341 1016 351 1006 q 331 1039 331 1025 q 365 1128 331 1086 q 446 1169 399 1169 q 495 1162 472 1169 q 555 1137 518 1154 q 611 1112 590 1119 q 655 1105 632 1105 q 684 1114 673 1105 q 704 1141 696 1122 q 739 1171 715 1171 q 762 1162 753 1171 q 772 1139 770 1153 q 739 1049 772 1089 q 656 1009 705 1009 q 609 1017 631 1009 q 545 1043 587 1024 q 490 1067 510 1061 q 448 1074 469 1074 q 396 1032 414 1074 q 363 1006 388 1006 m 551 -15 q 300 47 408 -15 q 135 220 194 110 q 73 473 76 331 q 134 726 76 616 q 301 899 193 837 q 551 962 410 962 q 802 899 693 962 q 966 726 907 837 q 1028 473 1025 614 q 967 222 1025 332 q 800 47 907 110 q 551 -15 692 -15 m 551 103 q 738 152 661 103 q 859 283 817 199 q 902 473 902 366 q 860 663 902 579 q 736 796 817 749 q 551 844 656 844 q 363 795 441 844 q 242 664 285 747 q 199 473 199 581 q 241 283 199 368 q 364 150 285 197 q 551 103 444 103 z "},"P":{"ha":911,"x_min":130,"x_max":865,"o":"m 193 -8 q 149 10 167 -8 q 130 54 130 28 l 130 884 q 149 929 130 910 q 193 948 167 948 l 502 948 q 712 905 629 948 q 827 798 788 864 q 865 646 865 732 q 830 499 865 566 q 710 385 793 427 q 502 343 627 343 l 256 343 l 256 54 q 237 10 256 28 q 193 -8 218 -8 m 490 463 q 676 509 613 463 q 739 646 739 556 q 676 782 739 735 q 490 829 613 829 l 273 829 q 256 812 256 829 l 256 463 l 490 463 z "},"Þ":{"ha":911,"x_min":130,"x_max":865,"o":"m 193 -8 q 149 10 167 -8 q 130 54 130 28 l 130 891 q 149 936 130 917 q 193 955 167 955 q 237 936 218 955 q 256 891 256 917 l 256 796 l 502 796 q 712 753 629 796 q 827 646 788 712 q 865 494 865 581 q 830 347 865 414 q 710 233 793 275 q 502 191 627 191 l 256 191 l 256 54 q 237 10 256 28 q 193 -8 218 -8 m 490 311 q 676 357 613 311 q 739 494 739 404 q 676 630 739 583 q 490 677 613 677 l 256 677 l 256 311 l 490 311 z "},"Q":{"ha":1101,"x_min":73,"x_max":1028,"o":"m 823 -208 q 779 -186 798 -208 l 632 -9 q 551 -15 601 -15 q 300 47 408 -15 q 135 220 194 110 q 73 473 76 331 q 134 726 76 616 q 301 899 193 837 q 551 962 410 962 q 802 899 693 962 q 966 726 907 837 q 1028 473 1025 614 q 951 196 1025 315 q 749 23 878 77 l 867 -107 q 883 -151 883 -126 q 865 -191 883 -174 q 823 -208 846 -208 m 551 103 q 738 152 661 103 q 859 283 817 199 q 902 473 902 366 q 860 663 902 579 q 736 796 817 749 q 551 844 656 844 q 363 795 441 844 q 242 664 285 747 q 199 473 199 581 q 241 283 199 368 q 364 150 285 197 q 551 103 444 103 z "},"R":{"ha":966,"x_min":130,"x_max":879,"o":"m 704 426 q 831 313 792 400 q 871 117 871 225 l 871 54 q 852 10 871 28 q 808 -8 834 -8 q 762 9 780 -8 q 745 54 745 26 l 745 95 q 732 221 745 163 q 671 326 719 285 q 536 368 623 368 l 256 368 l 256 54 q 237 10 256 28 q 193 -8 218 -8 q 149 10 167 -8 q 130 54 130 28 l 130 884 q 149 929 130 910 q 193 948 167 948 l 509 948 q 783 873 688 948 q 879 671 879 798 q 833 522 879 589 q 704 426 788 456 m 500 487 q 686 534 618 487 q 753 662 753 581 q 692 787 753 746 q 494 829 632 829 l 273 829 q 256 812 256 829 l 256 487 l 500 487 z "},"S":{"ha":836,"x_min":68,"x_max":779,"o":"m 430 -15 q 107 50 258 -15 q 79 73 91 57 q 68 107 68 90 q 84 149 68 132 q 125 165 100 165 q 151 160 140 165 q 418 104 277 104 q 654 259 654 104 q 624 326 654 300 q 556 366 597 351 q 422 406 515 381 q 244 461 315 433 q 119 549 161 492 q 77 682 77 605 q 118 825 77 760 q 242 926 160 891 q 430 962 324 962 q 700 917 579 962 q 739 861 739 902 q 723 821 739 840 q 684 803 707 803 q 662 808 674 803 q 444 845 556 845 q 269 804 335 845 q 203 692 203 764 q 236 614 203 643 q 311 568 266 586 q 445 530 355 551 q 618 479 559 503 q 734 395 690 452 q 779 251 779 338 q 735 114 779 176 q 611 18 690 52 q 430 -15 532 -15 z "},"T":{"ha":826,"x_min":16,"x_max":810,"o":"m 412 -8 q 368 10 387 -8 q 350 54 350 28 l 350 830 l 75 830 q 33 847 50 830 q 16 888 16 864 q 33 930 16 913 q 75 948 50 948 l 750 948 q 792 930 774 948 q 810 888 810 913 q 792 847 810 864 q 750 830 774 830 l 476 830 l 476 54 q 457 10 476 28 q 412 -8 438 -8 z "},"U":{"ha":1028,"x_min":123,"x_max":905,"o":"m 514 -15 q 328 26 416 -15 q 179 153 235 68 q 123 355 123 239 l 123 891 q 142 936 123 917 q 186 955 160 955 q 231 936 212 955 q 250 891 250 917 l 250 351 q 288 214 250 269 q 383 130 323 159 q 514 100 444 100 q 644 129 583 100 q 743 216 708 159 q 779 351 779 274 l 779 891 q 797 936 779 917 q 841 955 815 955 q 886 936 867 955 q 905 891 905 917 l 905 355 q 848 151 905 236 q 703 27 792 69 q 514 -15 614 -15 z "},"Ú":{"ha":1028,"x_min":123,"x_max":905,"o":"m 514 1001 q 487 1011 498 1001 q 476 1039 476 1021 q 486 1066 476 1050 l 555 1187 q 601 1214 568 1214 q 637 1200 623 1214 q 652 1162 652 1185 q 639 1127 652 1141 l 545 1016 q 514 1001 533 1001 m 514 -15 q 328 26 416 -15 q 179 153 235 68 q 123 355 123 239 l 123 891 q 142 936 123 917 q 186 955 160 955 q 231 936 212 955 q 250 891 250 917 l 250 351 q 288 214 250 269 q 383 130 323 159 q 514 100 444 100 q 644 129 583 100 q 743 216 708 159 q 779 351 779 274 l 779 891 q 797 936 779 917 q 841 955 815 955 q 886 936 867 955 q 905 891 905 917 l 905 355 q 848 151 905 236 q 703 27 792 69 q 514 -15 614 -15 z "},"Û":{"ha":1028,"x_min":123,"x_max":905,"o":"m 372 1000 q 342 1013 355 1000 q 330 1040 330 1025 q 340 1069 330 1055 l 433 1164 q 488 1191 458 1191 l 540 1191 q 595 1164 570 1191 l 688 1069 q 699 1040 699 1055 q 686 1013 699 1025 q 656 1000 673 1000 q 631 1009 642 1000 l 525 1099 q 514 1104 521 1104 q 503 1099 509 1104 l 397 1009 q 372 1000 387 1000 m 514 -15 q 328 26 416 -15 q 179 153 235 68 q 123 355 123 239 l 123 891 q 142 936 123 917 q 186 955 160 955 q 231 936 212 955 q 250 891 250 917 l 250 351 q 288 214 250 269 q 383 130 323 159 q 514 100 444 100 q 644 129 583 100 q 743 216 708 159 q 779 351 779 274 l 779 891 q 797 936 779 917 q 841 955 815 955 q 886 936 867 955 q 905 891 905 917 l 905 355 q 848 151 905 236 q 703 27 792 69 q 514 -15 614 -15 z "},"Ü":{"ha":1028,"x_min":123,"x_max":905,"o":"m 400 1012 q 351 1033 372 1012 q 330 1082 330 1054 q 351 1132 330 1111 q 400 1153 372 1153 q 450 1132 429 1153 q 471 1082 471 1111 q 450 1033 471 1054 q 400 1012 429 1012 m 628 1012 q 578 1033 600 1012 q 557 1082 557 1054 q 578 1132 557 1111 q 628 1153 600 1153 q 677 1132 656 1153 q 699 1082 699 1111 q 677 1033 699 1054 q 628 1012 656 1012 m 514 -15 q 328 26 416 -15 q 179 153 235 68 q 123 355 123 239 l 123 891 q 142 936 123 917 q 186 955 160 955 q 231 936 212 955 q 250 891 250 917 l 250 351 q 288 214 250 269 q 383 130 323 159 q 514 100 444 100 q 644 129 583 100 q 743 216 708 159 q 779 351 779 274 l 779 891 q 797 936 779 917 q 841 955 815 955 q 886 936 867 955 q 905 891 905 917 l 905 355 q 848 151 905 236 q 703 27 792 69 q 514 -15 614 -15 z "},"Ù":{"ha":1028,"x_min":123,"x_max":905,"o":"m 514 1001 q 483 1016 495 1001 l 389 1127 q 376 1162 376 1141 q 390 1200 376 1187 q 427 1214 404 1214 q 473 1187 460 1214 l 543 1066 q 552 1039 552 1050 q 542 1012 552 1023 q 514 1001 532 1001 m 514 -15 q 328 26 416 -15 q 179 153 235 68 q 123 355 123 239 l 123 891 q 142 936 123 917 q 186 955 160 955 q 231 936 212 955 q 250 891 250 917 l 250 351 q 288 214 250 269 q 383 130 323 159 q 514 100 444 100 q 644 129 583 100 q 743 216 708 159 q 779 351 779 274 l 779 891 q 797 936 779 917 q 841 955 815 955 q 886 936 867 955 q 905 891 905 917 l 905 355 q 848 151 905 236 q 703 27 792 69 q 514 -15 614 -15 z "},"V":{"ha":941,"x_min":31,"x_max":910,"o":"m 456 -8 q 370 56 399 -8 l 35 868 q 31 891 31 879 q 48 937 31 920 q 94 955 65 955 q 130 943 114 955 q 153 911 145 932 l 460 146 q 471 137 464 137 q 481 146 477 137 l 788 911 q 812 943 796 932 q 848 955 827 955 q 893 937 876 955 q 910 891 910 920 q 906 868 910 879 l 571 56 q 486 -8 543 -8 l 456 -8 z "},"W":{"ha":1371,"x_min":37,"x_max":1336,"o":"m 388 -8 q 338 8 359 -8 q 307 54 317 24 l 41 871 q 37 897 37 887 q 54 938 37 921 q 98 955 72 955 q 136 941 119 955 q 160 905 153 928 l 377 193 q 387 182 381 182 q 396 193 392 182 l 614 902 q 642 941 621 926 q 686 955 662 955 q 731 941 711 955 q 758 902 751 926 l 977 193 q 986 182 981 182 q 996 193 991 182 l 1213 905 q 1236 941 1219 928 q 1275 955 1253 955 q 1318 938 1301 955 q 1336 897 1336 921 q 1332 871 1336 887 l 1066 54 q 1034 8 1055 24 q 985 -8 1013 -8 q 934 9 956 -8 q 903 54 911 27 l 696 711 q 686 722 692 722 q 677 711 681 722 l 469 54 q 439 9 461 27 q 388 -8 416 -8 z "},"X":{"ha":910,"x_min":58,"x_max":852,"o":"m 117 -8 q 76 9 94 -8 q 58 50 58 27 q 71 90 58 72 l 384 473 l 73 854 q 61 894 61 873 q 79 937 61 920 q 122 955 96 955 q 151 948 137 955 q 174 930 164 941 l 458 568 l 743 933 q 789 955 760 955 q 832 937 814 955 q 850 895 850 920 q 840 860 850 875 l 526 475 l 840 91 q 852 54 852 77 q 834 10 852 28 q 789 -8 817 -8 q 739 18 758 -8 l 450 381 l 165 16 q 117 -8 144 -8 z "},"Y":{"ha":867,"x_min":35,"x_max":833,"o":"m 434 -8 q 389 10 408 -8 q 370 54 370 28 l 370 400 l 46 853 q 35 891 35 875 q 53 936 35 917 q 96 955 71 955 q 152 924 132 955 l 434 513 l 716 924 q 772 955 736 955 q 814 937 796 955 q 833 894 833 918 q 822 853 833 878 l 496 400 l 496 54 q 478 10 496 28 q 434 -8 460 -8 z "},"Ý":{"ha":867,"x_min":35,"x_max":833,"o":"m 434 1001 q 407 1011 418 1001 q 396 1039 396 1021 q 406 1066 396 1050 l 475 1187 q 521 1214 488 1214 q 557 1200 543 1214 q 572 1162 572 1185 q 559 1127 572 1141 l 465 1016 q 434 1001 453 1001 m 434 -8 q 389 10 408 -8 q 370 54 370 28 l 370 400 l 46 853 q 35 891 35 875 q 53 936 35 917 q 96 955 71 955 q 152 924 132 955 l 434 513 l 716 924 q 772 955 736 955 q 814 937 796 955 q 833 894 833 918 q 822 853 833 878 l 496 400 l 496 54 q 478 10 496 28 q 434 -8 460 -8 z "},"Z":{"ha":865,"x_min":62,"x_max":806,"o":"m 142 -1 q 86 22 110 -1 q 62 79 62 46 q 79 130 62 109 l 628 808 q 633 818 633 814 q 620 827 633 827 l 125 827 q 83 845 100 827 q 65 887 65 863 q 83 930 65 911 q 125 948 100 948 l 713 948 q 774 924 750 948 q 798 863 798 899 q 776 807 798 836 l 233 136 q 228 126 228 130 q 241 117 228 117 l 746 117 q 788 99 770 117 q 806 57 806 81 q 788 16 806 33 q 746 -1 770 -1 l 142 -1 z "},"a":{"ha":762,"x_min":61,"x_max":663,"o":"m 283 -15 q 174 9 225 -15 q 91 81 121 34 q 61 190 61 129 q 143 353 61 296 q 374 411 225 411 l 537 411 l 537 420 q 494 547 537 507 q 357 587 452 587 q 269 580 308 587 q 176 555 229 572 l 159 552 q 123 568 138 552 q 107 605 107 583 q 144 658 107 643 q 378 707 258 707 q 538 669 472 707 q 632 572 601 632 q 663 438 663 511 l 663 54 q 644 10 663 28 q 600 -8 625 -8 q 555 10 574 -8 q 537 54 537 28 l 537 87 q 283 -15 439 -15 m 330 96 q 443 124 388 96 q 537 197 498 152 l 537 309 l 391 309 q 187 203 187 309 q 330 96 187 96 z "},"á":{"ha":762,"x_min":61,"x_max":663,"o":"m 378 768 q 351 778 362 768 q 340 806 340 788 q 350 833 340 817 l 419 954 q 465 981 433 981 q 502 966 487 981 q 517 929 517 952 q 503 894 517 907 l 410 783 q 378 768 397 768 m 283 -15 q 174 9 225 -15 q 91 81 121 34 q 61 190 61 129 q 143 353 61 296 q 374 411 225 411 l 537 411 l 537 420 q 494 547 537 507 q 357 587 452 587 q 269 580 308 587 q 176 555 229 572 l 159 552 q 123 568 138 552 q 107 605 107 583 q 144 658 107 643 q 378 707 258 707 q 538 669 472 707 q 632 572 601 632 q 663 438 663 511 l 663 54 q 644 10 663 28 q 600 -8 625 -8 q 555 10 574 -8 q 537 54 537 28 l 537 87 q 283 -15 439 -15 m 330 96 q 443 124 388 96 q 537 197 498 152 l 537 309 l 391 309 q 187 203 187 309 q 330 96 187 96 z "},"â":{"ha":762,"x_min":61,"x_max":663,"o":"m 236 766 q 207 779 220 766 q 194 807 194 792 q 205 836 194 822 l 297 930 q 353 958 323 958 l 404 958 q 460 930 434 958 l 552 836 q 563 807 563 822 q 550 779 563 792 q 521 766 537 766 q 495 776 506 766 l 378 876 l 262 776 q 236 766 251 766 m 283 -15 q 174 9 225 -15 q 91 81 121 34 q 61 190 61 129 q 143 353 61 296 q 374 411 225 411 l 537 411 l 537 420 q 494 547 537 507 q 357 587 452 587 q 269 580 308 587 q 176 555 229 572 l 159 552 q 123 568 138 552 q 107 605 107 583 q 144 658 107 643 q 378 707 258 707 q 538 669 472 707 q 632 572 601 632 q 663 438 663 511 l 663 54 q 644 10 663 28 q 600 -8 625 -8 q 555 10 574 -8 q 537 54 537 28 l 537 87 q 283 -15 439 -15 m 330 96 q 443 124 388 96 q 537 197 498 152 l 537 309 l 391 309 q 187 203 187 309 q 330 96 187 96 z "},"ä":{"ha":762,"x_min":61,"x_max":663,"o":"m 264 779 q 215 800 236 779 q 194 849 194 821 q 215 899 194 878 q 264 920 236 920 q 314 899 293 920 q 335 849 335 878 q 314 800 335 821 q 264 779 293 779 m 492 779 q 443 800 464 779 q 422 849 422 821 q 443 899 422 878 q 492 920 464 920 q 542 899 521 920 q 563 849 563 878 q 542 800 563 821 q 492 779 521 779 m 283 -15 q 174 9 225 -15 q 91 81 121 34 q 61 190 61 129 q 143 353 61 296 q 374 411 225 411 l 537 411 l 537 420 q 494 547 537 507 q 357 587 452 587 q 269 580 308 587 q 176 555 229 572 l 159 552 q 123 568 138 552 q 107 605 107 583 q 144 658 107 643 q 378 707 258 707 q 538 669 472 707 q 632 572 601 632 q 663 438 663 511 l 663 54 q 644 10 663 28 q 600 -8 625 -8 q 555 10 574 -8 q 537 54 537 28 l 537 87 q 283 -15 439 -15 m 330 96 q 443 124 388 96 q 537 197 498 152 l 537 309 l 391 309 q 187 203 187 309 q 330 96 187 96 z "},"à":{"ha":762,"x_min":61,"x_max":663,"o":"m 378 768 q 347 783 359 768 l 254 894 q 240 929 240 907 q 254 967 240 954 q 292 981 269 981 q 338 954 324 981 l 407 833 q 416 806 416 817 q 406 779 416 789 q 378 768 396 768 m 283 -15 q 174 9 225 -15 q 91 81 121 34 q 61 190 61 129 q 143 353 61 296 q 374 411 225 411 l 537 411 l 537 420 q 494 547 537 507 q 357 587 452 587 q 269 580 308 587 q 176 555 229 572 l 159 552 q 123 568 138 552 q 107 605 107 583 q 144 658 107 643 q 378 707 258 707 q 538 669 472 707 q 632 572 601 632 q 663 438 663 511 l 663 54 q 644 10 663 28 q 600 -8 625 -8 q 555 10 574 -8 q 537 54 537 28 l 537 87 q 283 -15 439 -15 m 330 96 q 443 124 388 96 q 537 197 498 152 l 537 309 l 391 309 q 187 203 187 309 q 330 96 187 96 z "},"å":{"ha":762,"x_min":61,"x_max":663,"o":"m 378 746 q 288 784 326 746 q 250 875 250 822 q 288 966 250 928 q 378 1004 326 1004 q 469 966 431 1004 q 507 875 507 928 q 469 784 507 822 q 378 746 431 746 m 378 810 q 425 829 406 810 q 444 875 444 848 q 425 921 444 902 q 378 940 406 940 q 332 921 351 940 q 313 875 313 902 q 332 829 313 848 q 378 810 351 810 m 283 -15 q 174 9 225 -15 q 91 81 121 34 q 61 190 61 129 q 143 353 61 296 q 374 411 225 411 l 537 411 l 537 420 q 494 547 537 507 q 357 587 452 587 q 269 580 308 587 q 176 555 229 572 l 159 552 q 123 568 138 552 q 107 605 107 583 q 144 658 107 643 q 378 707 258 707 q 538 669 472 707 q 632 572 601 632 q 663 438 663 511 l 663 54 q 644 10 663 28 q 600 -8 625 -8 q 555 10 574 -8 q 537 54 537 28 l 537 87 q 283 -15 439 -15 m 330 96 q 443 124 388 96 q 537 197 498 152 l 537 309 l 391 309 q 187 203 187 309 q 330 96 187 96 z "},"ã":{"ha":762,"x_min":61,"x_max":663,"o":"m 191 773 q 169 783 179 773 q 159 806 159 792 q 193 895 159 853 q 274 936 227 936 q 323 928 300 936 q 382 903 346 921 q 439 879 418 886 q 483 872 460 872 q 512 880 500 872 q 532 907 524 888 q 567 937 543 937 q 589 928 581 937 q 600 906 598 920 q 566 816 600 856 q 484 776 533 776 q 437 783 460 776 q 373 810 415 791 q 317 834 338 827 q 275 841 297 841 q 224 799 241 841 q 191 773 216 773 m 283 -15 q 174 9 225 -15 q 91 81 121 34 q 61 190 61 129 q 143 353 61 296 q 374 411 225 411 l 537 411 l 537 420 q 494 547 537 507 q 357 587 452 587 q 269 580 308 587 q 176 555 229 572 l 159 552 q 123 568 138 552 q 107 605 107 583 q 144 658 107 643 q 378 707 258 707 q 538 669 472 707 q 632 572 601 632 q 663 438 663 511 l 663 54 q 644 10 663 28 q 600 -8 625 -8 q 555 10 574 -8 q 537 54 537 28 l 537 87 q 283 -15 439 -15 m 330 96 q 443 124 388 96 q 537 197 498 152 l 537 309 l 391 309 q 187 203 187 309 q 330 96 187 96 z "},"æ":{"ha":1236,"x_min":61,"x_max":1181,"o":"m 328 -15 q 195 9 254 -15 q 96 82 132 35 q 61 190 61 129 q 144 350 61 293 q 374 407 227 407 l 537 407 l 537 420 q 494 547 537 507 q 357 587 452 587 q 269 580 308 587 q 176 555 229 572 l 159 552 q 123 568 138 552 q 107 605 107 583 q 144 658 107 643 q 378 707 258 707 q 517 678 457 707 q 610 594 576 650 q 856 707 697 707 q 1029 663 955 707 q 1142 541 1103 618 q 1181 365 1181 463 q 1164 323 1181 340 q 1120 305 1147 305 l 655 305 q 894 103 680 103 q 991 113 948 103 q 1077 145 1034 123 q 1101 151 1086 151 q 1140 135 1123 151 q 1157 96 1157 119 q 1120 45 1157 65 q 1012 -1 1063 14 q 883 -15 960 -15 q 608 102 701 -15 q 328 -15 529 -15 m 1039 407 q 1055 425 1057 407 q 1023 515 1050 479 q 951 578 994 556 q 856 600 907 600 q 764 579 810 600 q 688 513 716 557 q 655 407 659 468 l 1039 407 m 353 96 q 487 128 437 96 q 537 229 537 160 l 537 305 l 391 305 q 236 280 285 305 q 187 203 187 255 q 233 126 187 156 q 353 96 279 96 z "},"b":{"ha":856,"x_min":106,"x_max":792,"o":"m 463 -15 q 232 87 330 -15 l 232 54 q 213 10 232 28 q 168 -8 194 -8 q 124 10 142 -8 q 106 54 106 28 l 106 935 q 124 979 106 960 q 168 998 142 998 q 214 980 195 998 q 232 935 232 962 l 232 605 q 463 707 330 707 q 623 665 551 707 q 747 537 701 621 q 792 346 792 453 q 746 155 792 235 q 625 29 700 73 q 463 -15 549 -15 m 445 103 q 607 168 548 103 q 666 346 666 232 q 607 524 666 460 q 445 589 548 589 q 330 562 385 589 q 232 488 275 534 l 232 203 q 330 130 275 157 q 445 103 385 103 z "},"c":{"ha":723,"x_min":64,"x_max":677,"o":"m 427 -15 q 247 28 331 -15 q 113 156 161 73 q 64 346 64 239 q 114 538 64 456 q 245 663 163 618 q 427 707 327 707 q 547 690 495 707 q 650 642 598 673 q 677 593 677 623 q 661 555 677 572 q 624 537 644 537 q 594 545 610 537 q 515 579 547 570 q 438 589 484 589 q 257 523 324 589 q 190 346 190 457 q 257 169 190 235 q 438 103 324 103 q 515 113 484 103 q 594 146 547 122 q 624 155 610 155 q 661 137 644 155 q 677 99 677 119 q 650 50 677 69 q 547 2 598 19 q 427 -15 495 -15 z "},"ç":{"ha":723,"x_min":64,"x_max":677,"o":"m 624 155 q 661 137 644 155 q 677 99 677 119 q 650 50 677 69 q 548 2 601 19 q 429 -15 495 -15 l 389 -83 q 433 -79 410 -79 q 509 -106 479 -79 q 538 -175 538 -133 q 500 -269 538 -237 q 387 -301 461 -301 q 263 -266 323 -301 q 248 -241 248 -252 q 256 -221 248 -229 q 275 -213 263 -213 q 289 -217 281 -213 q 369 -240 332 -240 q 445 -179 445 -240 q 432 -149 445 -160 q 397 -138 419 -138 q 338 -153 370 -138 q 324 -157 330 -157 q 307 -151 315 -157 q 298 -134 298 -144 q 304 -114 298 -123 l 369 -11 q 216 47 283 1 q 104 170 144 92 q 64 346 64 248 q 114 538 64 456 q 245 663 163 618 q 427 707 327 707 q 547 690 495 707 q 650 642 598 673 q 677 593 677 623 q 661 555 677 572 q 624 537 644 537 q 594 545 610 537 q 515 579 547 570 q 438 589 484 589 q 257 523 324 589 q 190 346 190 457 q 257 169 190 235 q 438 103 324 103 q 515 113 484 103 q 594 146 547 122 q 624 155 610 155 z "},"d":{"ha":856,"x_min":64,"x_max":750,"o":"m 393 -15 q 235 28 311 -15 q 110 155 156 72 q 64 346 64 239 q 111 538 64 456 q 232 663 157 620 q 393 707 307 707 q 624 605 526 707 l 624 935 q 643 980 624 962 q 688 998 662 998 q 732 979 713 998 q 750 935 750 960 l 750 54 q 732 10 750 28 q 688 -8 713 -8 q 643 10 662 -8 q 624 54 624 28 l 624 87 q 393 -15 526 -15 m 411 103 q 526 130 471 103 q 624 203 581 157 l 624 488 q 526 562 581 534 q 411 589 471 589 q 249 524 308 589 q 190 346 190 460 q 249 168 190 232 q 411 103 308 103 z "},"ð":{"ha":804,"x_min":64,"x_max":741,"o":"m 492 864 q 675 635 609 758 q 741 372 741 511 q 654 90 741 195 q 401 -15 568 -15 q 224 30 301 -15 q 105 153 146 73 q 64 336 64 233 q 102 509 64 433 q 213 639 140 591 q 382 686 286 686 q 530 651 464 686 q 391 804 476 734 l 278 738 q 254 730 262 730 q 229 741 240 730 q 218 765 218 751 q 240 798 218 787 l 330 850 q 229 914 283 884 q 209 933 217 920 q 201 963 201 947 q 218 1004 201 987 q 259 1021 235 1021 q 290 1013 271 1021 q 435 911 373 960 l 526 967 q 548 974 540 974 q 574 964 564 974 q 583 939 583 954 q 567 907 583 918 l 492 864 m 506 122 q 588 205 557 149 q 618 342 618 260 q 587 480 618 425 q 507 557 556 532 q 401 583 458 583 q 298 559 347 583 q 216 476 247 532 q 186 342 186 420 q 218 203 186 256 q 295 124 247 152 q 401 96 343 96 q 506 122 454 96 z "},"e":{"ha":768,"x_min":64,"x_max":713,"o":"m 416 -15 q 157 80 250 -15 q 64 346 64 175 q 99 524 64 438 q 210 658 136 609 q 389 707 285 707 q 564 661 490 707 q 674 536 635 614 q 713 363 713 458 q 696 319 713 338 q 650 301 678 301 l 191 301 q 264 154 203 205 q 427 103 324 103 q 524 113 481 103 q 610 145 567 123 q 635 151 620 151 q 673 135 656 151 q 690 96 690 119 q 654 45 690 65 q 545 -1 597 14 q 416 -15 494 -15 m 571 404 q 587 422 589 404 q 555 513 582 476 q 481 578 525 556 q 389 600 437 600 q 298 579 346 600 q 223 511 251 556 q 191 404 195 465 l 571 404 z "},"é":{"ha":768,"x_min":64,"x_max":713,"o":"m 387 768 q 359 778 370 768 q 349 806 349 788 q 358 833 349 817 l 427 954 q 473 981 441 981 q 510 966 495 981 q 525 929 525 952 q 511 894 525 907 l 418 783 q 387 768 406 768 m 416 -15 q 157 80 250 -15 q 64 346 64 175 q 99 524 64 438 q 210 658 136 609 q 389 707 285 707 q 564 661 490 707 q 674 536 635 614 q 713 363 713 458 q 696 319 713 338 q 650 301 678 301 l 191 301 q 264 154 203 205 q 427 103 324 103 q 524 113 481 103 q 610 145 567 123 q 635 151 620 151 q 673 135 656 151 q 690 96 690 119 q 654 45 690 65 q 545 -1 597 14 q 416 -15 494 -15 m 571 404 q 587 422 589 404 q 555 513 582 476 q 481 578 525 556 q 389 600 437 600 q 298 579 346 600 q 223 511 251 556 q 191 404 195 465 l 571 404 z "},"ê":{"ha":768,"x_min":64,"x_max":713,"o":"m 244 766 q 215 779 228 766 q 202 807 202 792 q 213 836 202 822 l 305 930 q 361 958 331 958 l 412 958 q 468 930 442 958 l 560 836 q 571 807 571 822 q 558 779 571 792 q 529 766 545 766 q 503 776 514 766 l 397 865 q 387 871 393 871 q 376 865 381 871 l 270 776 q 244 766 259 766 m 416 -15 q 157 80 250 -15 q 64 346 64 175 q 99 524 64 438 q 210 658 136 609 q 389 707 285 707 q 564 661 490 707 q 674 536 635 614 q 713 363 713 458 q 696 319 713 338 q 650 301 678 301 l 191 301 q 264 154 203 205 q 427 103 324 103 q 524 113 481 103 q 610 145 567 123 q 635 151 620 151 q 673 135 656 151 q 690 96 690 119 q 654 45 690 65 q 545 -1 597 14 q 416 -15 494 -15 m 571 404 q 587 422 589 404 q 555 513 582 476 q 481 578 525 556 q 389 600 437 600 q 298 579 346 600 q 223 511 251 556 q 191 404 195 465 l 571 404 z "},"ë":{"ha":768,"x_min":64,"x_max":713,"o":"m 273 779 q 223 800 244 779 q 202 849 202 821 q 223 899 202 878 q 273 920 244 920 q 322 899 301 920 q 343 849 343 878 q 322 800 343 821 q 273 779 301 779 m 500 779 q 451 800 472 779 q 430 849 430 821 q 451 899 430 878 q 500 920 472 920 q 550 899 529 920 q 571 849 571 878 q 550 800 571 821 q 500 779 529 779 m 416 -15 q 157 80 250 -15 q 64 346 64 175 q 99 524 64 438 q 210 658 136 609 q 389 707 285 707 q 564 661 490 707 q 674 536 635 614 q 713 363 713 458 q 696 319 713 338 q 650 301 678 301 l 191 301 q 264 154 203 205 q 427 103 324 103 q 524 113 481 103 q 610 145 567 123 q 635 151 620 151 q 673 135 656 151 q 690 96 690 119 q 654 45 690 65 q 545 -1 597 14 q 416 -15 494 -15 m 571 404 q 587 422 589 404 q 555 513 582 476 q 481 578 525 556 q 389 600 437 600 q 298 579 346 600 q 223 511 251 556 q 191 404 195 465 l 571 404 z "},"è":{"ha":768,"x_min":64,"x_max":713,"o":"m 387 768 q 355 783 368 768 l 262 894 q 248 929 248 907 q 262 967 248 954 q 300 981 277 981 q 346 954 332 981 l 415 833 q 425 806 425 817 q 414 779 425 789 q 387 768 404 768 m 416 -15 q 157 80 250 -15 q 64 346 64 175 q 99 524 64 438 q 210 658 136 609 q 389 707 285 707 q 564 661 490 707 q 674 536 635 614 q 713 363 713 458 q 696 319 713 338 q 650 301 678 301 l 191 301 q 264 154 203 205 q 427 103 324 103 q 524 113 481 103 q 610 145 567 123 q 635 151 620 151 q 673 135 656 151 q 690 96 690 119 q 654 45 690 65 q 545 -1 597 14 q 416 -15 494 -15 m 571 404 q 587 422 589 404 q 555 513 582 476 q 481 578 525 556 q 389 600 437 600 q 298 579 346 600 q 223 511 251 556 q 191 404 195 465 l 571 404 z "},"f":{"ha":518,"x_min":24,"x_max":513,"o":"m 220 -8 q 176 10 194 -8 q 157 54 157 28 l 157 585 l 79 585 q 41 601 57 585 q 24 639 24 617 q 41 677 24 662 q 79 693 57 693 l 157 693 l 157 770 q 187 905 157 853 q 261 980 214 955 q 362 1005 308 1005 q 480 978 423 1005 q 513 929 513 959 q 497 892 513 909 q 461 876 481 876 q 430 880 446 876 l 393 884 q 309 857 334 884 q 283 766 283 830 l 283 693 l 452 693 q 490 677 475 693 q 506 639 506 662 q 490 601 506 617 q 452 585 475 585 l 283 585 l 283 54 q 264 10 283 28 q 220 -8 245 -8 z "},"g":{"ha":856,"x_min":64,"x_max":750,"o":"m 430 -327 q 273 -307 354 -327 q 140 -256 193 -286 q 114 -208 114 -240 q 130 -168 114 -186 q 170 -151 146 -151 q 194 -156 180 -151 q 418 -208 300 -208 q 624 12 624 -208 l 624 99 q 393 -1 530 -1 q 239 39 312 -1 q 111 162 159 81 q 64 353 64 243 q 113 548 64 467 q 235 666 160 625 q 393 707 311 707 q 624 606 530 707 l 624 636 q 642 681 624 662 q 686 700 661 700 q 731 681 712 700 q 750 636 750 662 l 750 30 q 667 -234 750 -141 q 430 -327 585 -327 m 419 114 q 527 139 479 114 q 624 213 575 164 l 624 492 q 527 566 575 541 q 419 591 479 591 q 252 529 315 591 q 190 353 190 467 q 252 176 190 239 q 419 114 315 114 z "},"h":{"ha":826,"x_min":106,"x_max":727,"o":"m 168 -8 q 124 10 142 -8 q 106 54 106 28 l 106 935 q 124 979 106 960 q 168 998 142 998 q 213 979 194 998 q 232 935 232 960 l 232 585 q 347 675 288 644 q 483 707 407 707 q 614 671 557 707 q 698 575 669 636 q 727 439 727 514 l 727 54 q 708 10 727 28 q 663 -8 689 -8 q 619 10 637 -8 q 601 54 601 28 l 601 426 q 453 590 601 590 q 336 557 388 590 q 232 461 283 525 l 232 54 q 213 10 232 28 q 168 -8 194 -8 z "},"i":{"ha":338,"x_min":95,"x_max":244,"o":"m 165 831 q 116 852 137 831 q 95 902 95 873 l 95 907 q 116 957 95 936 q 165 978 137 978 l 174 978 q 223 957 202 978 q 244 907 244 936 l 244 902 q 223 852 244 873 q 174 831 202 831 l 165 831 m 168 -8 q 124 10 142 -8 q 106 54 106 28 l 106 636 q 124 681 106 662 q 168 700 142 700 q 214 682 195 700 q 232 636 232 663 l 232 54 q 213 10 232 28 q 168 -8 194 -8 z "},"ı":{"ha":338,"x_min":106,"x_max":232,"o":"m 168 -8 q 124 10 142 -8 q 106 54 106 28 l 106 636 q 124 681 106 662 q 168 700 142 700 q 214 682 195 700 q 232 636 232 663 l 232 54 q 213 10 232 28 q 168 -8 194 -8 z "},"í":{"ha":338,"x_min":106,"x_max":308,"o":"m 170 768 q 142 778 153 768 q 132 806 132 788 q 141 833 132 817 l 210 954 q 256 981 224 981 q 293 966 278 981 q 308 929 308 952 q 294 894 308 907 l 201 783 q 170 768 189 768 m 168 -8 q 124 10 142 -8 q 106 54 106 28 l 106 636 q 124 681 106 662 q 168 700 142 700 q 214 682 195 700 q 232 636 232 663 l 232 54 q 213 10 232 28 q 168 -8 194 -8 z "},"î":{"ha":338,"x_min":-15,"x_max":354,"o":"m 27 766 q -2 779 11 766 q -15 807 -15 792 q -4 836 -15 822 l 88 930 q 144 958 114 958 l 195 958 q 251 930 225 958 l 343 836 q 354 807 354 822 q 341 779 354 792 q 312 766 328 766 q 286 776 297 766 l 180 865 q 170 871 176 871 q 159 865 164 871 l 53 776 q 27 766 42 766 m 168 -8 q 124 10 142 -8 q 106 54 106 28 l 106 636 q 124 681 106 662 q 168 700 142 700 q 214 682 195 700 q 232 636 232 663 l 232 54 q 213 10 232 28 q 168 -8 194 -8 z "},"ï":{"ha":338,"x_min":-15,"x_max":354,"o":"m 56 779 q 6 800 27 779 q -15 849 -15 821 q 6 899 -15 878 q 56 920 27 920 q 105 899 84 920 q 126 849 126 878 q 105 800 126 821 q 56 779 84 779 m 283 779 q 234 800 255 779 q 213 849 213 821 q 234 899 213 878 q 283 920 255 920 q 333 899 312 920 q 354 849 354 878 q 333 800 354 821 q 283 779 312 779 m 168 -8 q 124 10 142 -8 q 106 54 106 28 l 106 636 q 124 681 106 662 q 168 700 142 700 q 214 682 195 700 q 232 636 232 663 l 232 54 q 213 10 232 28 q 168 -8 194 -8 z "},"ì":{"ha":338,"x_min":31,"x_max":232,"o":"m 170 768 q 138 783 151 768 l 45 894 q 31 929 31 907 q 45 967 31 954 q 83 981 60 981 q 129 954 115 981 l 198 833 q 208 806 208 817 q 197 779 208 789 q 170 768 187 768 m 168 -8 q 124 10 142 -8 q 106 54 106 28 l 106 636 q 124 681 106 662 q 168 700 142 700 q 214 682 195 700 q 232 636 232 663 l 232 54 q 213 10 232 28 q 168 -8 194 -8 z "},"j":{"ha":345,"x_min":-62,"x_max":251,"o":"m 172 831 q 123 852 144 831 q 102 902 102 873 l 102 907 q 123 957 102 936 q 172 978 144 978 l 180 978 q 230 957 209 978 q 251 907 251 936 l 251 902 q 230 852 251 873 q 180 831 209 831 l 172 831 m 60 -327 q -26 -315 11 -327 q -53 -296 -43 -309 q -62 -264 -62 -282 q -47 -228 -62 -244 q -9 -212 -31 -212 l 7 -214 l 11 -214 q 31 -216 19 -216 q 94 -199 76 -216 q 113 -137 113 -183 l 113 635 q 131 680 113 661 q 175 699 149 699 q 220 680 202 699 q 239 635 239 662 l 239 -140 q 193 -279 239 -231 q 60 -327 148 -327 z "},"k":{"ha":739,"x_min":106,"x_max":696,"o":"m 168 -8 q 124 10 142 -8 q 106 54 106 28 l 106 935 q 124 979 106 960 q 168 998 142 998 q 213 979 194 998 q 232 935 232 960 l 232 382 l 552 680 q 594 697 574 697 q 640 681 624 697 q 655 636 655 665 q 632 589 655 614 l 437 415 l 682 91 q 696 53 696 71 q 677 9 696 26 q 632 -8 659 -8 q 604 -1 618 -8 q 581 18 590 5 l 349 335 l 232 229 l 232 54 q 213 10 232 28 q 168 -8 194 -8 z "},"l":{"ha":338,"x_min":106,"x_max":232,"o":"m 168 -8 q 124 10 142 -8 q 106 54 106 28 l 106 935 q 124 979 106 960 q 168 998 142 998 q 214 980 195 998 q 232 935 232 962 l 232 54 q 213 10 232 28 q 168 -8 194 -8 z "},"m":{"ha":1245,"x_min":106,"x_max":1146,"o":"m 1047 669 q 1121 572 1096 632 q 1146 445 1146 513 l 1146 54 q 1127 10 1146 28 q 1082 -8 1108 -8 q 1038 10 1057 -8 q 1020 54 1020 28 l 1020 420 q 988 551 1020 511 q 883 590 956 590 q 773 557 818 590 q 689 461 728 524 l 689 54 q 670 10 689 28 q 625 -8 651 -8 q 581 10 600 -8 q 563 54 563 28 l 563 420 q 531 551 563 511 q 426 590 499 590 q 316 557 361 590 q 232 461 271 524 l 232 54 q 213 10 232 28 q 168 -8 194 -8 q 124 10 142 -8 q 106 54 106 28 l 106 636 q 124 681 106 662 q 168 700 142 700 q 213 681 194 700 q 232 636 232 662 l 232 586 q 328 675 274 643 q 461 707 382 707 q 589 668 534 707 q 669 568 644 629 q 918 707 753 707 q 1047 669 997 707 z "},"n":{"ha":826,"x_min":106,"x_max":727,"o":"m 168 -8 q 124 10 142 -8 q 106 54 106 28 l 106 636 q 124 681 106 662 q 168 700 142 700 q 213 681 194 700 q 232 636 232 662 l 232 585 q 347 675 288 644 q 483 707 407 707 q 614 671 557 707 q 698 575 669 636 q 727 439 727 514 l 727 54 q 708 10 727 28 q 663 -8 689 -8 q 619 10 637 -8 q 601 54 601 28 l 601 426 q 453 590 601 590 q 336 557 388 590 q 232 461 283 525 l 232 54 q 213 10 232 28 q 168 -8 194 -8 z "},"ñ":{"ha":826,"x_min":106,"x_max":727,"o":"m 227 773 q 204 783 214 773 q 194 806 194 792 q 228 895 194 853 q 309 936 262 936 q 358 928 335 936 q 418 903 381 921 q 474 879 453 886 q 518 872 495 872 q 547 880 536 872 q 567 907 559 888 q 602 937 578 937 q 625 928 616 937 q 635 906 633 920 q 602 816 635 856 q 519 776 568 776 q 473 783 495 776 q 408 810 450 791 q 353 834 373 827 q 311 841 332 841 q 259 799 277 841 q 227 773 251 773 m 168 -8 q 124 10 142 -8 q 106 54 106 28 l 106 636 q 124 681 106 662 q 168 700 142 700 q 213 681 194 700 q 232 636 232 662 l 232 585 q 347 675 288 644 q 483 707 407 707 q 614 671 557 707 q 698 575 669 636 q 727 439 727 514 l 727 54 q 708 10 727 28 q 663 -8 689 -8 q 619 10 637 -8 q 601 54 601 28 l 601 426 q 453 590 601 590 q 336 557 388 590 q 232 461 283 525 l 232 54 q 213 10 232 28 q 168 -8 194 -8 z "},"o":{"ha":825,"x_min":64,"x_max":761,"o":"m 412 -15 q 229 30 308 -15 q 107 159 151 76 q 64 346 64 241 q 107 534 64 452 q 230 662 151 617 q 412 707 309 707 q 594 662 515 707 q 718 534 674 616 q 761 346 761 452 q 718 159 761 240 q 593 30 673 75 q 412 -15 514 -15 m 412 100 q 519 126 468 100 q 604 210 572 153 q 635 347 635 266 q 602 486 635 433 q 523 564 572 537 q 412 591 473 591 q 305 567 357 591 q 221 484 252 540 q 190 347 190 429 q 222 208 190 260 q 302 127 252 155 q 412 100 351 100 z "},"ó":{"ha":825,"x_min":64,"x_max":761,"o":"m 412 768 q 385 778 396 768 q 374 806 374 788 q 384 833 374 817 l 453 954 q 499 981 467 981 q 536 966 521 981 q 551 929 551 952 q 537 894 551 907 l 444 783 q 412 768 431 768 m 412 -15 q 229 30 308 -15 q 107 159 151 76 q 64 346 64 241 q 107 534 64 452 q 230 662 151 617 q 412 707 309 707 q 594 662 515 707 q 718 534 674 616 q 761 346 761 452 q 718 159 761 240 q 593 30 673 75 q 412 -15 514 -15 m 412 100 q 519 126 468 100 q 604 210 572 153 q 635 347 635 266 q 602 486 635 433 q 523 564 572 537 q 412 591 473 591 q 305 567 357 591 q 221 484 252 540 q 190 347 190 429 q 222 208 190 260 q 302 127 252 155 q 412 100 351 100 z "},"ô":{"ha":825,"x_min":64,"x_max":761,"o":"m 270 766 q 241 779 254 766 q 228 807 228 792 q 239 836 228 822 l 331 930 q 387 958 357 958 l 438 958 q 494 930 468 958 l 586 836 q 597 807 597 822 q 584 779 597 792 q 555 766 571 766 q 529 776 540 766 l 423 865 q 412 871 419 871 q 401 865 407 871 l 296 776 q 270 766 285 766 m 412 -15 q 229 30 308 -15 q 107 159 151 76 q 64 346 64 241 q 107 534 64 452 q 230 662 151 617 q 412 707 309 707 q 594 662 515 707 q 718 534 674 616 q 761 346 761 452 q 718 159 761 240 q 593 30 673 75 q 412 -15 514 -15 m 412 100 q 519 126 468 100 q 604 210 572 153 q 635 347 635 266 q 602 486 635 433 q 523 564 572 537 q 412 591 473 591 q 305 567 357 591 q 221 484 252 540 q 190 347 190 429 q 222 208 190 260 q 302 127 252 155 q 412 100 351 100 z "},"ö":{"ha":825,"x_min":64,"x_max":761,"o":"m 298 779 q 249 800 270 779 q 228 849 228 821 q 249 899 228 878 q 298 920 270 920 q 348 899 327 920 q 369 849 369 878 q 348 800 369 821 q 298 779 327 779 m 526 779 q 477 800 498 779 q 456 849 456 821 q 477 899 456 878 q 526 920 498 920 q 576 899 555 920 q 597 849 597 878 q 576 800 597 821 q 526 779 555 779 m 412 -15 q 229 30 308 -15 q 107 159 151 76 q 64 346 64 241 q 107 534 64 452 q 230 662 151 617 q 412 707 309 707 q 594 662 515 707 q 718 534 674 616 q 761 346 761 452 q 718 159 761 240 q 593 30 673 75 q 412 -15 514 -15 m 412 100 q 519 126 468 100 q 604 210 572 153 q 635 347 635 266 q 602 486 635 433 q 523 564 572 537 q 412 591 473 591 q 305 567 357 591 q 221 484 252 540 q 190 347 190 429 q 222 208 190 260 q 302 127 252 155 q 412 100 351 100 z "},"ò":{"ha":825,"x_min":64,"x_max":761,"o":"m 412 768 q 381 783 393 768 l 288 894 q 274 929 274 907 q 288 967 274 954 q 326 981 302 981 q 372 954 358 981 l 441 833 q 450 806 450 817 q 440 779 450 789 q 412 768 430 768 m 412 -15 q 229 30 308 -15 q 107 159 151 76 q 64 346 64 241 q 107 534 64 452 q 230 662 151 617 q 412 707 309 707 q 594 662 515 707 q 718 534 674 616 q 761 346 761 452 q 718 159 761 240 q 593 30 673 75 q 412 -15 514 -15 m 412 100 q 519 126 468 100 q 604 210 572 153 q 635 347 635 266 q 602 486 635 433 q 523 564 572 537 q 412 591 473 591 q 305 567 357 591 q 221 484 252 540 q 190 347 190 429 q 222 208 190 260 q 302 127 252 155 q 412 100 351 100 z "},"ø":{"ha":825,"x_min":64,"x_max":761,"o":"m 163 -43 q 138 -33 148 -43 q 127 -9 127 -23 q 136 15 127 1 l 175 69 q 92 191 121 119 q 64 346 64 262 q 107 534 64 452 q 230 662 151 617 q 412 707 309 707 q 591 663 507 707 l 629 719 q 659 732 642 732 q 684 722 674 732 q 694 699 694 712 q 686 674 694 689 l 648 621 q 732 501 703 572 q 761 346 761 430 q 718 159 761 240 q 593 30 673 75 q 412 -15 514 -15 q 232 28 311 -15 l 193 -30 q 163 -43 180 -43 m 522 564 q 412 591 469 591 q 305 567 357 591 q 221 484 252 540 q 190 347 190 429 q 247 172 190 236 l 522 564 m 412 100 q 519 126 468 100 q 604 210 572 153 q 635 347 635 266 q 578 519 635 454 l 302 127 q 412 100 353 100 z "},"õ":{"ha":825,"x_min":64,"x_max":761,"o":"m 225 773 q 203 783 213 773 q 193 806 193 792 q 227 895 193 853 q 308 936 260 936 q 357 928 334 936 q 416 903 380 921 q 473 879 452 886 q 517 872 494 872 q 546 880 534 872 q 566 907 557 888 q 601 937 576 937 q 623 928 614 937 q 633 906 632 920 q 600 816 633 856 q 518 776 567 776 q 471 783 492 776 q 407 810 449 791 q 351 834 372 827 q 309 841 331 841 q 258 799 275 841 q 225 773 250 773 m 412 -15 q 229 30 308 -15 q 107 159 151 76 q 64 346 64 241 q 107 534 64 452 q 230 662 151 617 q 412 707 309 707 q 594 662 515 707 q 718 534 674 616 q 761 346 761 452 q 718 159 761 240 q 593 30 673 75 q 412 -15 514 -15 m 412 100 q 519 126 468 100 q 604 210 572 153 q 635 347 635 266 q 602 486 635 433 q 523 564 572 537 q 412 591 473 591 q 305 567 357 591 q 221 484 252 540 q 190 347 190 429 q 222 208 190 260 q 302 127 252 155 q 412 100 351 100 z "},"p":{"ha":856,"x_min":106,"x_max":792,"o":"m 168 -320 q 124 -301 142 -320 q 106 -256 106 -282 l 106 637 q 124 682 106 663 q 168 700 142 700 q 213 682 194 700 q 232 637 232 663 l 232 605 q 463 707 330 707 q 623 665 551 707 q 747 537 701 621 q 792 346 792 453 q 746 155 792 235 q 625 29 700 73 q 463 -15 549 -15 q 232 87 330 -15 l 232 -256 q 214 -302 232 -283 q 168 -320 195 -320 m 445 103 q 607 168 548 103 q 666 346 666 232 q 607 524 666 460 q 445 589 548 589 q 330 562 385 589 q 232 488 275 534 l 232 203 q 330 130 275 157 q 445 103 385 103 z "},"þ":{"ha":856,"x_min":106,"x_max":792,"o":"m 168 -320 q 124 -301 142 -320 q 106 -256 106 -282 l 106 935 q 124 979 106 960 q 168 998 142 998 q 214 980 195 998 q 232 935 232 962 l 232 605 q 463 707 330 707 q 623 665 551 707 q 747 537 701 621 q 792 346 792 453 q 746 155 792 235 q 625 29 700 73 q 463 -15 549 -15 q 232 87 330 -15 l 232 -256 q 214 -302 232 -283 q 168 -320 195 -320 m 445 103 q 607 168 548 103 q 666 346 666 232 q 607 524 666 460 q 445 589 548 589 q 330 562 385 589 q 232 488 275 534 l 232 203 q 330 130 275 157 q 445 103 385 103 z "},"q":{"ha":856,"x_min":64,"x_max":750,"o":"m 688 -320 q 643 -302 662 -320 q 624 -256 624 -283 l 624 87 q 393 -15 526 -15 q 235 28 311 -15 q 110 155 156 72 q 64 346 64 239 q 111 538 64 456 q 232 663 157 620 q 393 707 307 707 q 624 605 526 707 l 624 637 q 643 682 624 663 q 688 700 662 700 q 732 682 713 700 q 750 637 750 663 l 750 -256 q 732 -301 750 -282 q 688 -320 713 -320 m 411 103 q 526 130 471 103 q 624 203 581 157 l 624 488 q 526 562 581 534 q 411 589 471 589 q 249 524 308 589 q 190 346 190 460 q 249 168 190 232 q 411 103 308 103 z "},"r":{"ha":519,"x_min":106,"x_max":511,"o":"m 168 -8 q 124 10 142 -8 q 106 54 106 28 l 106 636 q 124 681 106 662 q 168 700 142 700 q 213 681 194 700 q 232 636 232 662 l 232 582 q 444 707 326 707 l 450 707 q 494 688 476 707 q 511 644 511 670 q 493 602 511 618 q 448 585 475 585 l 441 585 q 323 554 377 585 q 232 467 270 524 l 232 54 q 213 10 232 28 q 168 -8 194 -8 z "},"s":{"ha":651,"x_min":60,"x_max":594,"o":"m 331 -15 q 83 46 197 -15 q 60 92 60 62 q 75 131 60 114 q 114 148 91 148 q 138 142 127 148 q 228 112 184 122 q 323 102 271 102 q 472 197 472 102 q 439 243 472 227 q 326 279 406 259 q 194 319 247 297 q 100 384 136 340 q 65 491 65 427 q 136 647 65 587 q 331 707 206 707 q 528 673 439 707 q 557 652 547 667 q 568 620 568 637 q 552 581 568 598 q 513 564 536 564 l 495 567 q 340 591 414 591 q 228 566 270 591 q 186 498 186 540 q 222 439 186 458 q 340 403 262 422 q 471 363 414 384 q 560 298 526 342 q 594 187 594 254 q 524 42 594 99 q 331 -15 453 -15 z "},"ß":{"ha":825,"x_min":106,"x_max":765,"o":"m 567 477 q 709 395 654 456 q 765 236 765 334 q 728 98 765 155 q 635 14 693 42 q 506 -15 576 -15 q 355 8 427 -15 q 311 61 311 23 q 326 100 311 84 q 365 115 342 115 q 385 111 377 115 q 486 98 425 98 q 593 136 547 98 q 639 251 639 174 q 575 372 639 326 q 407 418 511 418 q 368 431 382 418 q 354 469 354 445 q 368 504 354 490 q 407 521 382 518 q 538 574 490 530 q 586 681 586 617 q 540 800 586 757 q 412 844 494 844 q 280 795 328 844 q 232 644 232 747 l 232 56 q 213 12 232 30 q 168 -7 194 -7 q 124 12 142 -7 q 106 56 106 30 l 106 659 q 190 881 106 800 q 414 962 274 962 q 556 933 490 962 q 670 841 628 903 q 712 694 712 779 q 567 477 712 526 z "},"t":{"ha":518,"x_min":24,"x_max":491,"o":"m 441 109 q 476 94 461 109 q 491 58 491 79 q 458 9 491 27 q 346 -15 406 -15 q 146 165 146 -15 l 146 578 l 79 578 q 39 592 53 578 q 24 632 24 606 q 39 672 24 658 q 79 686 53 686 l 146 686 l 146 783 q 163 830 146 814 q 210 846 180 846 q 256 829 240 846 q 273 783 273 812 l 273 686 l 425 686 q 463 671 448 686 q 479 632 479 655 q 463 594 479 610 q 425 578 448 578 l 273 578 l 273 176 q 294 113 273 129 q 359 96 316 96 q 414 104 388 96 q 418 106 416 104 q 441 109 431 109 z "},"u":{"ha":826,"x_min":99,"x_max":720,"o":"m 343 -15 q 213 20 270 -15 q 129 117 159 56 q 99 252 99 178 l 99 637 q 118 682 99 663 q 163 700 137 700 q 207 682 189 700 q 225 637 225 663 l 225 266 q 373 102 225 102 q 490 134 438 102 q 594 231 543 167 l 594 637 q 613 682 594 663 q 658 700 632 700 q 702 682 684 700 q 720 637 720 663 l 720 56 q 702 11 720 30 q 658 -8 684 -8 q 613 11 632 -8 q 594 56 594 30 l 594 107 q 479 16 538 47 q 343 -15 419 -15 z "},"ú":{"ha":826,"x_min":99,"x_max":720,"o":"m 414 768 q 387 778 397 768 q 376 806 376 788 q 385 833 376 817 l 454 954 q 500 981 468 981 q 537 966 522 981 q 552 929 552 952 q 538 894 552 907 l 445 783 q 414 768 433 768 m 343 -15 q 213 20 270 -15 q 129 117 159 56 q 99 252 99 178 l 99 637 q 118 682 99 663 q 163 700 137 700 q 207 682 189 700 q 225 637 225 663 l 225 266 q 373 102 225 102 q 490 134 438 102 q 594 231 543 167 l 594 637 q 613 682 594 663 q 658 700 632 700 q 702 682 684 700 q 720 637 720 663 l 720 56 q 702 11 720 30 q 658 -8 684 -8 q 613 11 632 -8 q 594 56 594 30 l 594 107 q 479 16 538 47 q 343 -15 419 -15 z "},"û":{"ha":826,"x_min":99,"x_max":720,"o":"m 271 766 q 242 779 255 766 q 229 807 229 792 q 240 836 229 822 l 332 930 q 388 958 358 958 l 439 958 q 495 930 469 958 l 587 836 q 598 807 598 822 q 585 779 598 792 q 556 766 572 766 q 530 776 541 766 l 425 865 q 414 871 420 871 q 403 865 408 871 l 297 776 q 271 766 286 766 m 343 -15 q 213 20 270 -15 q 129 117 159 56 q 99 252 99 178 l 99 637 q 118 682 99 663 q 163 700 137 700 q 207 682 189 700 q 225 637 225 663 l 225 266 q 373 102 225 102 q 490 134 438 102 q 594 231 543 167 l 594 637 q 613 682 594 663 q 658 700 632 700 q 702 682 684 700 q 720 637 720 663 l 720 56 q 702 11 720 30 q 658 -8 684 -8 q 613 11 632 -8 q 594 56 594 30 l 594 107 q 479 16 538 47 q 343 -15 419 -15 z "},"ü":{"ha":826,"x_min":99,"x_max":720,"o":"m 300 779 q 250 800 271 779 q 229 849 229 821 q 250 899 229 878 q 300 920 271 920 q 349 899 328 920 q 370 849 370 878 q 349 800 370 821 q 300 779 328 779 m 528 779 q 478 800 499 779 q 457 849 457 821 q 478 899 457 878 q 528 920 499 920 q 577 899 556 920 q 598 849 598 878 q 577 800 598 821 q 528 779 556 779 m 343 -15 q 213 20 270 -15 q 129 117 159 56 q 99 252 99 178 l 99 637 q 118 682 99 663 q 163 700 137 700 q 207 682 189 700 q 225 637 225 663 l 225 266 q 373 102 225 102 q 490 134 438 102 q 594 231 543 167 l 594 637 q 613 682 594 663 q 658 700 632 700 q 702 682 684 700 q 720 637 720 663 l 720 56 q 702 11 720 30 q 658 -8 684 -8 q 613 11 632 -8 q 594 56 594 30 l 594 107 q 479 16 538 47 q 343 -15 419 -15 z "},"ù":{"ha":826,"x_min":99,"x_max":720,"o":"m 414 768 q 382 783 395 768 l 289 894 q 275 929 275 907 q 290 967 275 954 q 327 981 304 981 q 373 954 359 981 l 442 833 q 452 806 452 817 q 441 779 452 789 q 414 768 431 768 m 343 -15 q 213 20 270 -15 q 129 117 159 56 q 99 252 99 178 l 99 637 q 118 682 99 663 q 163 700 137 700 q 207 682 189 700 q 225 637 225 663 l 225 266 q 373 102 225 102 q 490 134 438 102 q 594 231 543 167 l 594 637 q 613 682 594 663 q 658 700 632 700 q 702 682 684 700 q 720 637 720 663 l 720 56 q 702 11 720 30 q 658 -8 684 -8 q 613 11 632 -8 q 594 56 594 30 l 594 107 q 479 16 538 47 q 343 -15 419 -15 z "},"v":{"ha":719,"x_min":34,"x_max":685,"o":"m 353 -8 q 307 6 328 -8 q 277 43 286 20 l 41 608 q 34 636 34 625 q 52 681 34 662 q 96 700 71 700 q 130 690 114 700 q 153 663 146 680 l 349 167 q 359 157 353 157 q 370 167 366 157 l 566 663 q 589 690 572 680 q 623 700 605 700 q 667 681 648 700 q 685 636 685 662 q 678 608 685 625 l 442 43 q 412 6 433 20 q 366 -8 391 -8 l 353 -8 z "},"w":{"ha":1074,"x_min":37,"x_max":1038,"o":"m 313 -8 q 264 8 286 -8 q 233 50 241 24 l 41 614 q 37 637 37 627 q 55 682 37 663 q 99 700 73 700 q 135 690 119 700 q 156 662 151 680 l 304 176 q 313 165 308 165 q 323 176 319 165 l 469 650 q 495 686 476 673 q 537 700 514 700 q 579 686 560 700 q 605 650 598 673 l 751 176 q 761 165 755 165 q 770 176 766 165 l 918 662 q 939 690 924 680 q 975 700 955 700 q 1019 682 1001 700 q 1038 637 1038 663 q 1034 614 1038 627 l 841 50 q 810 8 833 24 q 761 -8 788 -8 q 711 8 734 -8 q 680 52 689 24 l 547 465 q 537 476 543 476 q 528 465 532 476 l 395 52 q 363 8 385 24 q 313 -8 340 -8 z "},"x":{"ha":734,"x_min":66,"x_max":667,"o":"m 127 -8 q 83 9 99 -8 q 68 56 68 27 q 81 95 68 75 l 292 342 l 81 597 q 66 637 66 616 q 85 682 66 665 q 129 700 103 700 q 179 677 161 700 l 368 444 l 555 677 q 604 700 574 700 q 649 683 631 700 q 667 640 667 666 q 654 601 667 621 l 439 350 l 651 96 q 666 56 666 79 q 648 11 666 30 q 602 -8 631 -8 q 553 16 572 -8 l 362 245 l 182 19 q 127 -8 161 -8 z "},"y":{"ha":728,"x_min":34,"x_max":694,"o":"m 262 -320 q 220 -302 237 -320 q 202 -259 202 -283 q 206 -237 202 -248 l 294 -11 l 39 610 q 34 636 34 624 q 52 681 34 662 q 96 700 71 700 q 132 689 115 700 q 155 661 148 678 l 362 146 l 574 658 q 632 700 593 700 q 676 681 658 700 q 694 636 694 662 q 690 613 694 624 l 320 -277 q 262 -320 301 -320 z "},"ý":{"ha":728,"x_min":34,"x_max":694,"o":"m 365 768 q 338 778 349 768 q 327 806 327 788 q 336 833 327 817 l 406 954 q 452 981 419 981 q 488 966 473 981 q 503 929 503 952 q 490 894 503 907 l 396 783 q 365 768 384 768 m 262 -320 q 220 -302 237 -320 q 202 -259 202 -283 q 206 -237 202 -248 l 294 -11 l 39 610 q 34 636 34 624 q 52 681 34 662 q 96 700 71 700 q 132 689 115 700 q 155 661 148 678 l 362 146 l 574 658 q 632 700 593 700 q 676 681 658 700 q 694 636 694 662 q 690 613 694 624 l 320 -277 q 262 -320 301 -320 z "},"ÿ":{"ha":728,"x_min":34,"x_max":694,"o":"m 251 779 q 201 800 222 779 q 180 849 180 821 q 201 899 180 878 q 251 920 222 920 q 300 899 279 920 q 321 849 321 878 q 300 800 321 821 q 251 779 279 779 m 479 779 q 429 800 450 779 q 408 849 408 821 q 429 899 408 878 q 479 920 450 920 q 528 899 507 920 q 549 849 549 878 q 528 800 549 821 q 479 779 507 779 m 262 -320 q 220 -302 237 -320 q 202 -259 202 -283 q 206 -237 202 -248 l 294 -11 l 39 610 q 34 636 34 624 q 52 681 34 662 q 96 700 71 700 q 132 689 115 700 q 155 661 148 678 l 362 146 l 574 658 q 632 700 593 700 q 676 681 658 700 q 694 636 694 662 q 690 613 694 624 l 320 -277 q 262 -320 301 -320 z "},"z":{"ha":675,"x_min":53,"x_max":623,"o":"m 140 -1 q 77 19 102 -1 q 53 72 53 39 q 75 129 53 103 l 446 556 q 450 567 450 563 q 438 575 450 575 l 123 575 q 82 592 99 575 q 65 633 65 609 q 82 675 65 658 q 123 693 99 693 l 534 693 q 592 671 570 693 q 614 614 614 648 q 595 559 614 585 l 235 136 q 231 125 231 130 q 243 117 231 117 l 563 117 q 605 99 587 117 q 623 57 623 81 q 605 16 623 33 q 563 -1 587 -1 l 140 -1 z "},"ª":{"ha":658,"x_min":88,"x_max":551,"o":"m 267 458 q 155 499 201 458 q 109 605 109 540 q 165 714 109 677 q 328 751 222 751 l 430 751 l 430 753 q 402 840 430 812 q 316 867 374 867 q 193 845 254 867 l 190 844 l 179 842 q 148 856 161 842 q 134 887 134 869 q 144 912 134 901 q 167 929 153 924 q 331 962 251 962 q 477 907 425 962 q 530 772 530 853 l 530 513 q 515 477 530 492 q 480 463 500 463 q 445 477 460 463 q 430 513 430 492 l 430 521 q 363 475 404 492 q 267 458 321 458 m 298 549 q 369 566 335 549 q 430 612 403 583 l 430 675 l 339 675 q 209 613 209 675 q 298 549 209 549 m 127 309 q 100 321 113 309 q 88 349 88 334 q 100 376 88 363 q 127 388 113 388 l 511 388 q 538 376 526 388 q 551 349 551 363 q 538 321 551 334 q 511 309 526 309 l 127 309 z "},"º":{"ha":697,"x_min":94,"x_max":604,"o":"m 349 458 q 172 528 239 458 q 106 711 106 598 q 172 893 106 825 q 349 962 239 962 q 525 893 458 962 q 591 711 591 825 q 525 528 591 598 q 349 458 458 458 m 349 548 q 450 591 410 548 q 491 712 491 633 q 450 831 491 789 q 349 873 410 873 q 247 831 288 873 q 206 712 206 789 q 247 591 206 633 q 349 548 288 548 m 133 309 q 106 321 118 309 q 94 349 94 334 q 106 376 94 363 q 133 388 118 388 l 564 388 q 591 376 579 388 q 604 349 604 363 q 591 321 604 334 q 564 309 579 309 l 133 309 z "},"中":{"ha":1389,"x_min":136,"x_max":1267,"o":"m 1111 861 q 1259 712 1267 871 l 1259 410 q 1223 293 1259 330 q 1111 262 1188 256 l 754 262 l 754 -66 q 694 -133 754 -133 q 635 -66 635 -133 l 635 262 l 292 262 q 144 410 136 252 l 144 712 q 178 830 144 793 q 292 861 213 867 l 635 861 l 635 1039 q 694 1107 635 1107 q 754 1039 754 1107 l 754 861 l 1111 861 m 635 370 l 635 753 l 339 753 q 277 737 293 753 q 262 674 262 722 l 262 448 q 277 386 262 401 q 339 370 293 370 l 635 370 m 1139 674 q 1124 737 1139 722 q 1062 753 1108 753 l 754 753 l 754 370 l 1062 370 q 1124 386 1108 370 q 1139 448 1139 401 l 1139 674 z "},"俄":{"ha":1389,"x_min":69,"x_max":1318,"o":"m 449 1024 q 407 912 438 989 q 335 754 376 836 l 335 -64 q 322 -114 335 -98 q 282 -130 309 -130 q 240 -114 254 -130 q 227 -64 227 -98 l 227 559 q 163 471 190 503 q 118 442 141 442 q 90 453 104 442 q 69 491 69 469 q 84 530 69 510 q 184 684 148 621 q 258 829 221 747 q 342 1058 300 924 q 363 1090 349 1080 q 396 1100 377 1100 q 415 1097 401 1100 q 453 1050 453 1088 q 449 1024 453 1039 m 1267 168 q 1314 104 1318 168 q 1278 -70 1309 -12 q 1187 -127 1248 -127 q 1082 -73 1135 -127 q 996 88 1028 -18 q 792 -61 860 -61 q 753 -49 765 -61 q 741 -8 741 -37 q 788 50 741 19 q 960 199 888 121 q 901 620 924 309 l 689 620 l 689 420 l 795 449 q 814 452 808 452 q 847 438 834 452 q 860 404 860 425 q 850 375 860 389 q 821 354 841 361 l 689 316 l 689 5 q 658 -94 689 -62 q 559 -122 627 -125 l 481 -122 q 437 -108 454 -122 q 420 -66 420 -94 q 437 -25 420 -39 q 481 -11 454 -11 l 537 -11 q 583 35 581 -11 l 583 290 q 456 258 487 264 q 434 255 439 255 q 382 300 392 255 q 381 311 381 304 q 393 342 381 328 q 427 361 404 355 l 583 396 l 583 620 l 450 620 q 388 670 388 620 q 450 723 388 723 l 583 723 l 583 910 q 495 901 562 907 q 438 951 438 895 q 450 983 438 972 q 491 997 463 994 q 777 1053 620 1010 q 798 1055 791 1055 q 831 1040 818 1055 q 844 1001 844 1025 q 833 970 844 983 q 804 951 823 956 q 689 925 758 936 l 689 723 l 894 723 l 892 825 q 890 1027 890 960 q 949 1095 890 1095 q 1006 1023 1008 1095 q 1005 930 1005 991 q 1008 723 1005 861 l 1240 723 q 1303 670 1303 723 q 1240 620 1303 620 l 1010 620 q 1043 305 1021 420 q 1139 481 1099 392 q 1166 524 1152 510 q 1195 538 1181 538 q 1252 491 1252 538 q 1202 376 1252 472 q 1074 183 1157 289 q 1133 44 1104 92 q 1184 -4 1162 -4 q 1218 107 1207 -4 q 1233 155 1221 141 q 1267 168 1245 168 m 1105 913 q 1081 963 1081 948 q 1134 1010 1081 1010 q 1210 947 1165 1010 q 1256 860 1256 880 q 1199 807 1256 807 q 1130 876 1168 807 l 1105 913 z "},"倫":{"ha":1389,"x_min":73,"x_max":1314,"o":"m 1267 709 q 1314 651 1314 690 q 1301 606 1314 623 q 1264 589 1289 589 q 1197 612 1240 589 q 1085 686 1154 635 l 1086 675 q 1075 640 1089 652 q 1034 628 1061 628 l 644 628 q 590 675 590 628 l 591 686 q 495 602 534 631 q 439 572 456 572 q 385 628 385 572 q 441 701 385 659 q 766 1061 639 850 q 798 1101 783 1088 q 833 1115 814 1115 q 877 1101 860 1115 q 894 1066 894 1088 q 883 1038 894 1059 q 1267 709 1044 804 m 452 1065 q 353 789 452 1019 l 353 -73 q 298 -133 353 -133 q 258 -119 271 -133 q 245 -73 245 -104 l 245 570 q 166 436 194 475 q 117 397 138 397 q 85 410 96 397 q 73 442 73 422 q 81 477 73 458 q 110 528 90 495 q 334 1048 255 764 q 393 1105 350 1105 q 452 1065 452 1105 m 1039 722 q 830 956 914 821 q 627 722 742 840 l 1039 722 m 1131 543 q 1242 431 1242 543 l 1242 0 q 1214 -94 1242 -62 q 1124 -126 1185 -125 l 1078 -126 q 1023 -72 1023 -126 q 1070 -18 1023 -18 l 1104 -18 q 1138 23 1137 -18 l 1138 186 l 1002 186 l 1002 -64 q 989 -98 1002 -85 q 954 -110 977 -110 q 906 -64 906 -110 l 906 186 l 779 186 l 779 -62 q 730 -110 779 -110 q 694 -98 707 -110 q 682 -62 682 -85 l 682 186 l 552 186 l 552 -79 q 499 -132 552 -132 q 446 -79 446 -132 l 446 433 q 556 543 446 543 l 1131 543 m 682 444 l 585 444 q 552 410 553 444 l 552 281 l 682 281 l 682 444 m 906 281 l 906 444 l 779 444 l 779 281 l 906 281 m 1138 410 q 1104 444 1138 442 l 1002 444 l 1002 281 l 1138 281 l 1138 410 z "},"加":{"ha":1389,"x_min":68,"x_max":1261,"o":"m 415 -104 q 340 -39 340 -104 q 401 20 340 20 l 442 20 q 524 66 507 20 q 552 274 544 122 l 564 513 q 575 728 574 703 q 521 772 578 772 l 400 772 q 366 392 391 548 q 296 125 340 236 q 126 -95 206 -95 q 68 -33 68 -95 q 99 28 68 -7 q 232 297 183 122 q 286 772 277 460 l 145 772 q 76 831 76 772 q 148 888 76 888 l 289 888 l 290 939 q 293 1038 293 1004 q 351 1104 293 1104 q 411 1047 411 1104 q 408 952 411 1015 q 406 888 406 909 l 555 888 q 657 858 623 888 q 689 768 692 827 l 678 529 q 667 290 675 453 q 650 92 662 172 q 623 -24 637 11 q 415 -104 590 -104 m 890 -57 q 793 -28 823 -57 q 766 65 762 1 l 766 812 q 796 909 766 879 q 890 935 826 939 l 1135 935 q 1232 905 1202 935 q 1257 811 1261 876 l 1257 66 q 1228 -31 1257 0 q 1135 -57 1199 -61 l 890 -57 m 1095 60 q 1143 109 1142 60 l 1143 770 q 1095 819 1143 818 l 928 819 q 879 770 882 819 l 879 109 q 928 60 879 62 l 1095 60 z "},"卡":{"ha":1389,"x_min":80,"x_max":1309,"o":"m 1242 618 q 1309 563 1309 618 q 1242 506 1309 506 l 693 506 l 693 -72 q 633 -140 693 -140 q 575 -72 575 -140 l 575 506 l 144 506 q 96 519 111 506 q 80 563 80 533 q 96 605 80 591 q 144 618 111 618 l 575 618 l 575 1034 q 635 1101 575 1101 q 693 1034 693 1101 l 693 929 l 1120 929 q 1168 916 1153 929 q 1184 873 1184 902 q 1168 831 1184 845 q 1120 818 1153 818 l 693 818 l 693 618 l 1242 618 m 983 260 q 1132 157 1086 194 q 1177 99 1177 121 q 1162 54 1177 68 q 1116 39 1147 39 q 983 121 1088 39 q 761 267 928 163 q 719 321 719 292 q 737 359 719 346 q 777 372 755 372 q 983 260 810 372 z "},"印":{"ha":1389,"x_min":152,"x_max":1260,"o":"m 590 140 q 655 88 655 140 q 590 35 655 35 l 274 35 q 181 63 210 35 q 155 155 152 91 l 155 879 q 165 940 155 916 q 197 974 176 964 l 224 985 l 419 1036 l 566 1085 l 586 1088 q 628 1076 613 1092 q 643 1028 643 1059 q 604 974 643 994 q 545 955 591 967 q 435 928 499 943 q 292 890 339 903 q 276 878 282 887 q 270 860 270 869 l 270 605 l 551 605 q 616 552 616 605 q 551 499 616 499 l 270 499 l 270 190 q 320 140 270 142 l 590 140 m 1249 174 q 1103 26 1260 15 l 1008 26 q 943 80 943 26 q 997 134 943 134 l 1070 134 q 1122 147 1108 134 q 1137 199 1137 160 l 1137 865 q 1121 910 1137 895 q 1077 925 1105 925 l 894 925 q 851 910 867 925 q 836 867 836 895 l 836 -68 q 781 -130 836 -130 q 726 -68 726 -130 l 726 916 q 752 1006 726 978 q 838 1029 779 1034 l 1120 1029 q 1219 998 1181 1029 q 1249 901 1251 960 l 1249 174 z "},"台":{"ha":1389,"x_min":87,"x_max":1309,"o":"m 1248 530 q 1160 602 1213 530 l 1134 635 l 149 579 q 102 593 118 578 q 87 637 87 608 q 130 690 87 680 l 202 694 l 305 696 q 481 1034 395 838 q 516 1086 496 1069 q 562 1103 536 1103 q 620 1051 620 1103 q 515 846 620 1016 l 423 700 q 1029 720 895 711 l 1055 722 q 911 863 959 829 q 868 922 868 892 q 880 959 868 947 q 920 971 892 971 q 1133 802 954 971 q 1309 585 1309 633 q 1248 530 1309 530 m 362 -94 q 246 -58 282 -94 q 216 53 210 -23 l 216 315 q 362 460 206 469 l 1028 460 q 1176 315 1187 469 l 1176 53 q 1028 -94 1185 -102 l 362 -94 m 987 11 q 1062 81 1062 11 l 1062 282 q 990 357 1062 357 l 404 357 q 331 285 331 357 l 331 84 q 401 11 331 11 l 987 11 z "},"哥":{"ha":1389,"x_min":75,"x_max":1314,"o":"m 891 524 q 836 578 836 524 q 891 635 836 635 l 958 635 q 995 648 982 635 q 1008 686 1008 662 l 1008 963 l 159 963 q 98 1013 98 963 q 159 1062 98 1062 l 1230 1062 q 1291 1013 1291 1062 q 1230 963 1291 963 l 1120 963 l 1120 661 q 1088 559 1120 593 q 986 524 1057 525 l 891 524 m 327 582 q 245 607 271 582 q 221 686 220 632 l 221 780 q 247 861 221 836 q 327 884 273 886 l 692 884 q 773 859 747 884 q 796 780 799 834 l 796 686 q 771 605 796 631 q 692 582 746 579 l 327 582 m 656 669 q 684 677 675 669 q 693 707 692 686 l 693 760 q 684 788 693 780 q 656 798 675 796 l 361 798 q 324 760 326 798 l 324 707 q 361 669 324 671 l 656 669 m 869 -127 q 806 -71 806 -127 q 869 -11 806 -11 l 959 -11 q 1009 41 1006 -11 l 1009 396 l 137 396 q 75 446 75 396 q 137 495 75 495 l 1252 495 q 1314 446 1314 495 q 1252 396 1314 396 l 1123 396 l 1123 15 q 1089 -92 1123 -57 q 983 -127 1055 -127 l 869 -127 m 311 -23 q 228 3 254 -23 q 205 84 202 28 l 205 213 q 230 296 205 270 q 311 319 255 323 l 701 319 q 786 294 760 319 q 810 213 812 269 l 810 84 q 784 1 810 27 q 701 -23 758 -26 l 311 -23 m 665 71 q 692 79 684 71 q 700 106 700 87 l 700 189 q 692 217 700 209 q 665 227 684 225 l 350 227 q 323 218 331 227 q 313 189 315 209 l 313 106 q 322 80 313 88 q 350 71 331 72 l 665 71 z "},"坦":{"ha":1389,"x_min":73,"x_max":1309,"o":"m 134 43 q 89 56 104 39 q 73 104 73 72 q 178 182 73 159 l 258 198 l 258 666 l 138 666 q 77 722 77 666 q 138 777 77 777 l 258 777 l 258 1035 q 313 1099 258 1099 q 370 1035 370 1099 l 370 777 l 464 777 q 526 722 526 777 q 464 666 526 666 l 370 666 l 370 227 l 483 254 q 537 189 537 254 q 488 141 537 157 q 351 98 433 122 l 155 46 l 134 43 m 720 172 q 623 202 654 172 q 597 297 593 232 l 597 914 q 626 1013 597 982 q 720 1039 655 1043 l 1088 1039 q 1185 1008 1154 1039 q 1211 913 1215 978 l 1211 298 q 1182 199 1211 231 q 1088 172 1153 168 l 720 172 m 1096 884 q 1084 918 1096 907 q 1050 930 1073 929 l 755 930 q 709 886 712 930 l 709 663 l 1096 663 l 1096 884 m 1050 279 q 1096 327 1093 279 l 1096 556 l 709 556 l 709 326 q 755 279 709 282 l 1050 279 m 484 -83 q 418 -28 418 -83 q 484 27 418 27 l 1241 27 q 1309 -28 1309 27 q 1241 -83 1309 -83 l 484 -83 z "},"城":{"ha":1389,"x_min":75,"x_max":1314,"o":"m 735 -123 q 681 -64 681 -123 q 742 1 681 -34 q 962 183 871 76 q 887 773 899 382 l 642 773 q 593 731 593 773 l 595 597 l 732 597 q 837 491 837 597 q 799 123 837 189 q 648 60 762 60 q 593 118 593 60 q 652 167 593 163 q 715 191 705 171 q 738 448 732 225 q 697 492 739 492 l 595 492 q 567 174 595 279 q 468 -20 536 56 q 357 -99 399 -99 q 301 -41 301 -99 q 361 35 301 -18 q 463 187 429 96 q 491 541 494 270 l 491 760 q 612 884 491 884 l 883 884 l 880 1034 q 937 1105 879 1105 q 986 1076 977 1105 q 991 884 991 1059 l 1241 884 q 1309 829 1309 884 q 1241 773 1309 773 l 993 773 q 1036 293 1000 449 q 1168 610 1114 438 q 1210 652 1180 652 q 1271 604 1271 652 q 1204 411 1271 567 q 1076 168 1139 259 q 1188 18 1145 18 q 1219 144 1215 18 q 1264 217 1222 217 q 1314 160 1314 217 q 1206 -122 1314 -122 q 1005 79 1114 -122 q 860 -53 940 9 q 735 -123 766 -123 m 132 81 q 75 140 75 81 q 142 206 75 189 l 243 235 l 243 678 l 144 678 q 79 731 79 678 q 144 785 79 785 l 243 785 l 243 1038 q 296 1099 243 1099 q 350 1038 350 1099 l 350 785 l 407 785 q 473 731 473 785 q 407 678 473 678 l 350 678 l 350 271 q 404 289 400 289 q 460 236 460 289 q 429 186 460 201 q 212 104 396 171 l 148 84 l 132 81 m 1160 917 q 1095 971 1135 917 l 1072 997 q 1051 1038 1051 1021 q 1103 1082 1051 1082 q 1177 1027 1128 1082 q 1217 964 1217 983 q 1160 917 1217 917 z "},"埔":{"ha":1389,"x_min":75,"x_max":1314,"o":"m 944 830 l 944 718 l 1135 718 q 1231 688 1200 718 q 1257 595 1261 659 l 1257 23 q 1226 -81 1257 -47 q 1126 -109 1195 -114 l 1067 -109 q 1005 -52 1005 -109 q 1059 7 1005 7 l 1101 7 q 1136 17 1126 7 q 1147 52 1146 27 l 1147 187 l 944 187 l 944 -73 q 930 -121 944 -104 q 890 -137 916 -137 q 850 -121 864 -137 q 836 -73 836 -104 l 836 187 l 642 187 l 642 -49 q 627 -97 642 -80 q 587 -114 613 -114 q 547 -97 562 -114 q 533 -49 533 -80 l 533 595 q 562 691 533 661 q 656 718 591 722 l 836 718 l 836 830 l 548 830 q 486 879 486 830 q 548 929 486 929 l 836 929 l 836 1046 q 891 1109 836 1109 q 944 1046 944 1109 l 944 929 l 1253 929 q 1314 880 1314 929 q 1253 830 1314 830 l 944 830 m 438 776 q 500 722 500 776 q 438 667 500 667 l 350 667 l 350 244 l 404 260 l 435 267 q 486 214 486 267 q 444 159 486 172 q 132 68 176 68 q 75 127 75 68 q 130 187 75 178 l 239 214 l 243 214 l 243 667 l 141 667 q 81 722 81 667 q 141 776 81 776 l 243 776 l 243 1038 q 297 1099 243 1099 q 350 1038 350 1099 l 350 776 l 438 776 m 1095 993 q 1040 1055 1040 1039 q 1090 1099 1040 1099 q 1168 1057 1116 1099 q 1221 994 1221 1015 q 1169 945 1221 945 q 1095 993 1153 945 m 836 616 l 680 616 q 642 578 644 616 l 642 500 l 836 500 l 836 616 m 944 616 l 944 500 l 1147 500 l 1147 578 q 1138 606 1147 597 q 1109 616 1128 614 l 944 616 m 836 285 l 836 403 l 642 403 l 642 285 l 836 285 m 1147 285 l 1147 403 l 944 403 l 944 285 l 1147 285 z "},"基":{"ha":1389,"x_min":75,"x_max":1314,"o":"m 125 79 q 75 136 75 79 q 129 198 75 171 q 342 395 247 258 l 144 395 q 88 441 88 395 q 144 488 88 488 l 334 488 l 334 890 l 186 890 q 130 937 130 890 q 186 983 130 983 l 334 983 l 334 1039 q 389 1105 334 1105 q 444 1039 444 1105 l 444 983 l 944 983 l 944 1039 q 1000 1105 944 1105 q 1054 1039 1054 1105 l 1054 983 l 1203 983 q 1257 936 1257 983 q 1203 890 1257 890 l 1054 890 l 1054 488 l 1246 488 q 1299 441 1299 488 q 1286 407 1299 418 q 1246 395 1274 396 l 1038 395 q 1271 203 1133 267 q 1314 146 1314 183 q 1260 88 1314 88 q 1118 170 1222 88 q 918 395 1009 255 l 465 395 q 269 164 370 248 q 125 79 167 79 m 944 811 l 944 890 l 444 890 l 444 811 l 944 811 m 944 652 l 944 732 l 444 732 l 444 652 l 944 652 m 944 488 l 944 574 l 444 574 l 444 488 l 944 488 m 217 -90 q 161 -39 161 -90 q 217 8 161 8 l 633 8 l 633 145 l 397 145 q 345 191 345 145 q 397 239 345 239 l 633 239 l 633 304 q 690 369 633 369 q 745 304 745 369 l 745 239 l 985 239 q 1039 191 1039 239 q 985 145 1039 145 l 745 145 l 745 8 l 1171 8 q 1227 -41 1227 8 q 1171 -90 1227 -90 l 217 -90 z "},"墨":{"ha":1389,"x_min":81,"x_max":1309,"o":"m 153 414 q 102 457 102 414 q 153 503 102 503 l 636 503 l 636 571 l 212 571 q 163 616 163 571 q 212 658 163 658 l 636 658 l 636 720 l 286 720 q 197 748 225 720 q 172 833 168 776 l 172 948 q 199 1036 172 1008 q 286 1061 227 1063 l 1095 1061 q 1185 1033 1157 1061 q 1208 948 1214 1005 l 1208 833 q 1181 745 1208 773 q 1095 720 1154 718 l 745 720 l 745 658 l 1181 658 q 1232 616 1232 658 q 1181 571 1232 571 l 745 571 l 745 503 l 1238 503 q 1278 492 1264 503 q 1291 460 1291 480 q 1238 414 1291 414 l 153 414 m 636 806 l 636 975 l 311 975 q 283 948 283 975 l 283 833 q 311 806 283 806 l 636 806 m 745 806 l 1070 806 q 1097 833 1097 806 l 1097 948 q 1070 975 1097 975 l 745 975 l 745 806 m 427 962 q 462 950 444 962 q 496 917 480 939 q 532 856 532 869 q 473 818 532 818 q 401 876 445 818 q 389 893 397 883 q 378 909 381 903 q 376 924 376 916 q 389 951 376 941 q 427 962 403 962 m 944 959 q 996 924 996 959 q 967 861 996 901 q 935 825 948 836 q 897 815 922 815 q 860 825 873 815 q 846 850 846 834 q 854 873 846 856 q 869 903 861 890 l 890 935 q 944 959 905 959 m 1146 404 q 1241 338 1179 404 q 1303 247 1303 271 q 1246 194 1303 194 q 1172 251 1215 194 l 1116 316 q 1093 359 1093 342 q 1146 404 1093 404 m 137 182 q 84 236 84 182 q 130 307 84 256 l 175 363 q 235 401 205 401 q 288 354 288 401 q 231 255 288 326 q 137 182 170 182 m 499 401 q 544 380 532 401 q 579 279 579 323 q 525 231 579 231 q 448 338 476 231 q 445 351 445 349 q 459 388 445 374 q 499 401 473 401 m 834 401 q 903 351 869 401 q 937 274 937 304 q 883 233 937 233 q 800 311 844 233 q 781 362 781 345 q 834 401 781 401 m 1255 0 q 1309 -49 1309 0 q 1255 -98 1309 -98 l 136 -98 q 81 -49 81 -98 q 136 0 81 0 l 639 0 l 639 88 l 236 88 q 186 136 186 88 q 236 183 186 183 l 639 183 l 639 250 q 694 305 639 305 q 750 250 750 305 l 750 183 l 1150 183 q 1203 136 1203 183 q 1150 88 1203 88 l 750 88 l 750 0 l 1255 0 z "},"士":{"ha":1389,"x_min":80,"x_max":1309,"o":"m 228 -52 q 174 -38 191 -52 q 156 5 156 -24 q 228 61 156 61 l 631 61 l 631 605 l 151 605 q 80 662 80 605 q 151 718 80 718 l 631 718 l 631 1021 q 690 1097 631 1097 q 734 1079 720 1097 q 747 1021 747 1061 l 747 718 l 1237 718 q 1309 662 1309 718 q 1237 605 1309 605 l 747 605 l 747 61 l 1161 61 q 1213 47 1196 61 q 1230 5 1230 34 q 1213 -38 1230 -24 q 1161 -52 1196 -52 l 228 -52 z "},"奇":{"ha":1389,"x_min":92,"x_max":1295,"o":"m 216 876 q 151 929 151 876 q 216 981 151 981 l 608 981 l 610 1047 q 665 1105 612 1105 q 724 1051 724 1105 l 720 981 l 1173 981 q 1236 929 1236 981 q 1173 876 1236 876 l 704 876 q 673 774 696 819 q 602 690 647 722 q 483 635 557 659 q 218 593 357 593 q 161 650 161 593 q 227 701 161 697 q 487 750 406 711 q 590 876 567 788 l 216 876 m 730 804 q 810 793 749 804 q 970 754 871 781 q 1190 680 1171 699 q 1204 646 1204 665 q 1152 590 1204 590 q 1095 608 1141 590 q 757 712 884 685 q 686 764 686 726 q 730 804 686 804 m 1232 557 q 1295 505 1295 557 q 1232 453 1295 453 l 1142 453 l 1142 35 q 1104 -81 1142 -42 q 986 -117 1070 -117 l 891 -117 q 826 -60 826 -117 q 882 -3 826 -3 l 972 -3 q 1029 53 1029 -3 l 1029 453 l 156 453 q 92 506 92 453 q 156 557 92 557 l 1232 557 m 681 366 q 772 342 743 372 q 796 251 802 313 l 796 110 q 772 18 802 47 q 681 -5 743 -11 l 332 -5 q 241 18 270 -11 q 217 110 212 47 l 217 251 q 241 342 212 313 q 332 366 270 372 l 681 366 m 636 94 q 686 142 688 94 l 686 218 q 636 269 686 270 l 377 269 q 327 218 326 269 l 327 142 q 377 94 327 92 l 636 94 z "},"孟":{"ha":1389,"x_min":73,"x_max":1314,"o":"m 526 404 q 468 454 468 404 q 481 492 468 480 q 524 503 495 503 l 598 503 q 646 551 643 503 l 646 650 l 141 650 q 81 700 81 650 q 141 750 81 750 l 646 750 l 646 784 q 682 859 646 842 l 769 891 q 812 907 793 901 q 845 920 831 914 q 902 942 880 933 q 924 955 924 951 q 917 962 924 962 l 267 962 q 209 1009 209 962 q 267 1057 209 1057 l 1044 1057 q 1147 1000 1147 1057 q 1103 940 1147 964 q 796 814 1015 891 q 753 762 754 799 l 753 750 l 1246 750 q 1308 700 1308 750 q 1246 650 1308 650 l 753 650 l 753 549 q 606 404 762 396 l 526 404 m 136 -90 q 73 -39 73 -90 q 136 11 73 11 l 209 11 l 209 248 q 237 338 209 309 q 326 368 266 368 l 1059 368 q 1180 248 1184 368 l 1180 11 l 1252 11 q 1314 -39 1314 11 q 1252 -90 1314 -90 l 136 -90 m 496 271 l 358 271 q 316 228 319 271 l 316 11 l 496 11 l 496 271 m 780 11 l 780 271 l 595 271 l 595 11 l 780 11 m 1072 228 q 1029 271 1072 269 l 878 271 l 878 11 l 1072 11 l 1072 228 z "},"寨":{"ha":1389,"x_min":75,"x_max":1314,"o":"m 157 699 q 99 758 99 699 l 99 854 q 133 960 99 922 q 232 993 161 993 l 624 993 l 624 1053 q 686 1105 624 1105 q 749 1053 749 1105 l 749 993 l 1156 993 q 1256 960 1217 993 q 1289 860 1289 922 l 1289 758 q 1230 699 1289 699 q 1173 758 1173 699 l 1173 841 q 1118 895 1173 892 l 270 895 q 217 841 218 895 l 217 758 q 157 699 217 699 m 127 164 q 75 216 75 164 q 125 264 75 251 q 393 391 308 313 l 144 391 q 91 435 91 391 q 144 479 91 479 l 442 479 l 442 563 l 305 563 q 255 604 255 563 q 305 644 255 644 l 442 644 l 442 722 l 297 722 q 245 765 245 722 q 297 807 245 807 l 442 807 l 442 837 q 494 887 442 887 q 545 837 545 887 l 545 807 l 825 807 l 825 838 q 876 888 825 888 q 928 838 928 888 l 928 807 l 1093 807 q 1142 764 1142 807 q 1093 722 1142 722 l 928 722 l 928 644 l 1085 644 q 1134 604 1134 644 q 1085 563 1134 563 l 928 563 l 928 479 l 1242 479 q 1297 435 1297 479 q 1242 391 1297 391 l 997 391 q 1257 275 1103 316 q 1314 221 1314 262 q 1261 170 1314 170 q 1078 235 1204 170 q 873 391 952 300 l 513 391 q 304 229 427 293 q 127 164 176 164 m 825 644 l 825 722 l 545 722 l 545 644 l 825 644 m 825 479 l 825 563 l 545 563 l 545 479 l 825 479 m 686 -133 q 637 -73 637 -133 l 637 109 q 410 -35 547 27 q 186 -104 256 -104 q 133 -50 133 -104 q 149 -16 133 -30 q 193 1 164 -3 q 604 167 403 34 l 376 167 q 323 210 323 167 q 376 254 323 254 l 637 254 l 637 316 q 688 361 637 361 q 736 316 736 361 l 736 254 l 1012 254 q 1065 210 1065 254 q 1012 167 1065 167 l 776 167 q 1195 8 959 46 q 1236 -9 1222 4 q 1251 -42 1251 -22 q 1195 -95 1251 -95 q 966 -28 1112 -95 q 736 114 819 38 l 736 -73 q 686 -133 736 -133 z "},"巴":{"ha":1389,"x_min":180,"x_max":1308,"o":"m 678 -83 q 381 -76 486 -83 q 247 -54 277 -69 q 180 45 184 -22 l 180 892 q 216 1004 180 962 q 324 1036 256 1039 l 1057 1036 q 1166 1002 1128 1036 q 1200 892 1202 959 l 1200 604 q 1166 492 1200 534 q 1057 460 1126 457 l 296 460 l 296 100 q 319 50 296 62 q 370 37 336 41 q 460 30 403 33 q 703 26 582 26 q 944 30 825 26 q 1067 35 1017 33 q 1135 43 1118 38 q 1183 152 1179 56 q 1245 239 1187 239 q 1308 174 1308 239 q 1236 -45 1308 5 q 1118 -76 1199 -71 q 678 -83 1019 -83 m 633 929 l 358 929 q 296 867 296 929 l 296 568 l 633 568 l 633 929 m 1023 568 q 1086 629 1086 568 l 1086 867 q 1070 913 1086 897 q 1023 929 1054 929 l 743 929 l 743 568 l 1023 568 z "},"市":{"ha":1389,"x_min":77,"x_max":1312,"o":"m 138 830 q 92 843 107 830 q 77 884 77 856 q 92 924 77 911 q 138 937 107 937 l 623 937 l 623 1044 q 684 1104 623 1104 q 745 1044 745 1104 l 745 937 l 1249 937 q 1312 884 1312 937 q 1296 843 1312 856 q 1249 830 1280 830 l 138 830 m 684 -130 q 627 -68 627 -130 l 627 533 l 377 533 q 325 515 343 533 q 307 464 307 498 l 307 53 q 293 7 307 22 q 250 -8 279 -8 q 193 53 193 -8 l 193 500 q 331 639 182 650 l 627 639 l 627 749 q 684 802 627 802 q 742 749 742 802 l 742 639 l 1055 639 q 1194 500 1204 650 l 1194 140 q 1047 -7 1204 -16 l 948 -7 q 888 52 888 -7 q 948 113 888 113 l 1013 113 q 1080 179 1080 113 l 1080 464 q 1062 515 1080 498 q 1010 533 1044 533 l 742 533 l 742 -68 q 684 -130 742 -130 z "},"布":{"ha":1389,"x_min":77,"x_max":1312,"o":"m 747 -130 q 696 -66 696 -130 l 696 480 l 461 480 q 416 435 419 480 l 416 26 q 362 -37 416 -37 q 309 26 309 -37 l 309 461 q 129 320 171 320 q 77 380 77 320 q 132 449 77 408 q 465 823 358 617 l 144 823 q 81 878 81 823 q 144 929 81 929 l 514 929 l 555 1039 q 582 1088 568 1073 q 616 1104 595 1104 q 675 1061 675 1104 q 629 929 675 1044 l 1246 929 q 1312 876 1312 929 q 1246 823 1312 823 l 581 823 q 419 582 522 709 l 696 582 l 696 701 q 709 749 696 734 q 749 765 722 765 q 789 749 776 765 q 802 701 802 734 l 802 582 l 1095 582 q 1195 551 1164 582 q 1222 454 1226 521 l 1222 113 q 1189 1 1222 35 q 1080 -30 1156 -34 l 991 -30 q 924 27 924 -30 q 991 85 924 85 l 1055 85 q 1111 140 1108 85 l 1111 425 q 1057 480 1111 477 l 802 480 l 802 -66 q 789 -115 802 -99 q 747 -130 776 -130 z "},"度":{"ha":1389,"x_min":75,"x_max":1313,"o":"m 285 605 q 244 73 285 248 q 193 -81 220 -33 q 133 -129 165 -129 q 75 -69 75 -129 q 94 -14 75 -52 q 155 222 137 73 q 172 605 172 372 l 172 876 q 198 953 172 926 q 274 979 224 979 l 700 979 l 700 1054 q 715 1093 700 1078 q 760 1107 731 1107 q 804 1093 788 1107 q 819 1054 819 1078 l 819 979 l 1229 979 q 1290 929 1290 979 q 1229 880 1290 880 l 342 880 q 285 823 285 880 l 285 605 m 621 427 q 546 454 572 427 q 519 529 519 480 l 519 646 l 376 646 q 326 693 326 646 q 339 728 326 716 q 376 741 353 741 l 519 741 l 519 814 q 574 857 519 857 q 627 814 627 857 l 627 741 l 963 741 l 963 810 q 1016 857 963 857 q 1072 810 1072 857 l 1072 741 l 1218 741 q 1271 693 1271 741 q 1218 646 1271 646 l 1072 646 l 1072 529 q 1045 454 1072 480 q 970 427 1019 427 l 621 427 m 963 646 l 627 646 l 627 563 q 636 532 627 541 q 666 522 646 522 l 922 522 q 963 563 963 522 l 963 646 m 1252 -18 q 1313 -71 1313 -22 q 1298 -115 1313 -102 q 1246 -127 1283 -127 q 1010 -92 1143 -126 q 787 -7 876 -57 q 330 -127 590 -103 q 283 -117 300 -130 q 266 -77 266 -104 q 279 -42 266 -56 q 316 -26 293 -28 q 519 7 423 -15 q 680 57 614 28 q 602 102 654 68 q 519 167 551 136 q 503 201 503 183 q 518 233 503 218 q 548 247 532 247 q 585 232 566 247 q 688 161 623 202 q 785 104 753 121 q 897 170 841 132 q 991 247 952 208 q 996 255 996 251 q 982 264 996 264 l 431 264 q 374 313 374 264 q 431 359 374 359 l 1066 359 q 1128 342 1105 359 q 1152 296 1152 324 q 1124 235 1152 266 q 890 56 1029 126 q 1252 -18 1058 -7 z "},"廈":{"ha":1389,"x_min":75,"x_max":1314,"o":"m 270 534 q 232 91 270 266 q 126 -106 191 -106 q 75 -52 75 -106 q 87 3 75 -27 q 167 525 167 206 l 164 897 q 288 1012 164 1012 l 667 1012 l 667 1050 q 728 1105 667 1105 q 789 1050 789 1105 l 789 1012 l 1256 1012 q 1306 968 1306 1012 q 1256 925 1306 925 l 317 925 q 266 871 266 925 l 270 582 l 270 534 m 1237 -27 q 1314 -77 1314 -30 q 1257 -130 1314 -130 q 1043 -106 1179 -130 q 791 -43 888 -79 q 292 -134 502 -134 q 236 -85 236 -134 q 301 -38 236 -42 q 671 9 511 -24 q 503 140 579 64 l 502 142 q 301 37 359 37 q 258 84 258 37 q 301 132 258 115 q 540 292 456 191 l 481 292 q 377 396 376 292 l 377 617 q 404 694 377 667 q 483 720 431 720 l 674 720 l 699 783 l 357 783 q 309 823 309 783 q 357 864 309 864 l 1237 864 q 1284 823 1284 864 q 1237 783 1284 783 l 810 783 l 773 720 l 1111 720 q 1217 616 1225 720 l 1217 397 q 1191 316 1217 342 q 1111 292 1165 290 l 650 292 q 601 232 639 275 l 1090 232 q 1168 183 1168 232 q 1085 100 1168 156 q 926 11 1002 46 q 1237 -27 1081 -22 m 481 602 l 1111 602 l 1111 618 q 1077 652 1111 651 l 514 652 q 481 620 481 652 l 481 602 m 481 534 l 481 483 l 1111 483 l 1111 534 l 481 534 m 481 393 q 489 368 481 376 q 514 359 496 361 l 1077 359 q 1111 395 1111 359 l 1111 415 l 481 415 l 481 393 m 604 155 q 799 49 688 85 q 1004 149 1004 121 q 996 155 1004 155 l 604 155 z "},"拉":{"ha":1389,"x_min":73,"x_max":1310,"o":"m 175 -122 q 117 -64 117 -122 q 175 -5 117 -5 l 217 -5 q 267 46 264 -5 l 267 339 l 221 326 q 130 301 142 301 q 73 359 73 301 q 146 423 73 407 l 263 452 l 267 453 l 267 739 l 141 739 q 80 793 80 739 q 141 845 80 845 l 267 845 l 267 1042 q 323 1105 267 1105 q 378 1042 378 1105 l 378 845 l 461 845 q 522 792 522 845 q 461 739 522 739 l 378 739 l 378 484 l 452 506 l 488 514 q 536 465 536 514 q 517 423 536 439 q 378 372 499 407 l 378 12 q 345 -88 378 -56 q 241 -122 307 -125 l 175 -122 m 618 745 q 568 758 583 745 q 552 798 552 770 q 568 837 552 825 q 618 849 583 849 l 833 849 l 833 1032 q 890 1096 833 1096 q 945 1032 945 1096 l 945 849 l 1218 849 q 1269 837 1253 849 q 1284 798 1284 825 q 1269 758 1284 770 q 1218 745 1253 745 l 618 745 m 513 -65 q 461 -52 477 -65 q 445 -12 445 -39 q 461 28 445 15 q 513 41 477 41 l 955 41 q 1059 560 1013 251 q 1134 670 1076 670 q 1178 658 1164 670 q 1192 620 1192 646 l 1187 581 l 1058 41 l 1244 41 q 1310 -12 1310 41 q 1244 -65 1310 -65 l 513 -65 m 736 130 q 694 149 709 130 q 673 206 678 167 l 644 378 l 601 582 q 614 619 601 608 q 656 631 627 631 q 726 530 701 631 q 762 366 731 506 l 772 320 q 792 187 792 225 q 779 144 792 157 q 736 130 765 130 z "},"擇":{"ha":1389,"x_min":75,"x_max":1316,"o":"m 165 -123 q 107 -66 107 -123 q 165 -11 107 -11 l 206 -11 q 256 39 254 -11 l 256 331 l 225 320 l 164 302 l 130 296 q 75 353 75 296 q 134 410 75 397 l 256 445 l 256 741 l 141 741 q 80 793 80 741 q 141 845 80 845 l 256 845 l 256 1050 q 308 1105 256 1105 q 348 1092 335 1105 q 361 1050 361 1078 l 361 845 l 433 845 q 492 792 492 845 q 433 741 492 741 l 361 741 l 361 479 q 411 491 396 491 q 461 442 461 491 q 415 387 461 406 l 361 366 l 361 11 q 225 -123 372 -130 l 165 -123 m 883 -136 q 831 -81 831 -136 l 831 42 l 551 42 q 496 90 496 42 q 551 136 496 136 l 831 136 l 831 222 l 521 222 q 465 269 465 222 q 521 315 465 315 l 667 315 l 644 420 l 521 420 q 465 467 465 420 q 521 513 465 513 l 831 513 l 831 591 l 581 591 q 525 637 525 591 q 581 684 525 684 l 831 684 l 831 755 l 618 755 q 518 857 518 755 l 518 960 q 618 1061 518 1061 l 1172 1061 q 1271 960 1271 1061 l 1271 857 q 1246 781 1271 807 q 1172 755 1221 755 l 937 755 l 937 684 l 1184 684 q 1241 637 1241 684 q 1184 591 1241 591 l 937 591 l 937 513 l 1261 513 q 1316 467 1316 513 q 1261 420 1316 420 l 1139 420 l 1111 315 l 1253 315 q 1309 269 1309 315 q 1253 222 1309 222 l 937 222 l 937 136 l 1208 136 q 1265 88 1265 136 q 1208 42 1265 42 l 937 42 l 937 -81 q 883 -136 937 -136 m 735 975 l 643 975 q 612 944 612 975 l 612 873 q 619 850 612 857 q 643 841 627 842 l 735 841 l 735 975 m 954 841 l 954 975 l 826 975 l 826 841 l 954 841 m 1145 841 q 1177 873 1177 841 l 1177 944 q 1169 967 1177 960 q 1145 975 1161 974 l 1044 975 l 1044 841 l 1145 841 m 1009 315 l 1036 420 l 742 420 l 766 315 l 1009 315 z "},"敦":{"ha":1389,"x_min":75,"x_max":1314,"o":"m 1257 14 q 1314 -54 1314 -15 q 1294 -102 1314 -85 q 1255 -121 1271 -121 q 1141 -61 1219 -121 q 1008 64 1077 -12 q 848 -68 941 -9 q 718 -125 757 -125 q 663 -69 663 -125 q 719 -8 663 -33 q 944 155 849 47 q 833 666 844 335 q 774 583 800 612 q 732 555 749 555 q 689 590 697 555 q 602 556 667 556 l 248 556 q 170 579 195 556 q 144 651 144 602 l 144 731 q 248 826 144 830 l 597 826 q 674 803 648 826 q 700 731 700 780 l 700 642 l 713 659 q 894 1044 829 796 q 952 1107 910 1107 q 1009 1058 1009 1107 q 933 849 1009 1013 l 1260 849 q 1314 793 1314 849 q 1260 738 1314 738 l 1211 738 q 1076 152 1190 345 q 1257 14 1154 65 m 133 892 q 80 939 80 892 q 133 986 80 986 l 380 986 l 380 1051 q 434 1105 380 1105 q 486 1051 486 1105 l 486 986 l 735 986 q 788 939 788 986 q 735 892 788 892 l 133 892 m 594 709 q 562 742 594 741 l 282 742 q 250 709 252 742 l 250 673 q 282 640 250 643 l 562 640 q 594 673 594 640 l 594 709 m 1009 250 q 1103 738 1095 400 l 921 738 q 1009 250 944 381 m 741 205 q 729 176 741 186 q 692 160 718 165 q 522 136 662 155 l 465 127 l 465 7 q 435 -92 465 -61 q 339 -121 406 -123 l 262 -121 q 198 -69 198 -121 q 262 -16 198 -16 l 315 -16 q 363 33 362 -16 l 363 113 l 250 100 q 134 87 176 92 q 91 97 107 84 q 75 136 75 110 q 133 186 75 179 l 363 210 l 363 239 q 420 323 363 293 q 522 378 492 361 q 530 389 530 382 q 526 397 530 393 q 515 400 522 400 l 174 400 q 123 445 123 400 q 174 488 123 488 l 648 488 q 696 474 680 488 q 713 439 713 460 q 690 395 713 415 q 498 277 644 351 q 465 233 467 260 l 465 221 q 572 235 536 229 l 685 248 q 726 239 712 251 q 741 205 741 228 z "},"斯":{"ha":1389,"x_min":71,"x_max":1313,"o":"m 129 202 q 71 256 71 202 q 129 309 71 309 l 195 309 l 195 836 l 144 836 q 87 888 87 836 q 144 941 87 941 l 195 941 l 195 1050 q 248 1109 195 1109 q 302 1050 302 1109 l 302 941 l 533 941 l 533 1048 q 547 1094 533 1078 q 587 1109 562 1109 q 640 1048 640 1109 l 640 941 l 684 941 q 742 887 742 941 q 684 836 742 836 l 640 836 l 640 309 l 700 309 q 751 256 751 309 q 697 202 751 202 l 129 202 m 1123 -132 q 1066 -64 1066 -132 l 1066 555 l 892 555 q 873 218 892 334 q 804 -14 853 90 q 703 -118 754 -118 q 659 -104 673 -118 q 644 -58 644 -90 q 656 -28 644 -49 q 688 20 669 -7 q 754 170 732 87 q 783 370 777 255 q 788 716 788 473 l 788 901 q 833 1000 788 982 q 901 1015 849 1005 q 920 1019 910 1017 q 937 1021 929 1020 q 1180 1077 1130 1058 q 1238 1089 1211 1089 q 1297 1029 1297 1089 q 1260 982 1297 994 q 1141 954 1218 967 q 964 929 1044 936 q 892 878 899 922 l 892 665 l 1255 665 q 1313 610 1313 665 q 1255 555 1313 555 l 1180 555 l 1180 -64 q 1123 -132 1180 -132 m 533 727 l 533 836 l 302 836 l 302 727 l 533 727 m 533 522 l 533 629 l 302 629 l 302 522 l 533 522 m 533 309 l 533 425 l 302 425 l 302 309 l 533 309 m 613 -1 q 533 62 585 -1 l 513 84 q 484 133 484 113 q 536 182 484 182 q 616 133 564 182 q 667 52 667 83 q 613 -1 667 -1 m 127 -73 q 75 -16 75 -73 q 160 76 75 12 q 216 130 186 98 q 283 176 258 176 q 338 123 338 176 q 251 8 338 88 q 127 -73 161 -73 z "},"柬":{"ha":1389,"x_min":75,"x_max":1314,"o":"m 686 -134 q 631 -72 631 -134 l 631 237 q 366 23 533 129 q 130 -87 193 -87 q 75 -28 75 -87 q 126 33 75 12 q 566 300 376 127 l 309 300 q 212 330 243 300 q 184 426 182 361 l 184 643 q 214 741 184 709 q 309 769 244 772 l 631 769 l 631 869 l 149 869 q 84 924 84 869 q 149 975 84 975 l 631 975 l 631 1044 q 688 1105 631 1105 q 743 1044 743 1105 l 743 975 l 1238 975 q 1305 924 1305 975 q 1238 869 1305 869 l 743 869 l 743 769 l 1078 769 q 1175 739 1145 769 q 1203 643 1206 708 l 1203 426 q 1173 328 1203 359 q 1078 300 1143 297 l 803 300 q 1264 41 1013 107 q 1301 18 1289 34 q 1314 -19 1314 3 q 1256 -80 1314 -80 q 1078 -18 1208 -80 q 743 241 879 77 l 743 -72 q 686 -134 743 -134 m 631 677 l 349 677 q 297 625 300 677 l 297 444 q 349 392 297 395 l 631 392 l 631 677 m 1040 392 q 1092 444 1089 392 l 1092 625 q 1040 677 1092 674 l 743 677 l 743 392 l 1040 392 m 872 430 q 826 469 826 430 q 833 500 826 483 l 868 578 q 896 627 883 612 q 925 643 909 643 q 971 602 971 643 q 924 475 971 571 q 872 430 902 430 m 496 435 q 442 491 464 435 l 401 585 l 399 600 q 408 629 396 618 q 442 639 420 639 q 491 598 471 639 q 543 479 543 498 q 496 435 543 435 z "},"波":{"ha":1389,"x_min":92,"x_max":1309,"o":"m 1264 -14 q 1298 -33 1287 -22 q 1309 -62 1309 -43 q 1253 -125 1309 -125 q 1108 -79 1206 -125 q 918 50 1000 -26 q 763 -53 854 -5 q 571 -125 671 -100 q 548 -127 563 -127 q 510 -113 524 -127 q 496 -73 496 -98 q 548 -22 496 -38 q 709 40 631 3 q 838 117 788 77 q 745 234 791 168 q 673 357 700 300 q 666 382 666 373 q 696 423 666 408 q 719 429 707 429 q 764 397 747 429 q 833 290 791 347 q 914 193 876 233 q 1004 311 963 245 q 1067 435 1046 377 q 1070 452 1070 441 q 1061 471 1070 464 q 1036 479 1053 479 l 575 479 q 533 153 571 301 q 420 -99 495 5 q 373 -127 400 -127 q 340 -117 355 -127 q 319 -77 319 -100 q 332 -38 319 -57 q 435 208 401 69 q 469 532 468 347 l 471 788 q 597 916 471 924 l 807 916 l 807 1038 q 861 1101 807 1101 q 916 1038 916 1101 l 916 916 l 1177 916 q 1248 895 1222 916 q 1274 836 1274 873 q 1270 804 1274 821 q 1225 673 1252 732 q 1198 632 1213 644 q 1164 620 1184 620 q 1128 629 1142 620 q 1112 651 1115 637 q 1111 665 1111 655 q 1124 719 1111 688 q 1147 787 1134 741 q 1149 798 1149 791 q 1124 818 1149 818 l 916 818 l 916 574 l 1101 574 q 1173 552 1146 574 q 1200 494 1200 530 q 1196 465 1200 481 q 1112 275 1171 368 q 990 123 1053 182 q 1264 -14 1104 41 m 254 937 q 170 1016 170 981 q 228 1073 170 1073 q 334 1031 258 1073 q 408 952 408 989 q 350 891 408 891 q 290 918 334 891 l 254 937 m 807 818 l 617 818 q 587 807 598 818 q 576 776 576 796 l 576 574 l 807 574 l 807 818 m 197 593 q 125 634 148 616 q 103 670 103 652 q 163 728 103 728 q 292 680 190 728 q 350 613 350 652 q 294 552 350 552 q 235 575 277 552 l 197 593 m 288 373 q 328 361 313 373 q 343 324 343 349 q 283 130 343 297 q 201 -72 224 -33 q 152 -104 180 -104 q 92 -50 92 -104 q 104 -5 92 -34 q 228 313 172 140 q 288 373 247 373 z "},"灣":{"ha":1389,"x_min":84,"x_max":1318,"o":"m 481 444 q 441 487 441 444 l 441 704 l 328 693 q 298 703 308 692 q 288 734 288 713 q 370 773 288 773 l 411 827 l 346 880 q 310 911 320 901 q 300 929 300 921 q 336 971 300 971 q 362 962 345 971 q 422 1070 385 998 q 458 1101 438 1101 q 500 1065 500 1101 q 416 924 500 1035 l 457 888 l 521 985 q 568 1024 548 1024 q 609 985 609 1024 q 458 779 609 943 l 548 784 q 533 823 533 810 q 570 852 533 852 q 620 798 589 852 q 655 720 655 734 q 645 693 655 703 q 616 684 635 684 q 572 722 590 684 l 519 715 l 519 487 q 481 444 519 444 m 1134 444 q 1095 487 1095 444 l 1095 704 l 979 693 q 949 703 959 692 q 939 734 939 713 q 1023 773 939 773 l 1065 826 l 990 886 q 958 913 967 903 q 948 932 948 924 q 985 972 948 972 q 1009 964 998 972 l 1070 1078 q 1104 1101 1084 1101 q 1146 1065 1146 1101 q 1065 926 1146 1042 l 1109 887 l 1175 985 q 1199 1015 1188 1005 q 1222 1024 1210 1024 q 1263 985 1263 1024 q 1114 779 1263 940 l 1213 785 q 1199 823 1199 815 q 1234 852 1199 852 q 1289 791 1260 852 q 1305 755 1293 783 q 1318 720 1318 727 q 1308 693 1318 703 q 1280 684 1298 684 q 1237 724 1256 684 l 1173 715 l 1173 487 q 1134 444 1173 444 m 700 1016 q 661 1050 661 1016 q 670 1074 661 1065 q 697 1082 680 1082 l 890 1082 q 928 1048 928 1082 q 894 1016 928 1016 l 700 1016 m 244 926 q 168 958 221 926 q 109 1020 109 993 q 168 1077 109 1077 q 206 1065 175 1077 q 274 1027 250 1048 q 298 983 298 1006 q 244 926 298 926 m 665 907 q 628 940 628 907 q 665 974 628 974 l 910 974 q 948 940 948 974 q 910 907 948 907 l 665 907 m 700 802 q 661 836 661 802 q 696 868 661 868 l 891 868 q 928 836 928 868 q 895 802 928 802 l 700 802 m 700 697 q 661 730 661 697 q 696 762 661 762 l 891 762 q 928 730 928 762 q 895 697 928 697 l 700 697 m 222 578 q 142 612 201 578 q 84 674 84 646 q 142 731 84 731 q 186 716 156 731 l 214 705 q 278 635 278 682 q 222 578 278 578 m 609 488 q 566 544 579 488 l 553 593 l 548 621 l 544 639 q 551 662 540 654 q 583 670 563 670 q 628 609 608 670 l 648 528 q 609 488 648 488 m 1271 488 q 1226 549 1240 488 l 1207 639 q 1215 662 1204 654 q 1246 670 1226 670 q 1291 609 1271 670 l 1312 528 q 1271 488 1312 488 m 342 469 q 302 505 302 469 l 305 528 l 328 617 q 344 655 335 643 q 369 667 353 667 q 406 633 406 667 q 382 506 406 594 q 342 469 373 469 m 989 469 q 949 506 949 469 l 975 617 q 1015 667 986 667 q 1053 633 1053 667 q 1029 506 1053 587 q 989 469 1020 469 m 736 460 q 659 525 662 460 l 659 594 q 678 643 659 627 q 734 659 697 659 l 854 659 q 909 642 890 659 q 930 594 929 625 l 930 525 q 910 477 930 494 q 854 460 890 460 l 736 460 m 834 526 q 857 541 854 526 l 857 578 q 834 593 857 593 l 755 593 q 735 578 735 593 l 735 541 q 755 526 735 526 l 834 526 m 1009 -130 q 949 -79 949 -130 q 1013 -27 949 -27 l 1095 -30 q 1184 38 1184 -34 q 1165 53 1184 53 l 448 53 q 362 122 362 53 q 384 220 362 149 q 468 281 403 281 l 1126 281 q 1143 288 1138 281 q 1147 312 1147 294 q 1143 336 1147 330 q 1126 343 1138 342 l 416 343 q 369 384 369 343 q 416 425 369 425 l 1168 425 q 1256 343 1256 425 l 1256 281 q 1168 201 1256 201 l 500 201 q 472 152 472 201 q 494 136 472 136 l 1210 136 q 1298 64 1298 136 q 1251 -87 1298 -43 q 1009 -130 1203 -130 m 152 -99 q 91 -38 91 -99 q 102 -1 91 -27 q 218 343 172 164 q 275 396 233 396 q 331 339 331 396 q 270 122 331 305 q 199 -75 210 -58 q 152 -99 183 -99 z "},"無":{"ha":1389,"x_min":73,"x_max":1316,"o":"m 170 189 q 109 240 109 189 q 170 292 109 292 l 274 292 l 274 529 l 136 529 q 73 579 73 529 q 136 632 73 632 l 274 632 l 274 829 q 122 704 161 704 q 73 758 73 704 q 130 831 73 783 q 305 1043 228 916 q 384 1108 345 1108 q 438 1065 438 1108 q 388 971 438 1039 l 1218 971 q 1284 918 1284 971 q 1222 867 1284 867 l 1119 867 l 1119 632 l 1252 632 q 1316 579 1316 632 q 1252 529 1316 529 l 1119 529 l 1119 292 l 1219 292 q 1280 240 1280 292 q 1219 189 1280 189 l 170 189 m 521 632 l 521 867 l 376 867 l 376 632 l 521 632 m 766 632 l 766 867 l 621 867 l 621 632 l 766 632 m 1017 632 l 1017 867 l 868 867 l 868 632 l 1017 632 m 521 292 l 521 529 l 376 529 l 376 292 l 521 292 m 766 292 l 766 529 l 621 529 l 621 292 l 766 292 m 1017 292 l 1017 529 l 868 529 l 868 292 l 1017 292 m 1227 -121 q 1172 -80 1194 -121 q 1092 66 1115 30 q 1077 102 1077 90 q 1092 137 1077 126 q 1138 148 1107 148 q 1194 106 1164 148 q 1290 -60 1290 -31 q 1227 -121 1290 -121 m 159 -123 q 100 -68 100 -123 q 111 -39 100 -58 q 125 -15 122 -20 q 183 106 159 43 q 236 144 199 144 q 294 96 294 144 q 218 -80 294 42 q 159 -123 193 -123 m 873 -115 q 812 -58 829 -115 q 774 46 793 1 q 761 90 761 75 q 815 140 761 140 q 869 99 849 140 q 930 -57 930 -27 q 873 -115 930 -115 m 557 -117 q 498 -66 509 -117 l 464 79 q 518 130 464 130 q 578 69 555 130 q 614 -60 614 -28 q 557 -117 614 -117 z "},"特":{"ha":1389,"x_min":75,"x_max":1312,"o":"m 362 -133 q 309 -71 309 -133 l 309 282 q 129 228 160 228 q 75 282 75 228 q 145 345 75 328 l 309 392 l 309 707 l 214 707 q 182 513 203 576 q 129 449 161 449 q 79 494 79 449 l 84 524 q 129 879 119 651 q 180 963 133 963 q 229 914 229 963 l 220 810 l 309 810 l 309 1044 q 362 1105 309 1105 q 415 1044 415 1105 l 415 810 l 492 810 q 544 757 544 810 q 492 707 544 707 l 415 707 l 415 426 q 491 450 479 450 q 538 401 538 450 q 509 357 538 369 l 415 319 l 415 -71 q 362 -133 415 -133 m 922 -126 q 852 -71 852 -126 q 922 -14 852 -14 l 966 -14 q 1027 47 1029 -14 l 1027 324 l 627 324 q 566 374 566 324 q 627 425 566 425 l 1027 425 l 1027 578 l 589 578 q 525 627 525 578 q 589 677 525 677 l 841 677 l 841 838 l 627 838 q 581 850 595 838 q 566 887 566 861 q 581 925 566 913 q 627 937 595 937 l 841 937 l 841 1031 q 895 1099 841 1099 q 949 1031 949 1099 l 949 937 l 1181 937 q 1227 925 1213 937 q 1242 887 1242 913 q 1227 850 1242 861 q 1181 838 1213 838 l 949 838 l 949 677 l 1249 677 q 1297 665 1282 677 q 1312 627 1312 652 q 1249 578 1312 578 l 1135 578 l 1135 425 l 1225 425 q 1286 374 1286 425 q 1225 324 1286 324 l 1135 324 l 1135 23 q 1100 -91 1135 -52 q 987 -126 1066 -129 l 922 -126 m 781 49 q 724 90 750 49 l 684 149 q 656 192 667 174 q 646 217 646 210 q 701 263 646 263 q 784 197 731 263 q 837 100 837 127 q 781 49 837 49 z "},"科":{"ha":1389,"x_min":73,"x_max":1310,"o":"m 1095 -129 q 1040 -69 1040 -129 l 1040 251 l 616 165 q 563 220 563 165 q 616 273 563 263 l 1040 359 l 1040 1042 q 1095 1103 1040 1103 q 1147 1042 1147 1103 l 1147 381 l 1236 400 l 1263 403 q 1310 353 1310 407 q 1297 316 1310 330 q 1257 296 1284 302 l 1147 271 l 1147 -69 q 1095 -129 1147 -129 m 376 -133 q 323 -75 323 -133 l 323 450 q 222 214 288 334 q 122 96 159 96 q 73 161 73 96 q 104 224 73 182 q 311 643 237 404 l 141 643 q 77 697 77 643 q 141 750 77 750 l 323 750 l 323 935 q 146 917 171 917 q 91 971 91 917 q 113 1006 91 994 q 180 1021 136 1019 q 525 1082 389 1038 q 560 1090 548 1090 q 613 1035 613 1090 q 430 951 613 982 l 430 750 l 557 750 q 620 696 620 750 q 557 643 620 643 l 430 643 l 430 500 q 465 521 442 521 q 504 500 479 521 q 559 442 529 480 q 624 339 624 361 q 571 286 624 286 q 534 311 551 286 q 479 388 509 350 q 430 456 445 430 l 430 -75 q 376 -133 430 -133 m 890 791 q 830 823 869 791 q 730 903 789 857 q 696 954 696 929 q 751 1005 696 1005 q 864 941 776 1005 q 949 845 949 880 q 890 791 949 791 m 854 469 q 788 509 831 469 q 703 578 747 548 q 658 635 658 609 q 715 685 658 685 q 793 646 738 685 q 880 578 842 610 q 913 525 913 549 q 854 469 913 469 z "},"羅":{"ha":1389,"x_min":73,"x_max":1312,"o":"m 245 762 q 142 863 142 762 l 142 956 q 245 1059 142 1059 l 1142 1059 q 1245 956 1245 1059 l 1245 863 q 1142 762 1245 762 l 245 762 m 475 971 l 285 971 q 250 936 250 971 l 250 882 q 285 846 250 848 l 475 846 l 475 971 m 800 846 l 800 971 l 575 971 l 575 846 l 800 846 m 1103 846 q 1139 882 1139 846 l 1139 936 q 1103 971 1139 970 l 902 971 l 902 846 l 1103 846 m 335 -137 q 285 -81 285 -137 l 285 285 l 250 281 l 125 271 q 87 283 100 270 q 73 320 73 296 q 167 370 73 370 l 218 372 l 266 431 l 250 445 l 146 518 q 87 585 87 560 q 134 632 87 632 q 182 612 152 632 l 182 610 l 251 719 q 304 754 274 754 q 342 742 328 754 q 355 708 355 730 q 254 557 355 675 l 323 505 q 423 654 370 570 q 476 686 445 686 q 529 635 529 686 q 468 536 529 612 l 331 376 l 339 377 l 357 377 l 463 382 q 441 437 441 429 q 452 465 441 454 q 484 475 464 475 q 553 397 510 475 q 594 297 594 326 q 582 264 594 275 q 547 254 570 254 q 492 309 515 254 l 387 294 l 387 -81 q 335 -137 387 -137 m 762 -99 q 656 7 656 -99 l 656 454 q 590 403 613 403 q 545 448 545 403 q 587 517 545 469 q 713 709 663 602 q 766 753 735 753 q 821 711 821 753 q 757 593 821 689 l 947 593 l 994 688 q 1023 734 1009 719 q 1054 749 1038 749 q 1108 705 1108 749 q 1051 593 1108 678 l 1249 593 q 1299 548 1299 593 q 1249 503 1299 503 l 1043 503 l 1043 395 l 1213 395 q 1260 353 1260 395 q 1213 311 1260 311 l 1043 311 l 1043 195 l 1213 195 q 1260 153 1260 195 q 1213 111 1260 111 l 1043 111 l 1043 -9 l 1261 -9 q 1312 -54 1312 -9 q 1261 -99 1312 -99 l 762 -99 m 951 503 l 776 503 q 753 480 753 503 l 753 395 l 951 395 l 951 503 m 951 195 l 951 311 l 753 311 l 753 195 l 951 195 m 533 -35 q 492 -16 506 -35 q 467 103 484 -4 l 449 193 q 458 224 445 213 q 495 235 472 235 q 560 136 532 235 q 585 14 585 52 q 533 -35 585 -35 m 122 -62 q 75 -12 75 -62 q 92 46 75 -3 q 122 157 115 109 q 174 229 133 229 q 218 183 218 229 q 194 37 218 121 q 122 -62 165 -62 m 951 111 l 753 111 l 753 30 q 792 -9 753 -8 l 951 -9 l 951 111 z "},"美":{"ha":1389,"x_min":76,"x_max":1313,"o":"m 144 449 q 87 498 87 449 q 144 547 87 547 l 633 547 l 633 652 l 259 652 q 205 700 205 652 q 259 746 205 746 l 633 746 l 633 846 l 175 846 q 121 895 121 846 q 175 944 121 944 l 444 944 l 404 1008 q 382 1054 382 1043 q 438 1100 382 1100 q 563 944 484 1100 l 804 944 l 852 1040 q 884 1089 868 1073 q 920 1105 901 1105 q 977 1057 977 1105 q 917 947 977 1042 l 914 944 l 1213 944 q 1268 895 1268 944 q 1213 846 1268 846 l 742 846 l 742 746 l 1130 746 q 1184 700 1184 746 q 1130 652 1184 652 l 742 652 l 742 547 l 1244 547 q 1299 498 1299 547 q 1244 449 1299 449 l 144 449 m 1246 -9 q 1296 -27 1279 -12 q 1313 -64 1313 -42 q 1245 -123 1313 -123 q 936 -35 1104 -123 q 686 186 768 53 l 684 184 q 500 -9 620 69 q 168 -123 382 -87 l 137 -127 q 92 -116 107 -132 q 76 -69 76 -100 q 85 -39 76 -50 q 114 -22 94 -27 l 175 -11 q 583 213 477 30 l 160 213 q 99 262 99 213 q 160 312 99 312 l 618 312 l 627 373 q 680 438 635 438 q 734 387 734 438 l 726 312 l 1227 312 q 1289 262 1289 312 q 1227 213 1289 213 l 777 213 q 1246 -9 925 19 z "},"芝":{"ha":1389,"x_min":77,"x_max":1312,"o":"m 457 739 q 406 791 406 739 l 406 869 l 146 869 q 87 920 87 869 q 101 956 87 944 q 146 968 115 968 l 406 968 l 406 1051 q 457 1103 406 1103 q 509 1051 509 1103 l 509 968 l 869 968 l 869 1051 q 920 1103 869 1103 q 971 1051 971 1103 l 971 968 l 1241 968 q 1302 918 1302 968 q 1241 869 1302 869 l 971 869 l 971 791 q 959 751 971 764 q 920 739 947 739 q 882 751 894 739 q 869 791 869 764 l 869 869 l 509 869 l 509 791 q 457 739 509 739 m 138 -88 q 94 -72 114 -91 q 77 -33 77 -56 q 117 35 77 -11 q 263 266 208 140 q 315 309 282 309 q 366 260 350 309 q 401 176 385 205 q 831 403 671 301 q 1013 537 1013 517 q 1000 548 1013 548 l 235 548 q 174 598 174 548 q 235 648 174 648 l 632 648 l 632 761 q 686 819 632 819 q 742 761 742 819 l 742 648 l 1095 648 q 1199 581 1199 648 q 1157 508 1199 555 q 1028 403 1115 461 q 598 159 792 243 l 469 102 q 549 58 509 73 q 640 37 589 43 q 947 20 738 24 l 1107 19 l 1245 23 q 1312 -34 1312 24 q 1236 -90 1312 -90 l 1006 -87 q 537 -41 677 -83 q 315 164 388 5 q 259 54 279 91 q 189 -50 221 -15 q 138 -88 156 -85 z "},"英":{"ha":1389,"x_min":77,"x_max":1312,"o":"m 460 736 q 421 751 434 736 q 408 798 408 765 l 408 865 l 146 865 q 101 878 115 865 q 87 914 87 890 q 101 951 87 939 q 146 963 115 963 l 408 963 l 408 1043 q 460 1104 408 1104 q 511 1043 511 1104 l 511 963 l 868 963 l 868 1043 q 880 1089 868 1074 q 920 1104 892 1104 q 970 1043 970 1104 l 970 963 l 1241 963 q 1302 914 1302 963 q 1241 865 1302 865 l 970 865 l 970 798 q 958 751 970 765 q 920 736 945 736 q 880 751 892 736 q 868 798 868 765 l 868 865 l 511 865 l 511 798 q 498 751 511 765 q 460 736 486 736 m 144 -125 q 100 -112 115 -127 q 85 -65 85 -96 q 105 -26 85 -42 q 163 -4 125 -9 q 587 258 510 43 l 137 258 q 77 305 77 258 q 137 354 77 354 l 244 354 l 244 556 q 272 648 244 618 q 362 674 300 677 l 624 674 l 624 732 q 678 811 624 811 q 732 738 732 811 l 731 674 l 1025 674 q 1118 646 1089 674 q 1143 556 1147 617 l 1143 354 l 1251 354 q 1312 305 1312 354 q 1251 258 1312 258 l 758 258 q 1221 3 875 65 q 1282 -20 1261 -4 q 1303 -57 1303 -37 q 1241 -122 1303 -122 q 1009 -61 1160 -122 q 682 216 781 31 l 677 216 q 505 3 620 79 q 176 -121 393 -72 l 144 -125 m 1034 529 q 983 578 1034 582 l 728 578 q 713 354 722 416 l 1034 354 l 1034 529 m 612 354 q 623 578 621 425 l 404 578 q 366 566 378 578 q 354 529 354 555 l 354 354 l 612 354 z "},"莫":{"ha":1389,"x_min":73,"x_max":1314,"o":"m 480 799 q 426 850 426 799 l 426 901 l 138 901 q 83 949 83 901 q 138 998 83 998 l 426 998 l 426 1055 q 480 1105 426 1105 q 533 1055 533 1105 l 533 998 l 844 998 l 844 1055 q 898 1105 844 1105 q 952 1055 952 1105 l 952 998 l 1249 998 q 1306 949 1306 998 q 1249 901 1306 901 l 952 901 l 952 850 q 898 799 952 799 q 844 850 844 799 l 844 901 l 533 901 l 533 850 q 480 799 533 799 m 140 -126 q 90 -114 107 -129 q 73 -69 73 -99 q 151 -16 73 -23 q 589 165 505 16 l 138 165 q 83 216 83 165 q 138 264 83 264 l 623 264 l 628 345 l 339 345 q 214 467 206 345 l 214 663 q 336 785 205 785 l 1051 785 q 1175 663 1187 785 l 1175 467 q 1145 374 1175 404 q 1051 345 1115 345 l 736 345 l 724 264 l 1249 264 q 1306 216 1306 264 q 1249 165 1306 168 l 768 165 q 1238 -7 879 22 q 1314 -60 1314 -12 q 1246 -123 1314 -123 q 1047 -91 1195 -123 q 682 134 792 -34 q 524 -28 629 28 q 187 -122 414 -88 l 140 -126 m 1061 652 q 1016 696 1061 693 l 372 696 q 327 652 330 696 l 327 610 l 1061 610 l 1061 652 m 1016 434 q 1061 477 1058 434 l 1061 524 l 327 524 l 327 477 q 372 434 327 437 l 1016 434 z "},"西":{"ha":1389,"x_min":79,"x_max":1310,"o":"m 861 921 l 861 726 l 1115 726 q 1221 693 1188 726 q 1249 591 1255 661 l 1249 56 q 1115 -79 1259 -83 l 274 -79 q 167 -46 199 -79 q 140 56 134 -14 l 140 591 q 168 693 134 661 q 274 726 201 726 l 476 726 l 476 921 l 144 921 q 94 933 110 921 q 79 972 79 945 q 94 1013 79 1000 q 144 1025 110 1025 l 1244 1025 q 1310 972 1310 1025 q 1244 921 1310 921 l 861 921 m 757 726 l 757 921 l 578 921 l 578 726 l 757 726 m 859 621 l 859 334 q 933 301 859 301 q 996 370 994 301 q 1043 433 997 433 q 1089 388 1089 433 q 1015 212 1089 231 q 922 203 985 203 q 788 224 815 203 q 760 283 760 245 l 760 621 l 572 621 q 533 354 567 446 q 446 227 506 283 q 353 175 393 175 q 317 188 328 175 q 305 229 305 201 q 345 288 305 260 q 438 395 401 326 q 476 621 471 454 l 315 621 q 252 559 252 621 l 252 90 q 315 26 252 26 l 1074 26 q 1137 90 1137 26 l 1137 559 q 1122 605 1137 589 q 1077 621 1107 621 l 859 621 z "},"買":{"ha":1389,"x_min":75,"x_max":1314,"o":"m 240 742 q 148 769 176 742 q 125 857 119 796 l 125 943 q 240 1059 115 1066 l 1147 1059 q 1240 1031 1211 1059 q 1264 943 1270 1004 l 1264 857 q 1147 742 1274 734 l 240 742 m 465 972 l 269 972 q 228 930 231 972 l 228 869 q 269 829 228 831 l 465 829 l 465 972 m 807 829 l 807 972 l 566 972 l 566 829 l 807 829 m 1119 829 q 1160 869 1160 829 l 1160 930 q 1119 972 1160 971 l 907 972 l 907 829 l 1119 829 m 312 81 q 186 208 174 81 l 186 544 q 307 670 176 670 l 1076 670 q 1202 544 1214 670 l 1202 208 q 1081 81 1213 81 l 312 81 m 1090 536 q 1038 583 1090 586 l 350 583 q 310 572 323 583 q 298 536 297 560 l 298 502 l 1090 502 l 1090 536 m 1090 336 l 1090 420 l 298 420 l 298 336 l 1090 336 m 1038 168 q 1090 217 1092 168 l 1090 255 l 298 255 l 298 217 q 350 168 298 167 l 1038 168 m 130 -133 q 75 -77 75 -133 q 183 -16 75 -35 q 429 47 300 3 q 486 61 469 61 q 543 7 543 61 q 500 -33 543 -12 q 370 -81 458 -54 q 130 -133 203 -133 m 1256 -130 q 1009 -79 1173 -130 q 841 8 841 -26 q 910 60 841 60 q 958 50 928 60 q 1245 -18 1077 11 q 1297 -37 1280 -24 q 1314 -69 1314 -49 q 1256 -130 1314 -130 z "},"選":{"ha":1389,"x_min":73,"x_max":1312,"o":"m 353 899 q 323 909 345 899 q 298 922 302 920 l 209 968 q 161 1025 161 993 q 213 1078 161 1078 q 320 1039 231 1078 q 384 999 362 1020 q 406 956 406 978 q 353 899 406 899 m 650 625 q 502 635 534 625 q 463 660 475 643 q 450 705 450 677 l 450 970 q 468 1031 450 1008 q 549 1055 486 1055 l 713 1055 q 821 967 821 1055 l 821 895 q 795 831 821 853 q 720 807 769 808 l 553 806 l 553 741 q 563 716 553 722 q 613 708 579 708 q 723 716 712 708 q 742 751 734 724 q 793 780 750 780 q 833 769 819 780 q 848 739 848 758 q 800 644 848 671 q 650 625 765 625 m 1077 625 q 917 635 955 625 q 880 659 892 640 q 867 705 867 677 l 867 970 q 971 1055 867 1055 l 1152 1055 q 1232 1034 1206 1055 q 1259 964 1259 1012 l 1259 895 q 1233 831 1259 853 q 1158 807 1207 808 l 966 806 l 966 742 q 1001 709 966 713 l 1086 708 q 1184 731 1176 705 q 1246 780 1202 780 q 1286 769 1272 780 q 1301 738 1301 758 q 1264 652 1301 680 q 1077 625 1225 625 m 685 886 q 720 916 718 886 l 720 947 q 685 972 720 972 l 589 972 q 553 944 553 972 l 553 886 l 685 886 m 1124 886 q 1158 916 1156 886 l 1158 947 q 1124 972 1158 972 l 1005 972 q 968 944 968 972 l 968 886 l 1124 886 m 298 647 q 252 665 282 647 l 140 713 q 98 766 98 732 q 151 819 98 819 q 263 781 172 819 q 351 703 351 743 q 298 647 351 647 m 435 251 q 389 298 389 251 q 435 345 389 345 l 623 345 l 623 434 l 481 434 q 435 479 435 434 q 481 524 435 524 l 623 524 l 623 560 q 636 597 623 585 q 675 610 650 610 q 715 597 701 610 q 730 560 730 585 l 730 524 l 947 524 l 947 560 q 1000 610 947 610 q 1051 560 1051 610 l 1051 524 l 1195 524 q 1241 479 1241 524 q 1195 434 1241 434 l 1051 434 l 1051 345 l 1244 345 q 1279 332 1267 345 q 1291 297 1291 320 q 1279 263 1291 275 q 1244 251 1267 251 l 435 251 m 814 -91 q 471 -64 571 -91 q 305 28 372 -37 l 302 30 q 130 -84 171 -84 q 77 -22 77 -84 q 138 46 77 22 q 245 102 171 58 l 245 353 q 203 395 245 395 l 130 395 q 73 445 73 395 q 130 494 73 494 l 236 494 q 321 469 294 494 q 346 389 349 444 l 346 114 l 384 79 q 779 8 472 8 l 1260 14 q 1312 -37 1312 14 q 1233 -92 1312 -92 l 814 -91 m 947 345 l 947 434 l 730 434 l 730 345 l 947 345 m 1222 45 q 1047 99 1172 45 q 920 187 920 155 q 972 239 920 239 q 1013 227 986 239 q 1195 161 1095 190 q 1279 98 1279 138 q 1222 45 1279 45 m 484 64 q 435 117 435 64 q 481 164 435 155 l 610 203 l 693 235 l 704 236 q 741 226 728 239 q 753 187 753 213 q 725 151 753 170 q 637 107 697 132 q 484 64 529 64 z "},"邊":{"ha":1389,"x_min":75,"x_max":1310,"o":"m 461 427 q 415 472 415 427 l 415 534 q 507 625 415 625 l 783 625 l 783 670 l 581 670 q 513 692 537 670 q 490 755 490 713 l 490 954 q 513 1017 490 996 q 581 1039 536 1039 l 749 1039 l 758 1062 q 814 1112 779 1112 q 850 1102 837 1112 q 861 1074 863 1092 q 845 1039 861 1066 l 1116 1039 q 1207 954 1207 1039 l 1207 755 q 1184 692 1207 713 q 1116 670 1161 670 l 880 670 l 880 625 l 1196 625 q 1287 536 1287 625 l 1287 480 q 1241 434 1287 434 q 1194 480 1194 434 l 1194 522 q 1158 556 1194 553 l 975 556 l 975 498 q 987 485 975 490 q 1019 480 998 480 l 1047 480 q 1084 510 1077 480 q 1095 531 1086 525 q 1122 537 1104 537 q 1161 503 1161 537 q 1141 442 1161 464 q 1090 419 1120 420 l 1038 418 l 994 419 q 921 430 943 422 q 894 473 895 441 l 894 556 l 769 556 q 568 399 743 399 q 538 407 548 399 q 529 434 529 415 q 566 468 529 461 q 656 501 629 480 q 689 556 684 522 l 545 556 q 509 519 511 556 l 509 472 q 461 427 509 427 m 212 967 q 161 1025 161 993 q 213 1078 161 1078 q 320 1039 231 1078 q 384 999 362 1020 q 406 956 406 978 q 353 899 406 899 q 282 930 338 899 l 212 967 m 585 930 l 1109 930 l 1109 949 q 1104 968 1109 963 q 1085 975 1099 974 l 610 975 q 591 969 597 975 q 585 949 585 963 l 585 930 m 585 873 l 585 833 l 1109 833 l 1109 873 l 585 873 m 136 715 q 107 734 117 720 q 98 766 98 749 q 151 819 98 819 q 263 781 172 819 q 351 703 351 743 q 298 647 351 647 q 237 671 282 647 q 136 715 186 700 m 585 760 q 591 741 585 747 q 610 734 597 735 l 1085 734 q 1109 760 1109 734 l 1109 776 l 585 776 l 585 760 m 1259 12 q 1310 -37 1310 12 q 1233 -91 1310 -91 q 1023 -91 1128 -91 q 814 -90 918 -91 q 471 -62 556 -87 q 305 30 370 -34 l 302 31 q 130 -83 170 -83 q 77 -28 77 -83 q 92 15 77 -3 q 138 45 107 33 l 236 95 l 236 353 q 225 385 236 373 q 193 396 214 396 l 126 396 q 87 408 99 396 q 75 445 75 419 q 87 481 75 469 q 126 492 99 492 l 225 492 q 311 468 285 492 q 334 389 336 444 l 334 126 q 419 56 376 75 q 694 9 518 11 l 888 8 q 1244 12 1044 8 l 1259 12 m 784 302 l 774 256 l 1111 256 q 1184 194 1184 256 q 1128 60 1184 90 q 952 30 1073 30 q 906 68 906 30 q 960 106 906 106 q 1069 118 1047 106 q 1090 168 1090 130 q 1066 186 1090 186 l 746 186 q 637 85 708 121 q 506 49 563 49 q 464 92 464 49 q 502 132 464 123 q 690 302 667 171 l 481 302 q 439 338 439 302 q 481 373 439 373 l 780 373 l 780 430 q 829 471 780 471 q 876 430 876 471 l 876 373 l 1225 373 q 1268 338 1268 373 q 1225 302 1268 302 l 784 302 z "},"里":{"ha":1389,"x_min":80,"x_max":1309,"o":"m 1246 33 q 1309 -18 1309 33 q 1246 -68 1309 -68 l 141 -68 q 80 -18 80 -68 q 141 33 80 33 l 629 33 l 629 203 l 218 203 q 159 254 159 203 q 173 290 159 278 q 218 302 187 302 l 629 302 l 629 437 l 301 437 q 174 571 165 437 l 174 911 q 205 1015 174 982 q 305 1046 236 1047 l 1085 1046 q 1188 1013 1156 1046 q 1217 911 1221 979 l 1217 571 q 1187 469 1217 502 q 1090 437 1157 437 l 735 437 l 735 302 l 1171 302 q 1230 252 1230 302 q 1216 216 1230 228 q 1171 203 1202 203 l 735 203 l 735 33 l 1246 33 m 278 792 l 629 792 l 629 947 l 338 947 q 278 887 278 947 l 278 792 m 735 792 l 1111 792 l 1111 887 q 1051 947 1111 947 l 735 947 l 735 792 m 629 534 l 629 693 l 278 693 l 278 595 q 338 534 278 534 l 629 534 m 735 534 l 1051 534 q 1111 595 1111 534 l 1111 693 l 735 693 l 735 534 z "},"金":{"ha":1389,"x_min":77,"x_max":1312,"o":"m 1312 624 q 1251 563 1312 563 q 1031 661 1191 563 q 1032 647 1032 656 q 970 595 1032 595 l 738 595 l 738 434 l 1165 434 q 1227 382 1227 434 q 1165 332 1227 332 l 738 332 l 738 20 l 1213 20 q 1260 8 1245 20 q 1275 -31 1275 -4 q 1260 -69 1275 -57 q 1213 -81 1245 -81 l 175 -81 q 114 -31 114 -81 q 129 8 114 -4 q 175 20 144 20 l 631 20 l 631 332 l 222 332 q 160 382 160 332 q 222 434 160 434 l 631 434 l 631 595 l 416 595 q 368 608 384 595 q 353 647 353 620 q 355 665 353 654 q 130 551 184 551 q 77 608 77 551 q 95 647 77 633 q 140 671 107 655 q 187 694 157 678 q 609 1036 452 829 q 658 1093 637 1076 q 694 1111 678 1111 q 737 1097 722 1111 q 753 1061 753 1084 q 742 1025 753 1050 q 930 856 834 922 q 1240 692 1112 732 q 1312 624 1312 670 m 975 697 q 682 945 802 815 l 680 945 q 401 697 555 806 l 410 697 l 975 697 m 968 235 q 996 279 981 264 q 1032 294 1012 294 q 1090 244 1090 294 q 1053 140 1090 225 q 1015 75 1034 96 q 974 53 997 53 q 917 106 917 53 q 932 149 917 125 l 968 235 m 281 228 l 278 245 q 290 279 275 267 q 332 292 305 292 q 408 213 372 292 q 445 114 445 136 q 389 60 445 60 q 328 117 347 60 l 281 228 z "},"門":{"ha":1389,"x_min":138,"x_max":1268,"o":"m 190 -129 q 151 -114 164 -129 q 138 -66 138 -99 l 138 936 q 166 1027 138 998 q 256 1054 194 1057 l 522 1054 q 607 1028 581 1054 q 631 943 633 1002 l 631 637 q 606 554 631 581 q 522 528 581 528 l 241 528 l 241 -66 q 190 -129 241 -129 m 1015 -125 q 967 -112 982 -125 q 952 -71 952 -99 q 967 -28 952 -42 q 1015 -15 982 -15 l 1099 -15 q 1145 1 1128 -15 q 1161 47 1161 18 l 1161 528 l 864 528 q 779 555 806 528 q 754 637 751 582 l 754 943 q 781 1030 754 1004 q 864 1054 807 1057 l 1146 1054 q 1239 1025 1210 1054 q 1264 936 1268 997 l 1264 15 q 1231 -96 1264 -62 q 1124 -125 1198 -130 l 1015 -125 m 532 902 q 522 947 532 936 q 479 958 511 958 l 300 958 q 253 945 264 958 q 241 898 241 933 l 241 841 l 532 841 l 532 902 m 1161 898 q 1149 945 1161 933 q 1101 958 1137 958 l 907 958 q 864 947 875 958 q 853 902 853 936 l 853 841 l 1161 841 l 1161 898 m 479 623 q 522 633 511 623 q 532 675 532 643 l 532 745 l 241 745 l 241 623 l 479 623 m 1161 745 l 853 745 l 853 675 q 864 633 853 643 q 907 623 875 623 l 1161 623 l 1161 745 z "},"頓":{"ha":1389,"x_min":72,"x_max":1314,"o":"m 484 -14 q 362 3 396 -14 q 328 71 328 18 l 328 289 l 245 289 q 130 403 130 289 l 130 692 q 180 746 130 746 q 229 692 229 746 l 229 431 q 273 388 229 391 l 328 388 l 328 826 q 127 803 159 803 q 72 859 72 803 q 151 907 72 903 q 328 928 235 913 l 328 1057 q 377 1108 328 1108 q 426 1057 426 1108 l 426 945 q 536 979 468 955 q 578 990 567 990 q 633 935 633 990 q 575 878 633 894 q 426 841 496 854 l 426 388 l 487 388 q 529 431 526 388 l 529 704 q 578 755 529 755 q 627 704 627 755 l 627 403 q 514 289 627 289 l 426 289 l 426 113 q 461 87 426 87 q 552 96 534 87 q 572 156 568 106 q 624 214 576 214 q 671 167 671 214 q 640 30 671 66 q 484 -14 604 -14 m 812 136 q 707 241 707 136 l 707 720 q 812 827 707 827 l 878 827 l 895 947 l 703 947 q 644 996 644 947 q 703 1044 644 1044 l 1251 1044 q 1310 996 1310 1044 q 1251 947 1310 947 l 1010 947 l 981 827 l 1137 827 q 1221 802 1195 827 q 1244 719 1246 776 l 1244 243 q 1218 159 1244 184 q 1137 136 1192 133 l 812 136 m 1142 693 q 1100 735 1142 734 l 846 735 q 806 694 808 735 l 806 635 l 1142 635 l 1142 693 m 1142 439 l 1142 543 l 806 543 l 806 439 l 1142 439 m 1100 228 q 1131 238 1122 228 q 1142 270 1141 248 l 1142 347 l 806 347 l 806 269 q 846 228 806 228 l 1100 228 m 624 -125 q 575 -69 575 -125 q 627 -15 575 -38 q 803 94 712 20 q 853 117 831 117 q 905 68 905 117 q 788 -49 905 28 q 624 -125 673 -125 m 1260 -122 q 1208 -102 1241 -122 q 1123 -43 1175 -83 q 1024 68 1024 34 q 1077 117 1024 117 q 1126 90 1095 117 q 1274 -12 1192 34 q 1314 -66 1314 -35 q 1260 -122 1314 -122 z "},"¹":{"ha":502,"x_min":104,"x_max":425,"o":"m 146 419 q 117 431 129 419 q 106 460 106 442 q 117 490 106 477 q 146 502 129 502 l 227 502 l 227 857 l 167 829 q 146 823 155 823 q 117 836 130 823 q 104 865 104 848 q 112 888 104 878 q 132 905 119 899 l 229 955 q 256 962 245 962 q 299 944 282 962 q 316 902 316 926 l 316 502 l 382 502 q 412 490 400 502 q 425 460 425 477 q 412 431 425 442 q 382 419 400 419 l 146 419 z "},"²":{"ha":502,"x_min":50,"x_max":445,"o":"m 104 419 q 66 436 81 419 q 50 475 50 453 q 88 567 50 528 q 220 666 126 606 q 320 738 286 708 q 351 798 351 764 q 324 857 351 836 q 247 878 297 878 q 118 848 172 878 q 100 844 110 844 q 73 854 84 844 q 61 883 61 865 q 81 918 61 906 q 258 963 156 963 q 387 918 335 963 q 439 803 439 872 q 412 716 439 755 q 353 652 387 680 q 248 578 319 624 q 180 532 202 548 q 148 502 159 515 l 403 502 q 433 490 420 502 q 445 460 445 477 q 433 431 445 442 q 403 419 420 419 l 104 419 z "},"³":{"ha":502,"x_min":47,"x_max":438,"o":"m 239 411 q 72 445 132 411 q 54 460 61 450 q 47 483 47 471 q 60 511 47 499 q 88 524 72 524 l 98 522 l 103 521 q 170 503 145 509 q 227 498 195 498 q 318 516 286 498 q 350 567 350 534 q 199 650 350 650 l 184 650 q 155 662 167 650 q 142 692 142 674 q 155 722 142 709 q 184 734 167 734 l 191 734 q 295 753 258 734 q 332 811 332 772 q 304 861 332 845 q 228 878 275 878 q 111 852 163 878 q 94 848 103 848 q 66 859 77 848 q 54 886 54 869 q 81 922 54 907 q 233 963 159 963 q 370 925 321 963 q 419 818 419 887 q 397 741 419 772 q 338 696 374 711 q 412 646 387 681 q 438 564 438 612 q 387 454 438 496 q 239 411 336 411 z "},"½":{"ha":1263,"x_min":104,"x_max":1206,"o":"m 351 -34 q 317 -20 331 -34 q 304 14 304 -7 q 311 38 304 22 l 872 964 q 911 983 884 983 q 945 970 932 983 q 959 936 959 956 q 952 911 959 928 l 391 -15 q 351 -34 378 -34 m 146 419 q 117 431 129 419 q 106 460 106 442 q 117 490 106 477 q 146 502 129 502 l 227 502 l 227 857 l 167 829 q 146 823 155 823 q 117 836 130 823 q 104 865 104 848 q 112 888 104 878 q 132 905 119 899 l 229 955 q 256 962 245 962 q 299 944 282 962 q 316 902 316 926 l 316 502 l 382 502 q 412 490 400 502 q 425 460 425 477 q 412 431 425 442 q 382 419 400 419 l 146 419 m 865 -1 q 827 16 842 -1 q 811 54 811 33 q 849 146 811 107 q 981 245 887 186 q 1081 317 1047 288 q 1112 377 1112 343 q 1085 436 1112 415 q 1008 457 1058 457 q 879 427 933 457 q 861 423 871 423 q 833 434 845 423 q 822 463 822 445 q 842 498 822 486 q 1019 543 918 543 q 1148 497 1096 543 q 1200 382 1200 452 q 1173 296 1200 335 q 1114 231 1147 259 q 1009 157 1080 203 q 941 111 963 127 q 909 81 920 95 l 1164 81 q 1194 69 1181 81 q 1206 39 1206 57 q 1194 10 1206 22 q 1164 -1 1181 -1 l 865 -1 z "},"¼":{"ha":1208,"x_min":104,"x_max":1177,"o":"m 351 -34 q 317 -20 331 -34 q 304 14 304 -7 q 311 38 304 22 l 872 964 q 911 983 884 983 q 945 970 932 983 q 959 936 959 956 q 952 911 959 928 l 391 -15 q 351 -34 378 -34 m 146 419 q 117 431 129 419 q 106 460 106 442 q 117 490 106 477 q 146 502 129 502 l 227 502 l 227 857 l 167 829 q 146 823 155 823 q 117 836 130 823 q 104 865 104 848 q 112 888 104 878 q 132 905 119 899 l 229 955 q 256 962 245 962 q 299 944 282 962 q 316 902 316 926 l 316 502 l 382 502 q 412 490 400 502 q 425 460 425 477 q 412 431 425 442 q 382 419 400 419 l 146 419 m 1043 -8 q 1012 5 1025 -8 q 998 37 998 19 l 998 129 l 788 129 q 747 146 765 129 q 730 187 730 164 q 745 228 730 209 l 968 514 q 1019 543 993 543 l 1029 543 q 1071 526 1054 543 q 1088 484 1088 509 l 1088 212 l 1135 212 q 1165 199 1153 212 q 1177 170 1177 187 q 1165 140 1177 152 q 1135 129 1153 129 l 1088 129 l 1088 37 q 1075 5 1088 19 q 1043 -8 1062 -8 m 998 430 l 830 212 l 998 212 l 998 430 z "},"¾":{"ha":1208,"x_min":47,"x_max":1177,"o":"m 351 -34 q 317 -20 331 -34 q 304 14 304 -7 q 311 38 304 22 l 872 964 q 911 983 884 983 q 945 970 932 983 q 959 936 959 956 q 952 911 959 928 l 391 -15 q 351 -34 378 -34 m 239 411 q 72 445 132 411 q 54 460 61 450 q 47 483 47 471 q 60 511 47 499 q 88 524 72 524 l 98 522 l 103 521 q 170 503 145 509 q 227 498 195 498 q 318 516 286 498 q 350 567 350 534 q 199 650 350 650 l 184 650 q 155 662 167 650 q 142 692 142 674 q 155 722 142 709 q 184 734 167 734 l 191 734 q 295 753 258 734 q 332 811 332 772 q 304 861 332 845 q 228 878 275 878 q 111 852 163 878 q 94 848 103 848 q 66 859 77 848 q 54 886 54 869 q 81 922 54 907 q 233 963 159 963 q 370 925 321 963 q 419 818 419 887 q 397 741 419 772 q 338 696 374 711 q 412 646 387 681 q 438 564 438 612 q 387 454 438 496 q 239 411 336 411 m 1043 -8 q 1012 5 1025 -8 q 998 37 998 19 l 998 129 l 788 129 q 747 146 765 129 q 730 187 730 164 q 745 228 730 209 l 968 514 q 1019 543 993 543 l 1029 543 q 1071 526 1054 543 q 1088 484 1088 509 l 1088 212 l 1135 212 q 1165 199 1153 212 q 1177 170 1177 187 q 1165 140 1177 152 q 1135 129 1153 129 l 1088 129 l 1088 37 q 1075 5 1088 19 q 1043 -8 1062 -8 m 998 430 l 830 212 l 998 212 l 998 430 z "},".":{"ha":353,"x_min":92,"x_max":260,"o":"m 170 -5 q 115 18 138 -5 q 92 72 92 41 l 92 80 q 115 134 92 111 q 170 157 138 157 l 183 157 q 237 134 214 157 q 260 80 260 111 l 260 72 q 237 18 260 41 q 183 -5 214 -5 l 170 -5 z "},",":{"ha":353,"x_min":84,"x_max":263,"o":"m 125 -206 q 96 -193 109 -206 q 84 -164 84 -180 q 104 -129 84 -142 q 157 -80 141 -107 q 174 -5 174 -53 l 170 -5 q 115 18 138 -5 q 92 72 92 41 l 92 80 q 115 134 92 111 q 170 157 138 157 l 183 157 q 234 135 213 157 q 260 80 255 113 q 263 39 263 66 q 260 0 263 14 q 225 -121 250 -73 q 149 -199 201 -168 q 125 -206 138 -206 z "},":":{"ha":353,"x_min":92,"x_max":260,"o":"m 170 534 q 115 557 138 534 q 92 612 92 581 l 92 620 q 115 674 92 651 q 170 697 138 697 l 183 697 q 237 674 214 697 q 260 620 260 651 l 260 612 q 237 557 260 581 q 183 534 214 534 l 170 534 m 170 -5 q 115 18 138 -5 q 92 72 92 41 l 92 80 q 115 134 92 111 q 170 157 138 157 l 183 157 q 237 134 214 157 q 260 80 260 111 l 260 72 q 237 18 260 41 q 183 -5 214 -5 l 170 -5 z "},";":{"ha":353,"x_min":84,"x_max":263,"o":"m 170 534 q 115 557 138 534 q 92 612 92 581 l 92 620 q 115 674 92 651 q 170 697 138 697 l 183 697 q 237 674 214 697 q 260 620 260 651 l 260 612 q 237 557 260 581 q 183 534 214 534 l 170 534 m 125 -206 q 96 -193 109 -206 q 84 -164 84 -180 q 104 -129 84 -142 q 157 -80 141 -107 q 174 -5 174 -53 l 170 -5 q 115 18 138 -5 q 92 72 92 41 l 92 80 q 115 134 92 111 q 170 157 138 157 l 183 157 q 234 135 213 157 q 260 80 255 113 q 263 39 263 66 q 260 0 263 14 q 225 -121 250 -73 q 149 -199 201 -168 q 125 -206 138 -206 z "},"!":{"ha":381,"x_min":110,"x_max":274,"o":"m 191 260 q 158 271 171 260 q 144 301 145 282 l 119 749 l 119 883 q 140 934 119 913 q 191 955 161 955 q 241 934 221 955 q 262 883 262 913 l 262 749 l 237 301 q 224 271 236 282 q 191 260 212 260 m 191 -7 q 134 18 159 -7 q 110 76 110 42 q 134 133 110 109 q 191 157 159 157 q 250 133 225 157 q 274 76 274 109 q 250 18 274 42 q 191 -7 225 -7 z "},"¡":{"ha":351,"x_min":95,"x_max":259,"o":"m 176 534 q 119 559 144 534 q 95 616 95 583 q 119 674 95 650 q 176 699 144 699 q 235 674 210 699 q 259 616 259 650 q 235 559 259 583 q 176 534 210 534 m 176 -263 q 125 -242 146 -263 q 104 -191 104 -221 l 104 -57 l 129 391 q 143 420 130 410 q 176 431 156 431 q 209 420 197 431 q 222 391 221 410 l 247 -57 l 247 -191 q 227 -242 247 -221 q 176 -263 206 -263 z "},"?":{"ha":674,"x_min":34,"x_max":614,"o":"m 300 251 q 257 267 275 251 q 239 305 239 282 q 260 412 239 368 q 308 486 281 456 q 389 560 335 517 q 467 633 445 604 q 490 697 490 662 q 297 844 490 844 q 205 832 250 844 q 125 799 160 821 q 90 788 106 788 q 51 805 68 788 q 34 844 34 822 q 68 897 34 875 q 180 947 123 932 q 308 962 237 962 q 531 892 448 962 q 614 704 614 822 q 595 612 614 654 q 552 545 578 572 q 477 479 526 518 q 387 392 414 429 q 361 305 361 355 q 342 267 361 283 q 300 251 324 251 m 297 -7 q 240 18 264 -7 q 216 76 216 42 q 240 133 216 109 q 297 157 264 157 q 355 133 331 157 q 380 76 380 109 q 355 18 380 42 q 297 -7 331 -7 z "},"¿":{"ha":662,"x_min":53,"x_max":633,"o":"m 370 534 q 312 559 336 534 q 288 616 288 583 q 312 674 288 650 q 370 699 336 699 q 427 674 403 699 q 452 616 452 650 q 427 559 452 583 q 370 534 403 534 m 359 -270 q 136 -200 220 -270 q 53 -12 53 -130 q 72 81 53 42 q 115 146 90 119 q 190 213 141 174 q 280 300 254 263 q 307 387 307 336 q 325 425 307 408 q 368 441 343 441 q 410 425 392 441 q 429 387 429 410 q 407 279 429 324 q 359 205 387 236 q 278 132 332 175 q 200 59 222 88 q 178 -5 178 30 q 370 -152 178 -152 q 463 -140 418 -152 q 543 -107 507 -129 q 578 -96 562 -96 q 617 -113 601 -96 q 633 -152 633 -130 q 600 -205 633 -183 q 487 -255 544 -240 q 359 -270 430 -270 z "},"·":{"ha":353,"x_min":68,"x_max":274,"o":"m 163 395 q 96 423 125 395 q 68 490 68 452 l 68 500 q 96 568 68 540 q 163 595 125 595 l 179 595 q 246 568 218 595 q 274 500 274 540 l 274 490 q 246 423 274 452 q 179 395 218 395 l 163 395 z "},"*":{"ha":566,"x_min":88,"x_max":476,"o":"m 282 519 q 253 532 266 519 q 240 560 240 544 q 262 701 240 570 l 233 678 q 149 612 153 613 q 132 608 141 608 q 94 628 110 608 q 88 651 88 639 q 109 685 88 674 l 240 736 l 109 788 q 88 823 88 800 q 94 846 88 836 q 130 867 107 867 q 149 861 138 867 q 233 795 153 860 l 262 772 q 240 913 240 903 q 253 941 240 929 q 282 954 266 954 q 311 941 298 954 q 324 913 324 929 q 302 772 324 903 l 331 795 l 414 861 q 434 867 420 867 q 471 846 457 867 q 476 825 476 836 q 456 788 476 802 l 324 736 l 456 685 q 476 650 476 673 q 471 628 476 639 q 433 608 454 608 q 415 612 423 608 q 331 678 411 613 l 302 701 q 324 560 324 570 q 311 532 324 544 q 282 519 298 519 z "},"#":{"ha":830,"x_min":47,"x_max":781,"o":"m 216 -8 q 181 6 195 -8 q 167 41 167 20 l 199 245 l 96 245 q 62 260 77 245 q 47 294 47 275 q 62 328 47 313 q 96 343 77 343 l 214 343 l 247 547 l 144 547 q 110 562 125 547 q 95 595 95 576 q 110 629 95 614 q 144 644 125 644 l 262 644 l 296 857 q 312 886 298 875 q 345 897 326 897 q 380 882 366 897 q 393 848 393 868 q 361 644 393 836 l 530 644 l 564 857 q 581 886 567 875 q 613 897 594 897 q 648 882 635 897 q 662 848 662 868 q 629 644 662 836 l 732 644 q 766 629 751 644 q 781 595 781 614 q 766 562 781 576 q 732 547 751 547 l 614 547 l 582 343 l 685 343 q 719 328 704 343 q 734 294 734 313 q 719 260 734 275 q 685 245 704 245 l 567 245 l 533 33 q 516 4 530 16 q 484 -8 502 -8 q 450 6 464 -8 q 435 41 435 20 l 468 245 l 298 245 l 264 33 q 248 4 262 16 q 216 -8 233 -8 m 515 547 l 346 547 l 313 343 l 483 343 l 515 547 z "},"/":{"ha":601,"x_min":64,"x_max":538,"o":"m 121 -130 q 80 -114 96 -130 q 64 -73 64 -98 q 68 -53 64 -65 l 427 998 q 447 1027 433 1016 q 481 1038 461 1038 q 522 1021 506 1038 q 538 981 538 1005 q 534 960 538 972 l 175 -91 q 155 -119 170 -109 q 121 -130 141 -130 z "},"\\":{"ha":601,"x_min":62,"x_max":537,"o":"m 480 -130 q 446 -119 460 -130 q 426 -91 431 -109 l 66 960 q 62 981 62 972 q 79 1021 62 1005 q 119 1038 95 1038 q 154 1027 140 1038 q 174 998 168 1016 l 533 -53 q 537 -73 537 -65 q 521 -114 537 -98 q 480 -130 505 -130 z "},"(":{"ha":423,"x_min":68,"x_max":361,"o":"m 305 -210 q 280 -205 289 -210 q 259 -186 271 -199 q 117 81 167 -75 q 68 416 68 237 q 117 751 68 595 q 259 1019 167 907 q 280 1038 271 1032 q 305 1043 289 1043 q 344 1027 327 1043 q 361 989 361 1012 q 353 958 361 977 q 235 695 277 833 q 194 416 194 557 q 235 138 194 275 q 353 -125 277 0 q 361 -156 361 -144 q 344 -195 361 -179 q 305 -210 327 -210 z "},")":{"ha":423,"x_min":64,"x_max":357,"o":"m 119 -210 q 81 -195 98 -210 q 64 -156 64 -179 q 72 -125 64 -144 q 189 138 148 0 q 231 416 231 275 q 189 695 231 557 q 72 958 148 833 q 64 989 64 977 q 81 1027 64 1012 q 119 1043 98 1043 q 144 1038 136 1043 q 165 1019 153 1032 q 307 751 258 907 q 357 416 357 595 q 307 81 357 237 q 165 -186 258 -75 q 144 -205 153 -199 q 119 -210 136 -210 z "},"{":{"ha":467,"x_min":3,"x_max":430,"o":"m 365 -198 q 222 -161 270 -198 q 174 -34 174 -123 l 174 252 q 147 325 174 301 q 50 361 121 349 q 15 380 27 365 q 3 416 3 395 q 15 453 3 438 q 50 472 27 468 q 147 508 121 484 q 174 581 174 532 l 174 867 q 222 994 174 956 q 365 1031 270 1031 l 381 1031 q 415 1016 400 1031 q 430 982 430 1001 q 415 948 430 963 q 381 933 400 933 l 361 933 q 298 919 313 933 q 282 878 282 905 l 282 576 q 163 416 282 461 q 282 256 282 372 l 282 -45 q 298 -86 282 -72 q 361 -100 313 -100 l 381 -100 q 415 -115 400 -100 q 430 -149 430 -130 q 415 -183 430 -168 q 381 -198 400 -198 l 365 -198 z "},"}":{"ha":467,"x_min":37,"x_max":464,"o":"m 85 -198 q 52 -183 66 -198 q 37 -149 37 -168 q 52 -115 37 -130 q 85 -100 66 -100 l 106 -100 q 169 -86 153 -100 q 184 -45 184 -72 l 184 256 q 304 416 184 372 q 184 576 184 461 l 184 878 q 169 919 184 905 q 106 933 153 933 l 85 933 q 52 948 66 933 q 37 982 37 963 q 52 1016 37 1001 q 85 1031 66 1031 l 102 1031 q 245 994 197 1031 q 293 867 293 956 l 293 581 q 319 508 293 532 q 416 472 346 484 q 452 453 439 468 q 464 416 464 438 q 452 380 464 395 q 416 361 439 365 q 319 325 346 349 q 293 252 293 301 l 293 -34 q 245 -161 293 -123 q 102 -198 197 -198 l 85 -198 z "},"[":{"ha":437,"x_min":117,"x_max":400,"o":"m 178 -180 q 135 -162 153 -180 q 117 -119 117 -144 l 117 933 q 135 976 117 958 q 178 994 153 994 l 350 994 q 385 979 370 994 q 400 944 400 964 q 385 909 400 924 q 350 894 370 894 l 243 894 q 227 878 227 894 l 227 -65 q 243 -81 227 -81 l 350 -81 q 385 -96 370 -81 q 400 -130 400 -111 q 385 -165 400 -151 q 350 -180 370 -180 l 178 -180 z "},"]":{"ha":437,"x_min":37,"x_max":320,"o":"m 87 -180 q 52 -165 66 -180 q 37 -130 37 -151 q 52 -96 37 -111 q 87 -81 66 -81 l 194 -81 q 210 -65 210 -81 l 210 878 q 194 894 210 894 l 87 894 q 52 909 66 894 q 37 944 37 924 q 52 979 37 964 q 87 994 66 994 l 259 994 q 302 976 283 994 q 320 933 320 958 l 320 -119 q 302 -162 320 -144 q 259 -180 283 -180 l 87 -180 z "},"-":{"ha":553,"x_min":92,"x_max":461,"o":"m 148 324 q 109 340 125 324 q 92 380 92 357 q 108 420 92 404 q 148 437 123 437 l 404 437 q 444 420 427 437 q 461 380 461 403 q 445 340 461 355 q 404 324 429 324 l 148 324 z "},"_":{"ha":899,"x_min":69,"x_max":830,"o":"m 115 -201 q 83 -187 98 -201 q 69 -155 69 -174 q 83 -123 69 -137 q 115 -109 98 -109 l 784 -109 q 817 -123 803 -109 q 830 -155 830 -137 q 817 -187 830 -174 q 784 -201 803 -201 l 115 -201 z "},"«":{"ha":793,"x_min":72,"x_max":694,"o":"m 358 26 q 319 41 332 26 l 96 286 q 72 346 72 315 q 96 406 72 377 l 319 651 q 358 666 332 666 q 397 650 381 666 q 412 612 412 635 q 400 575 412 591 l 201 365 q 193 346 193 357 q 201 327 193 338 l 400 117 q 412 80 412 103 q 397 41 412 57 q 358 26 381 26 m 640 26 q 601 41 614 26 l 378 286 q 354 346 354 315 q 378 406 354 377 l 601 651 q 640 666 614 666 q 679 650 663 666 q 694 612 694 635 q 682 575 694 591 l 483 365 q 475 346 475 357 q 483 327 475 338 l 682 117 q 694 80 694 103 q 679 41 694 57 q 640 26 663 26 z "},"»":{"ha":793,"x_min":99,"x_max":722,"o":"m 153 26 q 115 41 130 26 q 99 80 99 57 q 111 117 99 103 l 311 327 q 319 346 319 338 q 311 365 319 357 l 111 575 q 99 612 99 591 q 115 650 99 635 q 153 666 130 666 q 193 651 179 666 l 415 406 q 439 346 439 377 q 415 286 439 315 l 193 41 q 153 26 179 26 m 435 26 q 397 41 412 26 q 381 80 381 57 q 393 117 381 103 l 593 327 q 601 346 601 338 q 593 365 601 357 l 393 575 q 381 612 381 591 q 397 650 381 635 q 435 666 412 666 q 475 651 461 666 l 697 406 q 722 346 722 377 q 697 286 722 315 l 475 41 q 435 26 461 26 z "},"\"":{"ha":560,"x_min":80,"x_max":480,"o":"m 155 734 q 110 779 117 734 l 81 977 l 80 989 q 155 1061 80 1061 q 210 1036 186 1061 q 229 990 232 1013 l 227 977 l 198 779 q 155 734 191 734 m 406 734 q 362 779 369 734 l 332 977 l 331 990 q 406 1061 331 1061 q 480 987 480 1061 l 479 977 l 450 779 q 406 734 444 734 z "},"'":{"ha":301,"x_min":80,"x_max":221,"o":"m 151 666 q 123 675 134 666 q 110 701 113 685 q 80 945 80 850 q 101 994 80 974 q 151 1015 122 1015 q 200 994 179 1015 q 221 945 221 974 q 191 701 221 850 q 178 675 189 685 q 151 666 167 666 z "},"¢":{"ha":747,"x_min":58,"x_max":671,"o":"m 248 -168 q 220 -157 232 -168 q 209 -129 209 -145 q 213 -111 209 -119 l 258 19 q 112 146 165 61 q 58 346 58 232 q 109 538 58 456 q 239 663 157 618 q 422 707 321 707 q 491 701 454 707 l 530 815 q 545 835 534 827 q 568 842 556 842 q 596 830 585 842 q 608 802 608 818 l 606 791 l 605 788 l 568 681 q 644 642 609 666 q 671 593 671 623 q 655 555 671 572 q 618 537 639 537 q 589 545 605 537 l 532 572 l 372 109 q 433 103 395 103 q 510 113 479 103 q 589 146 541 122 q 618 155 605 155 q 655 137 639 155 q 671 99 671 119 q 644 50 671 69 q 541 2 593 19 q 422 -15 490 -15 q 334 -4 381 -15 l 286 -142 q 272 -161 282 -155 q 248 -168 262 -168 m 453 587 q 433 589 449 589 q 252 523 319 589 q 184 346 184 457 q 214 218 184 273 q 297 134 243 164 l 453 587 z "},"¤":{"ha":906,"x_min":88,"x_max":818,"o":"m 140 109 q 103 124 118 109 q 88 160 88 140 q 103 197 88 182 l 191 283 q 130 473 130 372 q 191 663 130 576 l 103 750 q 88 787 88 765 q 103 823 88 807 q 140 838 118 838 q 176 823 157 838 l 264 735 q 453 796 350 796 q 642 735 556 796 l 730 823 q 766 838 749 838 q 803 823 788 838 q 818 787 818 807 q 803 750 818 765 l 715 663 q 776 473 776 576 q 715 283 776 372 l 803 197 q 818 160 818 182 q 803 124 818 140 q 766 109 788 109 q 730 123 749 109 l 642 212 q 453 151 556 151 q 264 212 350 151 l 176 123 q 140 109 157 109 m 453 263 q 557 292 511 263 q 635 368 606 320 q 663 473 663 416 q 635 578 663 530 q 558 655 606 627 q 453 684 510 684 q 349 655 395 684 q 271 578 300 627 q 243 473 243 530 q 271 369 243 416 q 348 292 300 320 q 453 263 396 263 z "},"$":{"ha":836,"x_min":68,"x_max":779,"o":"m 779 251 q 741 119 779 179 q 629 26 701 61 q 465 -14 557 -8 l 465 -109 q 453 -138 465 -126 q 422 -151 441 -151 q 392 -139 404 -151 q 380 -109 380 -127 l 380 -14 q 107 50 236 -4 q 79 73 91 57 q 68 107 68 90 q 84 149 68 132 q 125 165 100 165 q 151 160 140 165 q 380 106 259 111 l 380 415 q 227 468 286 439 q 115 555 153 500 q 77 682 77 610 q 113 814 77 753 q 218 914 149 876 q 380 960 288 952 l 380 1054 q 392 1084 380 1072 q 422 1097 404 1097 q 452 1084 439 1097 q 465 1054 465 1072 l 465 962 q 700 917 598 955 q 739 861 739 902 q 723 821 739 840 q 684 803 707 803 q 662 808 674 803 q 465 845 572 841 l 465 525 q 627 475 557 503 q 738 390 697 445 q 779 251 779 335 m 203 692 q 245 602 203 635 q 380 545 288 570 l 380 841 q 250 789 296 829 q 203 692 203 750 m 465 106 q 654 259 654 119 q 610 338 654 308 q 465 395 566 368 l 465 106 z "},"ƒ":{"ha":547,"x_min":-73,"x_max":604,"o":"m -16 -213 q -56 -196 -39 -213 q -73 -156 -73 -179 q -57 -115 -73 -132 q -16 -98 -41 -98 l -7 -98 q 82 -71 53 -98 q 119 20 111 -43 l 184 487 l 88 487 q 53 502 68 487 q 38 537 38 517 q 53 573 38 557 q 88 589 68 589 l 199 589 l 227 784 q 308 955 241 897 q 465 1013 374 1013 q 571 996 536 1013 q 604 945 604 977 q 587 906 604 922 q 548 890 571 890 l 519 894 q 479 898 496 898 q 390 871 419 898 q 353 780 361 844 l 326 589 l 473 589 q 509 573 494 589 q 525 537 525 557 q 510 501 525 515 q 473 487 495 487 l 312 487 l 245 16 q 164 -155 231 -98 q 8 -213 98 -213 l -16 -213 z "},"£":{"ha":819,"x_min":52,"x_max":768,"o":"m 711 127 q 751 112 735 127 q 768 72 768 96 q 735 22 768 41 q 591 -15 669 -15 q 529 -8 556 -15 q 457 15 502 -1 q 387 39 415 33 q 321 46 358 46 q 176 0 240 46 q 144 -11 161 -11 q 108 3 123 -11 q 92 38 92 18 q 111 81 92 65 q 201 203 167 133 q 236 346 236 273 q 232 395 236 373 l 102 395 q 66 410 81 395 q 52 445 52 425 q 66 481 52 465 q 102 496 81 496 l 208 496 q 176 601 184 564 q 168 681 168 637 q 258 886 168 810 q 499 962 347 962 q 694 922 597 962 q 736 867 736 906 q 720 825 736 842 q 678 808 703 808 q 652 814 667 808 q 505 840 575 840 q 349 800 404 840 q 294 686 294 761 q 302 618 294 654 q 327 528 309 583 l 336 496 l 562 496 q 597 481 582 496 q 613 445 613 465 q 598 409 613 423 q 562 395 583 395 l 358 395 q 359 387 358 389 l 361 354 q 305 161 361 250 l 336 163 q 395 157 369 163 q 476 134 422 152 q 545 113 517 119 q 604 107 574 107 q 689 122 644 107 q 711 127 704 127 z "},"¥":{"ha":892,"x_min":87,"x_max":806,"o":"m 446 -9 q 403 9 422 -9 q 384 53 384 27 l 384 203 l 194 203 q 157 218 172 203 q 142 255 142 233 q 157 292 142 277 q 194 308 172 308 l 384 308 l 384 392 l 194 392 q 157 407 172 392 q 142 444 142 422 q 157 481 142 465 q 194 496 172 496 l 324 496 l 98 865 q 87 902 87 887 q 106 949 87 930 q 153 967 125 967 q 213 928 190 967 l 446 519 l 680 928 q 739 967 703 967 q 787 949 768 967 q 806 902 806 930 q 795 865 806 887 l 568 496 l 699 496 q 735 481 720 496 q 750 444 750 465 q 735 407 750 422 q 699 392 720 392 l 509 392 l 509 308 l 699 308 q 735 292 720 308 q 750 255 750 277 q 735 218 750 233 q 699 203 720 203 l 509 203 l 509 53 q 490 9 509 27 q 446 -9 471 -9 z "},"≡":{"ha":1389,"x_min":218,"x_max":1172,"o":"m 277 681 q 218 728 218 681 q 277 776 218 776 l 1112 776 q 1172 728 1172 776 q 1112 681 1172 681 l 277 681 m 277 441 q 218 488 218 441 q 277 534 218 534 l 1112 534 q 1172 488 1172 534 q 1112 441 1172 441 l 277 441 m 277 199 q 218 247 218 199 q 277 294 218 294 l 1112 294 q 1172 247 1172 294 q 1112 199 1172 199 l 277 199 z "},"+":{"ha":762,"x_min":53,"x_max":709,"o":"m 381 140 q 343 156 359 140 q 327 194 327 172 l 327 415 l 106 415 q 68 431 84 415 q 53 468 53 446 q 68 507 53 491 q 106 522 84 522 l 327 522 l 327 743 q 343 782 327 766 q 381 798 359 798 q 420 782 404 798 q 435 743 435 766 l 435 522 l 655 522 q 694 507 678 522 q 709 468 709 491 q 694 431 709 446 q 655 415 678 415 l 435 415 l 435 194 q 420 156 435 172 q 381 140 404 140 z "},"×":{"ha":764,"x_min":79,"x_max":684,"o":"m 132 47 q 94 64 110 47 q 79 100 79 80 q 95 138 79 119 l 308 350 l 95 562 q 79 600 79 581 q 94 636 79 620 q 132 652 110 652 q 170 636 151 652 l 381 423 l 593 636 q 631 652 612 652 q 668 636 652 652 q 684 600 684 620 q 667 562 684 581 l 454 350 l 667 138 q 684 100 684 119 q 668 64 684 80 q 631 47 652 47 q 593 64 612 47 l 381 277 l 170 64 q 132 47 151 47 z "},"÷":{"ha":966,"x_min":98,"x_max":868,"o":"m 483 629 q 433 650 454 629 q 412 700 412 671 q 433 749 412 728 q 483 770 454 770 q 532 749 511 770 q 553 700 553 728 q 532 650 553 671 q 483 629 511 629 m 153 393 q 114 410 130 393 q 98 449 98 426 q 113 490 98 473 q 153 506 129 506 l 811 506 q 851 489 834 506 q 868 449 868 472 q 852 409 868 425 q 811 393 836 393 l 153 393 m 483 127 q 433 149 454 127 q 412 198 412 170 q 433 248 412 227 q 483 269 454 269 q 532 248 511 269 q 553 198 553 227 q 532 149 553 170 q 483 127 511 127 z "},"=":{"ha":966,"x_min":98,"x_max":868,"o":"m 152 547 q 114 563 130 547 q 98 601 98 579 q 114 640 98 624 q 152 655 130 655 l 814 655 q 852 640 837 655 q 868 601 868 624 q 852 563 868 579 q 814 547 837 547 l 152 547 m 152 243 q 114 259 130 243 q 98 297 98 275 q 114 336 98 320 q 152 351 130 351 l 814 351 q 852 336 837 351 q 868 297 868 320 q 852 259 868 275 q 814 243 837 243 l 152 243 z "},">":{"ha":787,"x_min":72,"x_max":741,"o":"m 127 77 q 88 94 104 77 q 72 133 72 110 q 83 164 72 149 q 110 186 94 179 l 594 401 l 110 617 q 83 639 94 624 q 72 670 72 654 q 88 709 72 693 q 127 726 104 726 q 149 722 140 726 l 690 479 q 741 407 741 454 l 741 396 q 690 324 741 349 l 149 81 q 127 77 140 77 z "},"<":{"ha":787,"x_min":46,"x_max":715,"o":"m 659 77 q 637 81 648 77 l 96 324 q 46 396 46 349 l 46 407 q 96 479 46 454 l 637 722 q 659 726 648 726 q 699 709 682 726 q 715 670 715 693 q 704 639 715 654 q 677 617 693 624 l 191 401 l 677 186 q 704 164 693 179 q 715 133 715 149 q 699 94 715 110 q 659 77 682 77 z "},"±":{"ha":822,"x_min":83,"x_max":739,"o":"m 411 195 q 373 212 389 195 q 357 250 357 228 l 357 463 l 136 463 q 98 478 114 463 q 83 515 83 494 q 98 554 83 538 q 136 570 114 570 l 357 570 l 357 783 q 373 821 357 806 q 411 837 389 837 q 450 821 434 837 q 465 783 465 806 l 465 570 l 685 570 q 724 554 708 570 q 739 515 739 538 q 724 478 739 494 q 685 463 708 463 l 465 463 l 465 250 q 450 212 465 228 q 411 195 434 195 m 136 -1 q 98 14 114 -1 q 83 52 83 30 q 98 90 83 75 q 136 106 114 106 l 685 106 q 724 90 708 106 q 739 52 739 75 q 724 14 739 30 q 685 -1 708 -1 l 136 -1 z "},"¬":{"ha":785,"x_min":98,"x_max":674,"o":"m 621 227 q 585 241 600 227 q 570 278 570 256 l 570 420 l 148 420 q 113 435 127 420 q 98 471 98 450 q 113 506 98 491 q 148 521 127 521 l 616 521 q 656 503 639 521 q 674 463 674 486 l 674 278 q 659 241 674 256 q 621 227 643 227 z "},"~":{"ha":865,"x_min":99,"x_max":774,"o":"m 597 278 q 509 291 549 278 q 399 336 468 304 q 319 372 347 362 q 263 381 292 381 q 170 309 190 381 q 157 290 167 297 q 136 282 148 282 q 111 294 122 282 q 99 319 99 305 q 123 404 99 362 q 188 473 148 446 q 273 499 228 499 q 362 486 321 499 q 472 441 403 473 q 551 406 524 415 q 608 396 579 396 q 658 407 643 396 q 690 450 673 418 q 703 476 696 465 q 736 498 713 498 q 764 486 753 498 q 770 454 774 473 q 709 324 754 370 q 597 278 663 278 z "},"^":{"ha":711,"x_min":110,"x_max":598,"o":"m 160 562 q 125 576 140 562 q 110 612 110 591 q 118 636 110 620 l 260 906 q 290 942 274 930 q 328 954 305 954 l 380 954 q 418 942 403 954 q 448 906 434 930 l 590 636 q 598 612 598 620 q 583 576 598 591 q 548 562 568 562 q 509 579 526 562 q 415 731 502 585 q 366 812 366 812 q 354 822 361 822 q 343 814 347 822 q 258 673 275 703 q 197 576 201 581 q 160 562 186 562 z "},"µ":{"ha":819,"x_min":113,"x_max":734,"o":"m 175 -297 q 131 -279 149 -297 q 113 -235 113 -260 l 113 637 q 132 682 113 663 q 176 700 151 700 q 220 682 202 700 q 239 637 239 663 l 239 266 q 387 102 239 102 q 504 134 452 102 q 608 231 556 167 l 608 637 q 627 682 608 663 q 671 700 646 700 q 715 682 697 700 q 734 637 734 663 l 734 56 q 715 11 734 30 q 671 -8 697 -8 q 627 11 646 -8 q 608 56 608 30 l 608 107 q 495 15 551 45 q 363 -15 439 -15 q 239 20 292 -15 l 239 -235 q 220 -279 239 -260 q 175 -297 201 -297 z "},"%":{"ha":1104,"x_min":57,"x_max":1047,"o":"m 277 483 q 115 551 174 483 q 57 727 57 618 q 115 903 57 836 q 277 971 174 971 q 438 903 380 971 q 496 727 496 836 q 438 551 496 618 q 277 483 380 483 m 277 -15 q 245 -1 259 -15 q 231 31 231 12 q 237 56 231 45 l 789 939 q 829 960 804 960 q 863 949 850 960 q 876 918 876 937 q 867 887 876 902 l 319 9 q 277 -15 304 -15 m 277 574 q 366 615 332 574 q 399 727 399 656 q 366 839 399 798 q 277 880 332 880 q 188 839 221 880 q 155 727 155 798 q 188 615 155 656 q 277 574 221 574 m 827 -26 q 666 42 724 -26 q 608 218 608 110 q 666 395 608 327 q 827 463 724 463 q 989 395 930 463 q 1047 218 1047 327 q 989 42 1047 110 q 827 -26 930 -26 m 827 65 q 916 106 883 65 q 949 218 949 148 q 916 330 949 289 q 827 372 883 372 q 739 330 772 372 q 705 218 705 289 q 739 106 705 148 q 827 65 772 65 z "},"■":{"ha":1389,"x_min":126,"x_max":1263,"o":"m 1263 1055 l 1263 -81 l 126 -81 l 126 1055 l 1263 1055 z "},"┬":{"ha":1389,"x_min":20,"x_max":1367,"o":"m 715 465 l 715 -187 l 674 -187 l 674 465 l 20 465 l 20 506 l 1367 506 l 1367 465 l 715 465 z "},"┐":{"ha":1389,"x_min":20,"x_max":715,"o":"m 715 506 l 715 -187 l 674 -187 l 674 465 l 20 465 l 20 506 l 715 506 z "},"┌":{"ha":1389,"x_min":674,"x_max":1367,"o":"m 674 506 l 1367 506 l 1367 465 l 715 465 l 715 -187 l 674 -187 l 674 506 z "},"─":{"ha":1389,"x_min":20,"x_max":1367,"o":"m 20 465 l 20 506 l 1367 506 l 1367 465 l 20 465 z "},"┴":{"ha":1389,"x_min":20,"x_max":1367,"o":"m 715 506 l 1367 506 l 1367 465 l 20 465 l 20 506 l 674 506 l 674 1160 l 715 1160 l 715 506 z "},"┘":{"ha":1389,"x_min":20,"x_max":715,"o":"m 715 465 l 20 465 l 20 506 l 674 506 l 674 1160 l 715 1160 l 715 465 z "},"└":{"ha":1389,"x_min":674,"x_max":1367,"o":"m 674 465 l 674 1160 l 715 1160 l 715 506 l 1367 506 l 1367 465 l 674 465 z "},"│":{"ha":1389,"x_min":674,"x_max":715,"o":"m 674 -187 l 674 1160 l 715 1160 l 715 -187 l 674 -187 z "},"┼":{"ha":1389,"x_min":20,"x_max":1367,"o":"m 674 506 l 674 1160 l 715 1160 l 715 506 l 1367 506 l 1367 465 l 715 465 l 715 -187 l 674 -187 l 674 465 l 20 465 l 20 506 l 674 506 z "},"┤":{"ha":1389,"x_min":20,"x_max":715,"o":"m 674 506 l 674 1160 l 715 1160 l 715 -187 l 674 -187 l 674 465 l 20 465 l 20 506 l 674 506 z "},"├":{"ha":1389,"x_min":674,"x_max":1367,"o":"m 715 506 l 1367 506 l 1367 465 l 715 465 l 715 -187 l 674 -187 l 674 1160 l 715 1160 l 715 506 z "},"@":{"ha":1218,"x_min":65,"x_max":1160,"o":"m 543 -114 q 292 -50 403 -114 q 125 122 184 14 q 65 355 65 231 q 144 643 65 511 q 356 856 222 777 q 642 935 490 935 q 901 875 781 935 q 1090 705 1021 812 q 1160 464 1160 597 q 1134 302 1160 374 q 1048 175 1107 222 q 906 127 990 127 q 802 155 842 127 q 753 227 762 183 q 654 151 712 176 q 530 126 597 126 q 361 193 423 126 q 298 366 298 259 q 345 544 298 468 q 463 657 388 617 q 621 697 537 697 q 793 629 724 697 l 798 650 q 815 681 800 669 q 849 693 830 693 q 885 678 871 693 q 899 642 899 663 l 898 627 l 853 369 q 844 281 844 321 q 861 217 844 240 q 910 194 879 194 q 1038 265 991 194 q 1084 464 1084 336 q 1020 678 1084 587 q 857 813 958 766 q 642 860 755 860 q 393 791 510 860 q 208 604 277 720 q 138 355 138 488 q 187 164 138 258 q 329 15 237 71 q 543 -41 420 -41 q 682 -26 621 -41 q 826 22 742 -12 q 841 24 837 24 q 866 14 856 24 q 876 -9 876 4 q 871 -28 876 -19 q 856 -42 865 -38 q 543 -114 712 -114 m 560 222 q 757 411 724 222 l 779 537 q 627 598 720 598 q 518 572 566 598 q 435 495 465 545 q 406 380 406 445 q 447 264 406 305 q 560 222 488 222 z "},"&":{"ha":993,"x_min":95,"x_max":897,"o":"m 429 -15 q 240 26 316 -15 q 131 127 167 64 q 95 266 95 190 q 139 418 95 351 q 248 526 183 484 q 185 623 205 578 q 165 723 165 667 q 197 842 165 787 q 286 930 228 898 q 420 962 345 962 q 602 902 510 962 q 619 884 612 897 q 627 860 627 872 q 612 825 627 840 q 578 811 598 811 q 553 818 570 811 q 426 853 487 853 q 321 817 359 853 q 282 730 282 781 q 296 661 282 689 q 332 606 308 633 q 418 521 357 578 l 700 255 q 743 335 712 273 q 765 361 750 351 q 798 370 780 370 q 839 354 822 370 q 856 313 856 338 q 849 286 856 302 q 784 175 823 229 l 875 90 q 892 69 887 79 q 897 45 897 60 q 880 4 897 20 q 840 -12 864 -12 q 796 4 815 -12 l 707 91 q 576 13 647 41 q 429 -15 505 -15 m 418 92 q 624 167 532 92 l 324 449 q 245 370 275 418 q 214 262 214 321 q 241 176 214 214 q 314 115 267 137 q 418 92 361 92 z "},"¶":{"ha":993,"x_min":52,"x_max":935,"o":"m 503 -305 q 465 -289 481 -305 q 449 -250 449 -273 l 449 248 l 401 248 q 225 296 307 248 q 98 423 145 343 q 52 598 52 503 q 99 774 52 693 q 227 901 146 854 q 401 948 307 948 l 879 948 q 918 932 902 948 q 935 892 935 916 q 918 854 935 871 q 879 838 902 838 l 818 838 l 818 -250 q 802 -289 818 -273 q 762 -305 785 -305 q 724 -289 741 -305 q 708 -250 708 -273 l 708 838 l 559 838 l 559 -250 q 543 -289 559 -273 q 503 -305 526 -305 z "},"§":{"ha":718,"x_min":62,"x_max":651,"o":"m 342 -141 q 84 -80 182 -141 q 68 -61 75 -75 q 62 -34 62 -47 q 79 5 62 -11 q 117 22 95 22 q 145 14 129 22 q 334 -24 220 -24 q 486 69 486 -24 q 448 130 486 107 q 330 184 406 156 q 201 240 245 217 q 111 315 145 267 q 76 425 76 362 q 208 595 76 551 q 122 760 122 661 q 193 905 122 848 q 385 962 263 962 q 589 925 499 962 q 627 871 627 909 q 609 832 627 849 q 570 815 591 815 q 549 819 557 815 q 393 845 481 845 q 241 751 241 845 q 279 692 241 712 q 397 636 319 666 q 528 579 476 606 q 617 505 583 552 q 651 396 651 458 q 518 224 651 267 q 605 61 605 164 q 534 -84 605 -27 q 342 -141 464 -141 m 434 270 q 534 388 534 294 q 513 444 534 420 q 458 484 491 468 q 363 522 426 499 l 332 534 q 292 551 315 540 q 193 433 193 526 q 214 376 193 400 q 269 337 236 353 q 362 298 301 321 l 434 270 z "},"©":{"ha":1111,"x_min":68,"x_max":1044,"o":"m 556 -14 q 312 53 425 -14 q 134 231 199 118 q 68 473 68 343 q 134 718 68 605 q 313 895 199 829 q 556 960 426 960 q 802 895 688 960 q 979 716 914 829 q 1044 473 1044 604 q 979 229 1044 343 q 800 52 913 118 q 556 -14 686 -14 m 555 60 q 764 117 670 60 q 916 268 860 174 q 971 473 971 362 q 916 680 971 585 q 762 831 857 776 q 555 887 667 887 q 349 831 444 887 q 197 679 252 773 q 141 473 141 585 q 198 267 141 361 q 349 115 255 171 q 555 60 444 60 m 564 197 q 427 231 487 197 q 334 329 368 264 q 301 473 301 393 q 335 618 301 556 q 428 716 369 682 q 564 750 487 750 q 702 713 643 750 q 795 606 761 675 q 799 589 799 598 q 786 557 799 571 q 754 544 773 544 q 711 575 727 544 q 564 665 661 665 q 440 611 486 665 q 395 473 395 557 q 440 336 395 389 q 564 282 486 282 q 711 372 661 282 q 754 403 727 403 q 786 391 773 403 q 799 358 799 378 q 795 340 799 349 q 702 234 761 271 q 564 197 643 197 z "},"®":{"ha":1111,"x_min":68,"x_max":1044,"o":"m 556 -15 q 312 52 425 -15 q 134 230 199 117 q 68 473 68 343 q 134 719 68 606 q 313 897 199 831 q 556 962 426 962 q 802 897 688 962 q 979 717 914 830 q 1044 473 1044 604 q 979 229 1044 343 q 800 51 913 117 q 556 -15 686 -15 m 555 58 q 764 115 670 58 q 916 267 860 172 q 971 475 971 362 q 916 681 971 586 q 762 833 857 777 q 555 888 667 888 q 349 833 444 888 q 197 680 252 774 q 141 475 141 586 q 198 267 141 361 q 349 115 255 171 q 555 58 444 58 m 399 195 q 366 209 380 195 q 353 241 353 222 l 353 681 q 371 726 353 707 q 415 745 389 745 l 578 745 q 736 702 681 745 q 792 581 792 659 q 766 500 792 534 q 694 449 739 465 q 760 391 734 434 q 785 279 785 347 l 785 243 q 771 210 785 224 q 738 195 757 195 q 705 210 719 195 q 690 243 690 224 l 690 267 q 671 370 690 335 q 593 404 651 404 l 446 404 l 446 241 q 433 208 446 221 q 399 195 419 195 m 574 487 q 667 511 633 487 q 700 578 700 536 q 669 642 700 621 q 571 663 637 663 l 463 663 q 446 647 446 663 l 446 487 l 574 487 z "},"°":{"ha":513,"x_min":69,"x_max":444,"o":"m 256 587 q 163 613 206 587 q 95 682 121 639 q 69 774 69 724 q 95 867 69 825 q 163 936 121 910 q 256 962 206 962 q 349 936 307 962 q 418 867 392 910 q 444 774 444 825 q 418 682 444 724 q 349 613 392 639 q 256 587 307 587 m 256 661 q 337 694 304 661 q 370 774 370 727 q 337 855 370 822 q 256 888 304 888 q 176 855 209 888 q 142 774 142 822 q 176 694 142 727 q 256 661 209 661 z "},"|":{"ha":343,"x_min":115,"x_max":228,"o":"m 171 -267 q 132 -251 148 -267 q 115 -212 115 -235 l 115 949 q 131 990 115 974 q 171 1006 146 1006 q 211 989 194 1006 q 228 949 228 972 l 228 -212 q 212 -252 228 -236 q 171 -267 195 -267 z "},"¦":{"ha":343,"x_min":115,"x_max":228,"o":"m 171 492 q 132 509 148 492 q 115 548 115 525 l 115 949 q 131 990 115 974 q 171 1006 146 1006 q 211 989 194 1006 q 228 949 228 972 l 228 548 q 212 508 228 524 q 171 492 195 492 m 171 -267 q 132 -251 148 -267 q 115 -212 115 -235 l 115 190 q 131 231 115 214 q 171 247 146 247 q 211 230 194 247 q 228 190 228 213 l 228 -212 q 212 -252 228 -236 q 171 -267 195 -267 z "},"¨":{"ha":1389,"x_min":507,"x_max":876,"o":"m 578 1066 q 528 1087 549 1066 q 507 1137 507 1108 q 528 1186 507 1165 q 578 1207 549 1207 q 627 1186 606 1207 q 648 1137 648 1165 q 627 1087 648 1108 q 578 1066 606 1066 m 806 1066 q 756 1087 777 1066 q 735 1137 735 1108 q 756 1186 735 1165 q 806 1207 777 1207 q 855 1186 834 1207 q 876 1137 876 1165 q 855 1087 876 1108 q 806 1066 834 1066 z "},"`":{"ha":326,"x_min":133,"x_max":309,"o":"m 271 768 q 240 783 252 768 l 146 894 q 133 929 133 907 q 147 967 133 954 q 184 981 161 981 q 231 954 217 981 l 300 833 q 309 806 309 817 q 299 779 309 789 q 271 768 289 768 z "},"´":{"ha":326,"x_min":233,"x_max":410,"o":"m 271 768 q 244 778 255 768 q 233 806 233 788 q 243 833 233 817 l 312 954 q 358 981 326 981 q 395 966 380 981 q 410 929 410 952 q 396 894 410 907 l 302 783 q 271 768 290 768 z "},"¯":{"ha":423,"x_min":11,"x_max":412,"o":"m 53 799 q 23 811 35 799 q 11 841 11 823 q 23 871 11 859 q 53 883 35 883 l 370 883 q 400 871 388 883 q 412 841 412 859 q 400 811 412 823 q 370 799 388 799 l 53 799 z "},"¸":{"ha":416,"x_min":115,"x_max":406,"o":"m 254 -301 q 130 -266 190 -301 q 115 -241 115 -252 q 123 -221 115 -229 q 142 -213 130 -213 q 156 -217 148 -213 q 236 -240 199 -240 q 312 -179 312 -240 q 299 -149 312 -160 q 264 -138 286 -138 q 205 -153 237 -138 q 191 -157 197 -157 q 174 -151 182 -157 q 165 -134 165 -144 q 171 -114 165 -123 l 259 24 l 319 24 l 256 -83 q 300 -79 277 -79 q 376 -106 346 -79 q 406 -175 406 -133 q 367 -269 406 -237 q 254 -301 328 -301 z "}}}
